<svg width="56" height="68" viewBox="0 0 56 68" fill="none" xmlns="http://www.w3.org/2000/svg">
<rect x="31.825" y="0.315186" width="1.675" height="1.675" fill="white"/>
<rect x="30.15" y="1.99017" width="1.675" height="1.675" fill="white"/>
<rect x="33.5" y="1.99017" width="1.675" height="1.675" fill="white"/>
<rect x="35.175" y="1.99017" width="1.675" height="1.675" fill="white"/>
<rect x="26.8" y="3.66516" width="1.675" height="1.675" fill="white"/>
<rect x="35.175" y="3.66516" width="1.675" height="1.675" fill="white"/>
<rect x="36.85" y="3.66516" width="1.675" height="1.675" fill="white"/>
<rect x="23.45" y="5.34021" width="1.675" height="1.675" fill="white"/>
<rect x="25.125" y="5.34021" width="1.675" height="1.675" fill="white"/>
<rect x="33.5" y="5.34021" width="1.675" height="1.675" fill="white"/>
<rect x="35.175" y="5.34021" width="1.675" height="1.675" fill="white"/>
<rect x="36.85" y="5.34021" width="1.675" height="1.675" fill="white"/>
<rect x="20.1" y="7.0152" width="1.675" height="1.675" fill="white"/>
<rect x="21.775" y="7.0152" width="1.675" height="1.675" fill="white"/>
<rect x="30.15" y="7.0152" width="1.675" height="1.675" fill="white"/>
<rect x="31.825" y="7.0152" width="1.675" height="1.675" fill="white"/>
<rect x="33.5" y="7.0152" width="1.675" height="1.675" fill="white"/>
<rect x="35.175" y="7.0152" width="1.675" height="1.675" fill="white"/>
<rect x="36.85" y="7.0152" width="1.675" height="1.675" fill="white"/>
<rect x="38.525" y="7.0152" width="1.675" height="1.675" fill="white"/>
<rect x="18.425" y="8.69019" width="1.675" height="1.675" fill="white"/>
<rect x="26.8" y="8.69019" width="1.675" height="1.675" fill="white"/>
<rect x="28.475" y="8.69019" width="1.675" height="1.675" fill="white"/>
<rect x="30.15" y="8.69019" width="1.675" height="1.675" fill="white"/>
<rect x="31.825" y="8.69019" width="1.675" height="1.675" fill="white"/>
<rect x="33.5" y="8.69019" width="1.675" height="1.675" fill="white"/>
<rect x="35.175" y="8.69019" width="1.675" height="1.675" fill="white"/>
<rect x="36.85" y="8.69019" width="1.675" height="1.675" fill="white"/>
<rect x="38.525" y="8.69019" width="1.675" height="1.675" fill="white"/>
<rect x="15.075" y="10.3652" width="1.675" height="1.675" fill="white"/>
<rect x="16.75" y="10.3652" width="1.675" height="1.675" fill="white"/>
<rect x="25.125" y="10.3652" width="1.675" height="1.675" fill="white"/>
<rect x="26.8" y="10.3652" width="1.675" height="1.675" fill="white"/>
<rect x="28.475" y="10.3652" width="1.675" height="1.675" fill="white"/>
<rect x="30.15" y="10.3652" width="1.675" height="1.675" fill="white"/>
<rect x="31.825" y="10.3652" width="1.675" height="1.675" fill="white"/>
<rect x="33.5" y="10.3652" width="1.675" height="1.675" fill="white"/>
<rect x="35.175" y="10.3652" width="1.675" height="1.675" fill="white"/>
<rect x="36.85" y="10.3652" width="1.675" height="1.675" fill="white"/>
<rect x="38.525" y="10.3652" width="1.675" height="1.675" fill="white"/>
<rect x="15.075" y="12.0402" width="1.675" height="1.675" fill="white"/>
<rect x="18.425" y="12.0402" width="1.675" height="1.675" fill="white"/>
<rect x="21.775" y="12.0402" width="1.675" height="1.675" fill="white"/>
<rect x="23.45" y="12.0402" width="1.675" height="1.675" fill="white"/>
<rect x="25.125" y="12.0402" width="1.675" height="1.675" fill="white"/>
<rect x="26.8" y="12.0402" width="1.675" height="1.675" fill="white"/>
<rect x="28.475" y="12.0402" width="1.675" height="1.675" fill="white"/>
<rect x="30.15" y="12.0402" width="1.675" height="1.675" fill="white"/>
<rect x="31.825" y="12.0402" width="1.675" height="1.675" fill="white"/>
<rect x="33.5" y="12.0402" width="1.675" height="1.675" fill="white"/>
<rect x="35.175" y="12.0402" width="1.675" height="1.675" fill="white"/>
<rect x="36.85" y="12.0402" width="1.675" height="1.675" fill="white"/>
<rect x="38.525" y="12.0402" width="1.675" height="1.675" fill="white"/>
<rect x="13.4" y="13.7152" width="1.675" height="1.675" fill="white"/>
<rect x="20.1" y="13.7152" width="1.675" height="1.675" fill="white"/>
<rect x="21.775" y="13.7152" width="1.675" height="1.675" fill="white"/>
<rect x="23.45" y="13.7152" width="1.675" height="1.675" fill="white"/>
<rect x="25.125" y="13.7152" width="1.675" height="1.675" fill="white"/>
<rect x="26.8" y="13.7152" width="1.675" height="1.675" fill="white"/>
<rect x="28.475" y="13.7152" width="1.675" height="1.675" fill="white"/>
<rect x="30.15" y="13.7152" width="1.675" height="1.675" fill="white"/>
<rect x="31.825" y="13.7152" width="1.675" height="1.675" fill="white"/>
<rect x="33.5" y="13.7152" width="1.675" height="1.675" fill="white"/>
<rect x="35.175" y="13.7152" width="1.675" height="1.675" fill="white"/>
<rect x="36.85" y="13.7152" width="1.675" height="1.675" fill="white"/>
<rect x="38.525" y="13.7152" width="1.675" height="1.675" fill="white"/>
<rect x="40.2" y="13.7152" width="1.675" height="1.675" fill="white"/>
<rect x="13.4" y="15.3902" width="1.675" height="1.675" fill="white"/>
<rect x="21.775" y="15.3902" width="1.675" height="1.675" fill="white"/>
<rect x="23.45" y="15.3902" width="1.675" height="1.675" fill="white"/>
<rect x="25.125" y="15.3902" width="1.675" height="1.675" fill="white"/>
<rect x="26.8" y="15.3902" width="1.675" height="1.675" fill="white"/>
<rect x="28.475" y="15.3902" width="1.675" height="1.675" fill="white"/>
<rect x="30.15" y="15.3902" width="1.675" height="1.675" fill="white"/>
<rect x="31.825" y="15.3902" width="1.675" height="1.675" fill="white"/>
<rect x="33.5" y="15.3902" width="1.675" height="1.675" fill="white"/>
<rect x="35.175" y="15.3902" width="1.675" height="1.675" fill="white"/>
<rect x="36.85" y="15.3902" width="1.675" height="1.675" fill="white"/>
<rect x="38.525" y="15.3902" width="1.675" height="1.675" fill="white"/>
<rect x="40.2" y="15.3902" width="1.675" height="1.675" fill="white"/>
<rect x="11.725" y="17.0652" width="1.675" height="1.675" fill="white"/>
<rect x="21.775" y="17.0652" width="1.675" height="1.675" fill="white"/>
<rect x="23.45" y="17.0652" width="1.675" height="1.675" fill="white"/>
<rect x="25.125" y="17.0652" width="1.675" height="1.675" fill="white"/>
<rect x="26.8" y="17.0652" width="1.675" height="1.675" fill="white"/>
<rect x="28.475" y="17.0652" width="1.675" height="1.675" fill="white"/>
<rect x="30.15" y="17.0652" width="1.675" height="1.675" fill="white"/>
<rect x="31.825" y="17.0652" width="1.675" height="1.675" fill="white"/>
<rect x="33.5" y="17.0652" width="1.675" height="1.675" fill="white"/>
<rect x="35.175" y="17.0652" width="1.675" height="1.675" fill="white"/>
<rect x="36.85" y="17.0652" width="1.675" height="1.675" fill="white"/>
<rect x="38.525" y="17.0652" width="1.675" height="1.675" fill="white"/>
<rect x="40.2" y="17.0652" width="1.675" height="1.675" fill="white"/>
<rect x="11.725" y="18.7402" width="1.675" height="1.675" fill="white"/>
<rect x="21.775" y="18.7402" width="1.675" height="1.675" fill="white"/>
<rect x="23.45" y="18.7402" width="1.675" height="1.675" fill="white"/>
<rect x="25.125" y="18.7402" width="1.675" height="1.675" fill="white"/>
<rect x="26.8" y="18.7402" width="1.675" height="1.675" fill="white"/>
<rect x="28.475" y="18.7402" width="1.675" height="1.675" fill="white"/>
<rect x="30.15" y="18.7402" width="1.675" height="1.675" fill="white"/>
<rect x="31.825" y="18.7402" width="1.675" height="1.675" fill="white"/>
<rect x="33.5" y="18.7402" width="1.675" height="1.675" fill="white"/>
<rect x="35.175" y="18.7402" width="1.675" height="1.675" fill="white"/>
<rect x="36.85" y="18.7402" width="1.675" height="1.675" fill="white"/>
<rect x="38.525" y="18.7402" width="1.675" height="1.675" fill="white"/>
<rect x="40.2" y="18.7402" width="1.675" height="1.675" fill="white"/>
<rect x="41.875" y="18.7402" width="1.675" height="1.675" fill="white"/>
<rect x="10.05" y="20.4152" width="1.675" height="1.675" fill="white"/>
<rect x="23.45" y="20.4152" width="1.675" height="1.675" fill="white"/>
<rect x="25.125" y="20.4152" width="1.675" height="1.675" fill="white"/>
<rect x="26.8" y="20.4152" width="1.675" height="1.675" fill="white"/>
<rect x="28.475" y="20.4152" width="1.675" height="1.675" fill="white"/>
<rect x="30.15" y="20.4152" width="1.675" height="1.675" fill="white"/>
<rect x="31.825" y="20.4152" width="1.675" height="1.675" fill="white"/>
<rect x="33.5" y="20.4152" width="1.675" height="1.675" fill="white"/>
<rect x="35.175" y="20.4152" width="1.675" height="1.675" fill="white"/>
<rect x="36.85" y="20.4152" width="1.675" height="1.675" fill="white"/>
<rect x="38.525" y="20.4152" width="1.675" height="1.675" fill="white"/>
<rect x="40.2" y="20.4152" width="1.675" height="1.675" fill="white"/>
<rect x="10.05" y="22.0902" width="1.675" height="1.675" fill="white"/>
<rect x="23.45" y="22.0902" width="1.675" height="1.675" fill="white"/>
<rect x="25.125" y="22.0902" width="1.675" height="1.675" fill="white"/>
<rect x="26.8" y="22.0902" width="1.675" height="1.675" fill="white"/>
<rect x="28.475" y="22.0902" width="1.675" height="1.675" fill="white"/>
<rect x="30.15" y="22.0902" width="1.675" height="1.675" fill="white"/>
<rect x="31.825" y="22.0902" width="1.675" height="1.675" fill="white"/>
<rect x="33.5" y="22.0902" width="1.675" height="1.675" fill="white"/>
<rect x="35.175" y="22.0902" width="1.675" height="1.675" fill="white"/>
<rect x="36.85" y="22.0902" width="1.675" height="1.675" fill="white"/>
<rect x="38.525" y="22.0902" width="1.675" height="1.675" fill="white"/>
<rect x="8.375" y="23.7652" width="1.675" height="1.675" fill="white"/>
<rect x="23.45" y="23.7652" width="1.675" height="1.675" fill="white"/>
<rect x="25.125" y="23.7652" width="1.675" height="1.675" fill="white"/>
<rect x="26.8" y="23.7652" width="1.675" height="1.675" fill="white"/>
<rect x="28.475" y="23.7652" width="1.675" height="1.675" fill="white"/>
<rect x="30.15" y="23.7652" width="1.675" height="1.675" fill="white"/>
<rect x="31.825" y="23.7652" width="1.675" height="1.675" fill="white"/>
<rect x="33.5" y="23.7652" width="1.675" height="1.675" fill="white"/>
<rect x="35.175" y="23.7652" width="1.675" height="1.675" fill="white"/>
<rect x="36.85" y="23.7652" width="1.675" height="1.675" fill="white"/>
<rect x="43.55" y="23.7652" width="1.675" height="1.675" fill="white"/>
<rect x="45.225" y="23.7652" width="1.675" height="1.675" fill="white"/>
<rect x="50.25" y="23.7652" width="1.675" height="1.675" fill="white"/>
<rect x="8.375" y="25.4402" width="1.675" height="1.675" fill="white"/>
<rect x="16.75" y="25.4402" width="1.675" height="1.675" fill="white"/>
<rect x="25.125" y="25.4402" width="1.675" height="1.675" fill="white"/>
<rect x="26.8" y="25.4402" width="1.675" height="1.675" fill="white"/>
<rect x="28.475" y="25.4402" width="1.675" height="1.675" fill="white"/>
<rect x="30.15" y="25.4402" width="1.675" height="1.675" fill="white"/>
<rect x="31.825" y="25.4402" width="1.675" height="1.675" fill="white"/>
<rect x="33.5" y="25.4402" width="1.675" height="1.675" fill="white"/>
<rect x="35.175" y="25.4402" width="1.675" height="1.675" fill="white"/>
<rect x="36.85" y="25.4402" width="1.675" height="1.675" fill="white"/>
<rect x="41.875" y="25.4402" width="1.675" height="1.675" fill="white"/>
<rect x="51.925" y="25.4402" width="1.675" height="1.675" fill="white"/>
<rect x="6.7" y="27.1152" width="1.675" height="1.675" fill="white"/>
<rect x="16.75" y="27.1152" width="1.675" height="1.675" fill="white"/>
<rect x="25.125" y="27.1152" width="1.675" height="1.675" fill="white"/>
<rect x="26.8" y="27.1152" width="1.675" height="1.675" fill="white"/>
<rect x="28.475" y="27.1152" width="1.675" height="1.675" fill="white"/>
<rect x="30.15" y="27.1152" width="1.675" height="1.675" fill="white"/>
<rect x="31.825" y="27.1152" width="1.675" height="1.675" fill="white"/>
<rect x="33.5" y="27.1152" width="1.675" height="1.675" fill="white"/>
<rect x="35.175" y="27.1152" width="1.675" height="1.675" fill="white"/>
<rect x="36.85" y="27.1152" width="1.675" height="1.675" fill="white"/>
<rect x="41.875" y="27.1152" width="1.675" height="1.675" fill="white"/>
<rect x="51.925" y="27.1152" width="1.675" height="1.675" fill="white"/>
<rect x="53.6" y="27.1152" width="1.675" height="1.675" fill="white"/>
<rect x="6.7" y="28.7902" width="1.675" height="1.675" fill="white"/>
<rect x="15.075" y="28.7902" width="1.675" height="1.675" fill="white"/>
<rect x="16.75" y="28.7902" width="1.675" height="1.675" fill="white"/>
<rect x="18.425" y="28.7902" width="1.675" height="1.675" fill="white"/>
<rect x="25.125" y="28.7902" width="1.675" height="1.675" fill="white"/>
<rect x="26.8" y="28.7902" width="1.675" height="1.675" fill="white"/>
<rect x="28.475" y="28.7902" width="1.675" height="1.675" fill="white"/>
<rect x="30.15" y="28.7902" width="1.675" height="1.675" fill="white"/>
<rect x="31.825" y="28.7902" width="1.675" height="1.675" fill="white"/>
<rect x="33.5" y="28.7902" width="1.675" height="1.675" fill="white"/>
<rect x="35.175" y="28.7902" width="1.675" height="1.675" fill="white"/>
<rect x="36.85" y="28.7902" width="1.675" height="1.675" fill="white"/>
<rect x="41.875" y="28.7902" width="1.675" height="1.675" fill="white"/>
<rect x="51.925" y="28.7902" width="1.675" height="1.675" fill="white"/>
<rect x="53.6" y="28.7902" width="1.675" height="1.675" fill="white"/>
<rect x="5.02499" y="30.4652" width="1.675" height="1.675" fill="white"/>
<rect x="13.4" y="30.4652" width="1.675" height="1.675" fill="white"/>
<rect x="15.075" y="30.4652" width="1.675" height="1.675" fill="white"/>
<rect x="16.75" y="30.4652" width="1.675" height="1.675" fill="white"/>
<rect x="18.425" y="30.4652" width="1.675" height="1.675" fill="white"/>
<rect x="26.8" y="30.4652" width="1.675" height="1.675" fill="white"/>
<rect x="28.475" y="30.4652" width="1.675" height="1.675" fill="white"/>
<rect x="30.15" y="30.4652" width="1.675" height="1.675" fill="white"/>
<rect x="31.825" y="30.4652" width="1.675" height="1.675" fill="white"/>
<rect x="33.5" y="30.4652" width="1.675" height="1.675" fill="white"/>
<rect x="35.175" y="30.4652" width="1.675" height="1.675" fill="white"/>
<rect x="36.85" y="30.4652" width="1.675" height="1.675" fill="white"/>
<rect x="41.875" y="30.4652" width="1.675" height="1.675" fill="white"/>
<rect x="50.25" y="30.4652" width="1.675" height="1.675" fill="white"/>
<rect x="51.925" y="30.4652" width="1.675" height="1.675" fill="white"/>
<rect x="53.6" y="30.4652" width="1.675" height="1.675" fill="white"/>
<rect x="5.02499" y="32.1402" width="1.675" height="1.675" fill="white"/>
<rect x="11.725" y="32.1402" width="1.675" height="1.675" fill="white"/>
<rect x="13.4" y="32.1402" width="1.675" height="1.675" fill="white"/>
<rect x="15.075" y="32.1402" width="1.675" height="1.675" fill="white"/>
<rect x="16.75" y="32.1402" width="1.675" height="1.675" fill="white"/>
<rect x="18.425" y="32.1402" width="1.675" height="1.675" fill="white"/>
<rect x="20.1" y="32.1402" width="1.675" height="1.675" fill="white"/>
<rect x="26.8" y="32.1402" width="1.675" height="1.675" fill="white"/>
<rect x="28.475" y="32.1402" width="1.675" height="1.675" fill="white"/>
<rect x="30.15" y="32.1402" width="1.675" height="1.675" fill="white"/>
<rect x="31.825" y="32.1402" width="1.675" height="1.675" fill="white"/>
<rect x="33.5" y="32.1402" width="1.675" height="1.675" fill="white"/>
<rect x="35.175" y="32.1402" width="1.675" height="1.675" fill="white"/>
<rect x="36.85" y="32.1402" width="1.675" height="1.675" fill="white"/>
<rect x="41.875" y="32.1402" width="1.675" height="1.675" fill="white"/>
<rect x="45.225" y="32.1402" width="1.675" height="1.675" fill="white"/>
<rect x="46.9" y="32.1402" width="1.675" height="1.675" fill="white"/>
<rect x="48.575" y="32.1402" width="1.675" height="1.675" fill="white"/>
<rect x="50.25" y="32.1402" width="1.675" height="1.675" fill="white"/>
<rect x="51.925" y="32.1402" width="1.675" height="1.675" fill="white"/>
<rect x="3.35001" y="33.8152" width="1.675" height="1.675" fill="white"/>
<rect x="11.725" y="33.8152" width="1.675" height="1.675" fill="white"/>
<rect x="13.4" y="33.8152" width="1.675" height="1.675" fill="white"/>
<rect x="15.075" y="33.8152" width="1.675" height="1.675" fill="white"/>
<rect x="16.75" y="33.8152" width="1.675" height="1.675" fill="white"/>
<rect x="18.425" y="33.8152" width="1.675" height="1.675" fill="white"/>
<rect x="20.1" y="33.8152" width="1.675" height="1.675" fill="white"/>
<rect x="26.8" y="33.8152" width="1.675" height="1.675" fill="white"/>
<rect x="28.475" y="33.8152" width="1.675" height="1.675" fill="white"/>
<rect x="30.15" y="33.8152" width="1.675" height="1.675" fill="white"/>
<rect x="31.825" y="33.8152" width="1.675" height="1.675" fill="white"/>
<rect x="33.5" y="33.8152" width="1.675" height="1.675" fill="white"/>
<rect x="35.175" y="33.8152" width="1.675" height="1.675" fill="white"/>
<rect x="36.85" y="33.8152" width="1.675" height="1.675" fill="white"/>
<rect x="43.55" y="33.8152" width="1.675" height="1.675" fill="white"/>
<rect x="45.225" y="33.8152" width="1.675" height="1.675" fill="white"/>
<rect x="46.9" y="33.8152" width="1.675" height="1.675" fill="white"/>
<rect x="48.575" y="33.8152" width="1.675" height="1.675" fill="white"/>
<rect x="50.25" y="33.8152" width="1.675" height="1.675" fill="white"/>
<rect x="3.35001" y="35.4902" width="1.675" height="1.675" fill="white"/>
<rect x="10.05" y="35.4902" width="1.675" height="1.675" fill="white"/>
<rect x="11.725" y="35.4902" width="1.675" height="1.675" fill="white"/>
<rect x="13.4" y="35.4902" width="1.675" height="1.675" fill="white"/>
<rect x="15.075" y="35.4902" width="1.675" height="1.675" fill="white"/>
<rect x="16.75" y="35.4902" width="1.675" height="1.675" fill="white"/>
<rect x="18.425" y="35.4902" width="1.675" height="1.675" fill="white"/>
<rect x="20.1" y="35.4902" width="1.675" height="1.675" fill="white"/>
<rect x="28.475" y="35.4902" width="1.675" height="1.675" fill="white"/>
<rect x="30.15" y="35.4902" width="1.675" height="1.675" fill="white"/>
<rect x="31.825" y="35.4902" width="1.675" height="1.675" fill="white"/>
<rect x="33.5" y="35.4902" width="1.675" height="1.675" fill="white"/>
<rect x="35.175" y="35.4902" width="1.675" height="1.675" fill="white"/>
<rect x="36.85" y="35.4902" width="1.675" height="1.675" fill="white"/>
<rect x="38.525" y="35.4902" width="1.675" height="1.675" fill="white"/>
<rect x="1.675" y="37.1652" width="1.675" height="1.675" fill="white"/>
<rect x="8.375" y="37.1652" width="1.675" height="1.675" fill="white"/>
<rect x="10.05" y="37.1652" width="1.675" height="1.675" fill="white"/>
<rect x="11.725" y="37.1652" width="1.675" height="1.675" fill="white"/>
<rect x="13.4" y="37.1652" width="1.675" height="1.675" fill="white"/>
<rect x="15.075" y="37.1652" width="1.675" height="1.675" fill="white"/>
<rect x="16.75" y="37.1652" width="1.675" height="1.675" fill="white"/>
<rect x="21.775" y="37.1652" width="1.675" height="1.675" fill="white"/>
<rect x="28.475" y="37.1652" width="1.675" height="1.675" fill="white"/>
<rect x="30.15" y="37.1652" width="1.675" height="1.675" fill="white"/>
<rect x="31.825" y="37.1652" width="1.675" height="1.675" fill="white"/>
<rect x="33.5" y="37.1652" width="1.675" height="1.675" fill="white"/>
<rect x="35.175" y="37.1652" width="1.675" height="1.675" fill="white"/>
<rect x="36.85" y="37.1652" width="1.675" height="1.675" fill="white"/>
<rect x="38.525" y="37.1652" width="1.675" height="1.675" fill="white"/>
<rect x="40.2" y="37.1652" width="1.675" height="1.675" fill="white"/>
<rect x="1.675" y="38.8402" width="1.675" height="1.675" fill="white"/>
<rect x="6.7" y="38.8402" width="1.675" height="1.675" fill="white"/>
<rect x="8.375" y="38.8402" width="1.675" height="1.675" fill="white"/>
<rect x="10.05" y="38.8402" width="1.675" height="1.675" fill="white"/>
<rect x="11.725" y="38.8402" width="1.675" height="1.675" fill="white"/>
<rect x="13.4" y="38.8402" width="1.675" height="1.675" fill="white"/>
<rect x="21.775" y="38.8402" width="1.675" height="1.675" fill="white"/>
<rect x="28.475" y="38.8402" width="1.675" height="1.675" fill="white"/>
<rect x="30.15" y="38.8402" width="1.675" height="1.675" fill="white"/>
<rect x="31.825" y="38.8402" width="1.675" height="1.675" fill="white"/>
<rect x="33.5" y="38.8402" width="1.675" height="1.675" fill="white"/>
<rect x="35.175" y="38.8402" width="1.675" height="1.675" fill="white"/>
<rect x="36.85" y="38.8402" width="1.675" height="1.675" fill="white"/>
<rect x="38.525" y="38.8402" width="1.675" height="1.675" fill="white"/>
<rect x="40.2" y="38.8402" width="1.675" height="1.675" fill="white"/>
<rect x="41.875" y="38.8402" width="1.675" height="1.675" fill="white"/>
<rect x="43.55" y="38.8402" width="1.675" height="1.675" fill="white"/>
<rect x="45.225" y="38.8402" width="1.675" height="1.675" fill="white"/>
<rect y="40.5152" width="1.675" height="1.675" fill="white"/>
<rect x="6.7" y="40.5152" width="1.675" height="1.675" fill="white"/>
<rect x="8.375" y="40.5152" width="1.675" height="1.675" fill="white"/>
<rect x="10.05" y="40.5152" width="1.675" height="1.675" fill="white"/>
<rect x="11.725" y="40.5152" width="1.675" height="1.675" fill="white"/>
<rect x="23.45" y="40.5152" width="1.675" height="1.675" fill="white"/>
<rect x="30.15" y="40.5152" width="1.675" height="1.675" fill="white"/>
<rect x="31.825" y="40.5152" width="1.675" height="1.675" fill="white"/>
<rect x="33.5" y="40.5152" width="1.675" height="1.675" fill="white"/>
<rect x="35.175" y="40.5152" width="1.675" height="1.675" fill="white"/>
<rect x="36.85" y="40.5152" width="1.675" height="1.675" fill="white"/>
<rect x="38.525" y="40.5152" width="1.675" height="1.675" fill="white"/>
<rect x="40.2" y="40.5152" width="1.675" height="1.675" fill="white"/>
<rect x="41.875" y="40.5152" width="1.675" height="1.675" fill="white"/>
<rect x="43.55" y="40.5152" width="1.675" height="1.675" fill="white"/>
<rect x="45.225" y="40.5152" width="1.675" height="1.675" fill="white"/>
<rect x="46.9" y="40.5152" width="1.675" height="1.675" fill="white"/>
<rect x="48.575" y="40.5152" width="1.675" height="1.675" fill="white"/>
<rect y="42.1902" width="1.675" height="1.675" fill="white"/>
<rect x="5.02499" y="42.1902" width="1.675" height="1.675" fill="white"/>
<rect x="6.7" y="42.1902" width="1.675" height="1.675" fill="white"/>
<rect x="8.375" y="42.1902" width="1.675" height="1.675" fill="white"/>
<rect x="23.45" y="42.1902" width="1.675" height="1.675" fill="white"/>
<rect x="30.15" y="42.1902" width="1.675" height="1.675" fill="white"/>
<rect x="31.825" y="42.1902" width="1.675" height="1.675" fill="white"/>
<rect x="33.5" y="42.1902" width="1.675" height="1.675" fill="white"/>
<rect x="35.175" y="42.1902" width="1.675" height="1.675" fill="white"/>
<rect x="36.85" y="42.1902" width="1.675" height="1.675" fill="white"/>
<rect x="38.525" y="42.1902" width="1.675" height="1.675" fill="white"/>
<rect x="40.2" y="42.1902" width="1.675" height="1.675" fill="white"/>
<rect x="41.875" y="42.1902" width="1.675" height="1.675" fill="white"/>
<rect x="43.55" y="42.1902" width="1.675" height="1.675" fill="white"/>
<rect x="45.225" y="42.1902" width="1.675" height="1.675" fill="white"/>
<rect x="46.9" y="42.1902" width="1.675" height="1.675" fill="white"/>
<rect x="48.575" y="42.1902" width="1.675" height="1.675" fill="white"/>
<rect y="43.8652" width="1.675" height="1.675" fill="white"/>
<rect x="1.675" y="43.8652" width="1.675" height="1.675" fill="white"/>
<rect x="3.35001" y="43.8652" width="1.675" height="1.675" fill="white"/>
<rect x="5.02499" y="43.8652" width="1.675" height="1.675" fill="white"/>
<rect x="30.15" y="43.8652" width="1.675" height="1.675" fill="white"/>
<rect x="31.825" y="43.8652" width="1.675" height="1.675" fill="white"/>
<rect x="33.5" y="43.8652" width="1.675" height="1.675" fill="white"/>
<rect x="35.175" y="43.8652" width="1.675" height="1.675" fill="white"/>
<rect x="36.85" y="43.8652" width="1.675" height="1.675" fill="white"/>
<rect x="38.525" y="43.8652" width="1.675" height="1.675" fill="white"/>
<rect x="40.2" y="43.8652" width="1.675" height="1.675" fill="white"/>
<rect x="41.875" y="43.8652" width="1.675" height="1.675" fill="white"/>
<rect x="43.55" y="43.8652" width="1.675" height="1.675" fill="white"/>
<rect x="45.225" y="43.8652" width="1.675" height="1.675" fill="white"/>
<rect x="46.9" y="43.8652" width="1.675" height="1.675" fill="white"/>
<rect x="48.575" y="43.8652" width="1.675" height="1.675" fill="white"/>
<rect x="50.25" y="43.8652" width="1.675" height="1.675" fill="white"/>
<rect x="3.35001" y="45.5402" width="1.675" height="1.675" fill="white"/>
<rect x="25.125" y="45.5402" width="1.675" height="1.675" fill="white"/>
<rect x="31.825" y="45.5402" width="1.675" height="1.675" fill="white"/>
<rect x="33.5" y="45.5402" width="1.675" height="1.675" fill="white"/>
<rect x="35.175" y="45.5402" width="1.675" height="1.675" fill="white"/>
<rect x="36.85" y="45.5402" width="1.675" height="1.675" fill="white"/>
<rect x="38.525" y="45.5402" width="1.675" height="1.675" fill="white"/>
<rect x="40.2" y="45.5402" width="1.675" height="1.675" fill="white"/>
<rect x="41.875" y="45.5402" width="1.675" height="1.675" fill="white"/>
<rect x="43.55" y="45.5402" width="1.675" height="1.675" fill="white"/>
<rect x="45.225" y="45.5402" width="1.675" height="1.675" fill="white"/>
<rect x="46.9" y="45.5402" width="1.675" height="1.675" fill="white"/>
<rect x="48.575" y="45.5402" width="1.675" height="1.675" fill="white"/>
<rect x="50.25" y="45.5402" width="1.675" height="1.675" fill="white"/>
<rect x="25.125" y="47.2152" width="1.675" height="1.675" fill="white"/>
<rect x="31.825" y="47.2152" width="1.675" height="1.675" fill="white"/>
<rect x="33.5" y="47.2152" width="1.675" height="1.675" fill="white"/>
<rect x="35.175" y="47.2152" width="1.675" height="1.675" fill="white"/>
<rect x="36.85" y="47.2152" width="1.675" height="1.675" fill="white"/>
<rect x="38.525" y="47.2152" width="1.675" height="1.675" fill="white"/>
<rect x="40.2" y="47.2152" width="1.675" height="1.675" fill="white"/>
<rect x="41.875" y="47.2152" width="1.675" height="1.675" fill="white"/>
<rect x="43.55" y="47.2152" width="1.675" height="1.675" fill="white"/>
<rect x="45.225" y="47.2152" width="1.675" height="1.675" fill="white"/>
<rect x="46.9" y="47.2152" width="1.675" height="1.675" fill="white"/>
<rect x="48.575" y="47.2152" width="1.675" height="1.675" fill="white"/>
<rect x="50.25" y="47.2152" width="1.675" height="1.675" fill="white"/>
<rect x="26.8" y="48.8902" width="1.675" height="1.675" fill="white"/>
<rect x="31.825" y="48.8902" width="1.675" height="1.675" fill="white"/>
<rect x="33.5" y="48.8902" width="1.675" height="1.675" fill="white"/>
<rect x="35.175" y="48.8902" width="1.675" height="1.675" fill="white"/>
<rect x="36.85" y="48.8902" width="1.675" height="1.675" fill="white"/>
<rect x="38.525" y="48.8902" width="1.675" height="1.675" fill="white"/>
<rect x="40.2" y="48.8902" width="1.675" height="1.675" fill="white"/>
<rect x="41.875" y="48.8902" width="1.675" height="1.675" fill="white"/>
<rect x="43.55" y="48.8902" width="1.675" height="1.675" fill="white"/>
<rect x="45.225" y="48.8902" width="1.675" height="1.675" fill="white"/>
<rect x="46.9" y="48.8902" width="1.675" height="1.675" fill="white"/>
<rect x="48.575" y="48.8902" width="1.675" height="1.675" fill="white"/>
<rect x="50.25" y="48.8902" width="1.675" height="1.675" fill="white"/>
<rect x="51.925" y="48.8902" width="1.675" height="1.675" fill="white"/>
<rect x="26.8" y="50.5652" width="1.675" height="1.675" fill="white"/>
<rect x="31.825" y="50.5652" width="1.675" height="1.675" fill="white"/>
<rect x="33.5" y="50.5652" width="1.675" height="1.675" fill="white"/>
<rect x="35.175" y="50.5652" width="1.675" height="1.675" fill="white"/>
<rect x="36.85" y="50.5652" width="1.675" height="1.675" fill="white"/>
<rect x="38.525" y="50.5652" width="1.675" height="1.675" fill="white"/>
<rect x="40.2" y="50.5652" width="1.675" height="1.675" fill="white"/>
<rect x="41.875" y="50.5652" width="1.675" height="1.675" fill="white"/>
<rect x="43.55" y="50.5652" width="1.675" height="1.675" fill="white"/>
<rect x="45.225" y="50.5652" width="1.675" height="1.675" fill="white"/>
<rect x="46.9" y="50.5652" width="1.675" height="1.675" fill="white"/>
<rect x="48.575" y="50.5652" width="1.675" height="1.675" fill="white"/>
<rect x="50.25" y="50.5652" width="1.675" height="1.675" fill="white"/>
<rect x="51.925" y="50.5652" width="1.675" height="1.675" fill="white"/>
<rect x="28.475" y="52.2402" width="1.675" height="1.675" fill="white"/>
<rect x="33.5" y="52.2402" width="1.675" height="1.675" fill="white"/>
<rect x="35.175" y="52.2402" width="1.675" height="1.675" fill="white"/>
<rect x="36.85" y="52.2402" width="1.675" height="1.675" fill="white"/>
<rect x="38.525" y="52.2402" width="1.675" height="1.675" fill="white"/>
<rect x="40.2" y="52.2402" width="1.675" height="1.675" fill="white"/>
<rect x="41.875" y="52.2402" width="1.675" height="1.675" fill="white"/>
<rect x="43.55" y="52.2402" width="1.675" height="1.675" fill="white"/>
<rect x="45.225" y="52.2402" width="1.675" height="1.675" fill="white"/>
<rect x="46.9" y="52.2402" width="1.675" height="1.675" fill="white"/>
<rect x="48.575" y="52.2402" width="1.675" height="1.675" fill="white"/>
<rect x="50.25" y="52.2402" width="1.675" height="1.675" fill="white"/>
<rect x="51.925" y="52.2402" width="1.675" height="1.675" fill="white"/>
<rect x="28.475" y="53.9152" width="1.675" height="1.675" fill="white"/>
<rect x="33.5" y="53.9152" width="1.675" height="1.675" fill="white"/>
<rect x="35.175" y="53.9152" width="1.675" height="1.675" fill="white"/>
<rect x="36.85" y="53.9152" width="1.675" height="1.675" fill="white"/>
<rect x="38.525" y="53.9152" width="1.675" height="1.675" fill="white"/>
<rect x="40.2" y="53.9152" width="1.675" height="1.675" fill="white"/>
<rect x="41.875" y="53.9152" width="1.675" height="1.675" fill="white"/>
<rect x="43.55" y="53.9152" width="1.675" height="1.675" fill="white"/>
<rect x="45.225" y="53.9152" width="1.675" height="1.675" fill="white"/>
<rect x="46.9" y="53.9152" width="1.675" height="1.675" fill="white"/>
<rect x="48.575" y="53.9152" width="1.675" height="1.675" fill="white"/>
<rect x="50.25" y="53.9152" width="1.675" height="1.675" fill="white"/>
<rect x="51.925" y="53.9152" width="1.675" height="1.675" fill="white"/>
<rect x="53.6" y="53.9152" width="1.675" height="1.675" fill="white"/>
<rect x="33.5" y="55.5902" width="1.675" height="1.675" fill="white"/>
<rect x="35.175" y="55.5902" width="1.675" height="1.675" fill="white"/>
<rect x="36.85" y="55.5902" width="1.675" height="1.675" fill="white"/>
<rect x="38.525" y="55.5902" width="1.675" height="1.675" fill="white"/>
<rect x="40.2" y="55.5902" width="1.675" height="1.675" fill="white"/>
<rect x="41.875" y="55.5902" width="1.675" height="1.675" fill="white"/>
<rect x="43.55" y="55.5902" width="1.675" height="1.675" fill="white"/>
<rect x="45.225" y="55.5902" width="1.675" height="1.675" fill="white"/>
<rect x="46.9" y="55.5902" width="1.675" height="1.675" fill="white"/>
<rect x="48.575" y="55.5902" width="1.675" height="1.675" fill="white"/>
<rect x="50.25" y="55.5902" width="1.675" height="1.675" fill="white"/>
<rect x="51.925" y="55.5902" width="1.675" height="1.675" fill="white"/>
<rect x="53.6" y="55.5902" width="1.675" height="1.675" fill="white"/>
<rect x="30.15" y="57.2652" width="1.675" height="1.675" fill="white"/>
<rect x="35.175" y="57.2652" width="1.675" height="1.675" fill="white"/>
<rect x="36.85" y="57.2652" width="1.675" height="1.675" fill="white"/>
<rect x="38.525" y="57.2652" width="1.675" height="1.675" fill="white"/>
<rect x="40.2" y="57.2652" width="1.675" height="1.675" fill="white"/>
<rect x="41.875" y="57.2652" width="1.675" height="1.675" fill="white"/>
<rect x="43.55" y="57.2652" width="1.675" height="1.675" fill="white"/>
<rect x="45.225" y="57.2652" width="1.675" height="1.675" fill="white"/>
<rect x="46.9" y="57.2652" width="1.675" height="1.675" fill="white"/>
<rect x="48.575" y="57.2652" width="1.675" height="1.675" fill="white"/>
<rect x="50.25" y="57.2652" width="1.675" height="1.675" fill="white"/>
<rect x="51.925" y="57.2652" width="1.675" height="1.675" fill="white"/>
<rect x="30.15" y="58.9402" width="1.675" height="1.675" fill="white"/>
<rect x="35.175" y="58.9402" width="1.675" height="1.675" fill="white"/>
<rect x="36.85" y="58.9402" width="1.675" height="1.675" fill="white"/>
<rect x="38.525" y="58.9402" width="1.675" height="1.675" fill="white"/>
<rect x="40.2" y="58.9402" width="1.675" height="1.675" fill="white"/>
<rect x="41.875" y="58.9402" width="1.675" height="1.675" fill="white"/>
<rect x="43.55" y="58.9402" width="1.675" height="1.675" fill="white"/>
<rect x="45.225" y="58.9402" width="1.675" height="1.675" fill="white"/>
<rect x="46.9" y="58.9402" width="1.675" height="1.675" fill="white"/>
<rect x="48.575" y="58.9402" width="1.675" height="1.675" fill="white"/>
<rect x="31.825" y="60.6152" width="1.675" height="1.675" fill="white"/>
<rect x="35.175" y="60.6152" width="1.675" height="1.675" fill="white"/>
<rect x="36.85" y="60.6152" width="1.675" height="1.675" fill="white"/>
<rect x="38.525" y="60.6152" width="1.675" height="1.675" fill="white"/>
<rect x="40.2" y="60.6152" width="1.675" height="1.675" fill="white"/>
<rect x="41.875" y="60.6152" width="1.675" height="1.675" fill="white"/>
<rect x="43.55" y="60.6152" width="1.675" height="1.675" fill="white"/>
<rect x="45.225" y="60.6152" width="1.675" height="1.675" fill="white"/>
<rect x="46.9" y="60.6152" width="1.675" height="1.675" fill="white"/>
<rect x="31.825" y="62.2902" width="1.675" height="1.675" fill="white"/>
<rect x="33.5" y="62.2902" width="1.675" height="1.675" fill="white"/>
<rect x="36.85" y="62.2902" width="1.675" height="1.675" fill="white"/>
<rect x="38.525" y="62.2902" width="1.675" height="1.675" fill="white"/>
<rect x="40.2" y="62.2902" width="1.675" height="1.675" fill="white"/>
<rect x="41.875" y="62.2902" width="1.675" height="1.675" fill="white"/>
<rect x="43.55" y="62.2902" width="1.675" height="1.675" fill="white"/>
<rect x="35.175" y="63.9652" width="1.675" height="1.675" fill="white"/>
<rect x="36.85" y="63.9652" width="1.675" height="1.675" fill="white"/>
<rect x="38.525" y="63.9652" width="1.675" height="1.675" fill="white"/>
<rect x="40.2" y="63.9652" width="1.675" height="1.675" fill="white"/>
<rect x="36.85" y="65.6402" width="1.675" height="1.675" fill="white"/>
<rect x="38.525" y="65.6402" width="1.675" height="1.675" fill="white"/>
</svg>
