<svg width="65" height="75" viewBox="0 0 65 75" fill="none" xmlns="http://www.w3.org/2000/svg">
<rect x="31.4516" y="0.928101" width="2.09677" height="2.09677" fill="white"/>
<rect x="27.2581" y="3.0249" width="2.09677" height="2.09677" fill="white"/>
<rect x="29.3548" y="3.0249" width="2.09677" height="2.09677" fill="white"/>
<rect x="31.4516" y="3.0249" width="2.09677" height="2.09677" fill="white"/>
<rect x="33.5484" y="3.0249" width="2.09677" height="2.09677" fill="white"/>
<rect x="35.6452" y="3.0249" width="2.09677" height="2.09677" fill="white"/>
<rect x="23.0645" y="5.12164" width="2.09677" height="2.09677" fill="white"/>
<rect x="25.1613" y="5.12164" width="2.09677" height="2.09677" fill="white"/>
<rect x="27.2581" y="5.12164" width="2.09677" height="2.09677" fill="white"/>
<rect x="29.3548" y="5.12164" width="2.09677" height="2.09677" fill="white"/>
<rect x="31.4516" y="5.12164" width="2.09677" height="2.09677" fill="white"/>
<rect x="33.5484" y="5.12164" width="2.09677" height="2.09677" fill="white"/>
<rect x="35.6452" y="5.12164" width="2.09677" height="2.09677" fill="white"/>
<rect x="37.7419" y="5.12164" width="2.09677" height="2.09677" fill="white"/>
<rect x="39.8387" y="5.12164" width="2.09677" height="2.09677" fill="white"/>
<rect x="18.871" y="7.21844" width="2.09677" height="2.09677" fill="white"/>
<rect x="20.9677" y="7.21844" width="2.09677" height="2.09677" fill="white"/>
<rect x="23.0645" y="7.21844" width="2.09677" height="2.09677" fill="white"/>
<rect x="25.1613" y="7.21844" width="2.09677" height="2.09677" fill="white"/>
<rect x="27.2581" y="7.21844" width="2.09677" height="2.09677" fill="white"/>
<rect x="35.6452" y="7.21844" width="2.09677" height="2.09677" fill="white"/>
<rect x="37.7419" y="7.21844" width="2.09677" height="2.09677" fill="white"/>
<rect x="39.8387" y="7.21844" width="2.09677" height="2.09677" fill="white"/>
<rect x="41.9355" y="7.21844" width="2.09677" height="2.09677" fill="white"/>
<rect x="44.0323" y="7.21844" width="2.09677" height="2.09677" fill="white"/>
<rect x="16.7742" y="9.31519" width="2.09677" height="2.09677" fill="white"/>
<rect x="18.871" y="9.31519" width="2.09677" height="2.09677" fill="white"/>
<rect x="20.9677" y="9.31519" width="2.09677" height="2.09677" fill="white"/>
<rect x="23.0645" y="9.31519" width="2.09677" height="2.09677" fill="white"/>
<rect x="25.1613" y="9.31519" width="2.09677" height="2.09677" fill="white"/>
<rect x="39.8387" y="9.31519" width="2.09677" height="2.09677" fill="white"/>
<rect x="41.9355" y="9.31519" width="2.09677" height="2.09677" fill="white"/>
<rect x="44.0323" y="9.31519" width="2.09677" height="2.09677" fill="white"/>
<rect x="46.129" y="9.31519" width="2.09677" height="2.09677" fill="white"/>
<rect x="12.5806" y="11.412" width="2.09677" height="2.09677" fill="white"/>
<rect x="14.6774" y="11.412" width="2.09677" height="2.09677" fill="white"/>
<rect x="16.7742" y="11.412" width="2.09677" height="2.09677" fill="white"/>
<rect x="18.871" y="11.412" width="2.09677" height="2.09677" fill="white"/>
<rect x="20.9677" y="11.412" width="2.09677" height="2.09677" fill="white"/>
<rect x="41.9355" y="11.412" width="2.09677" height="2.09677" fill="white"/>
<rect x="44.0323" y="11.412" width="2.09677" height="2.09677" fill="white"/>
<rect x="46.129" y="11.412" width="2.09677" height="2.09677" fill="white"/>
<rect x="48.2258" y="11.412" width="2.09677" height="2.09677" fill="white"/>
<rect x="50.3226" y="11.412" width="2.09677" height="2.09677" fill="white"/>
<rect x="8.3871" y="13.5087" width="2.09677" height="2.09677" fill="white"/>
<rect x="10.4839" y="13.5087" width="2.09677" height="2.09677" fill="white"/>
<rect x="12.5806" y="13.5087" width="2.09677" height="2.09677" fill="white"/>
<rect x="14.6774" y="13.5087" width="2.09677" height="2.09677" fill="white"/>
<rect x="16.7742" y="13.5087" width="2.09677" height="2.09677" fill="white"/>
<rect x="46.129" y="13.5087" width="2.09677" height="2.09677" fill="white"/>
<rect x="48.2258" y="13.5087" width="2.09677" height="2.09677" fill="white"/>
<rect x="50.3226" y="13.5087" width="2.09677" height="2.09677" fill="white"/>
<rect x="52.4194" y="13.5087" width="2.09677" height="2.09677" fill="white"/>
<rect x="54.5161" y="13.5087" width="2.09677" height="2.09677" fill="white"/>
<rect x="6.29032" y="15.6055" width="2.09677" height="2.09677" fill="white"/>
<rect x="8.3871" y="15.6055" width="2.09677" height="2.09677" fill="white"/>
<rect x="10.4839" y="15.6055" width="2.09677" height="2.09677" fill="white"/>
<rect x="12.5806" y="15.6055" width="2.09677" height="2.09677" fill="white"/>
<rect x="50.3226" y="15.6055" width="2.09677" height="2.09677" fill="white"/>
<rect x="52.4194" y="15.6055" width="2.09677" height="2.09677" fill="white"/>
<rect x="54.5161" y="15.6055" width="2.09677" height="2.09677" fill="white"/>
<rect x="56.6129" y="15.6055" width="2.09677" height="2.09677" fill="white"/>
<rect x="58.7097" y="15.6055" width="2.09677" height="2.09677" fill="white"/>
<rect x="2.09678" y="17.7023" width="2.09677" height="2.09677" fill="white"/>
<rect x="4.19355" y="17.7023" width="2.09677" height="2.09677" fill="white"/>
<rect x="6.29032" y="17.7023" width="2.09677" height="2.09677" fill="white"/>
<rect x="8.3871" y="17.7023" width="2.09677" height="2.09677" fill="white"/>
<rect x="10.4839" y="17.7023" width="2.09677" height="2.09677" fill="white"/>
<rect x="54.5161" y="17.7023" width="2.09677" height="2.09677" fill="white"/>
<rect x="56.6129" y="17.7023" width="2.09677" height="2.09677" fill="white"/>
<rect x="58.7097" y="17.7023" width="2.09677" height="2.09677" fill="white"/>
<rect x="60.8064" y="17.7023" width="2.09677" height="2.09677" fill="white"/>
<rect x="2.09678" y="19.7991" width="2.09677" height="2.09677" fill="white"/>
<rect x="4.19355" y="19.7991" width="2.09677" height="2.09677" fill="white"/>
<rect x="6.29032" y="19.7991" width="2.09677" height="2.09677" fill="white"/>
<rect x="56.6129" y="19.7991" width="2.09677" height="2.09677" fill="white"/>
<rect x="58.7097" y="19.7991" width="2.09677" height="2.09677" fill="white"/>
<rect x="60.8064" y="19.7991" width="2.09677" height="2.09677" fill="white"/>
<rect x="62.9032" y="19.7991" width="2.09677" height="2.09677" fill="white"/>
<rect y="21.8959" width="2.09677" height="2.09677" fill="white"/>
<rect x="2.09678" y="21.8959" width="2.09677" height="2.09677" fill="white"/>
<rect x="4.19355" y="21.8959" width="2.09677" height="2.09677" fill="white"/>
<rect x="58.7097" y="21.8959" width="2.09677" height="2.09677" fill="white"/>
<rect x="60.8064" y="21.8959" width="2.09677" height="2.09677" fill="white"/>
<rect x="62.9032" y="21.8959" width="2.09677" height="2.09677" fill="white"/>
<rect y="23.9926" width="2.09677" height="2.09677" fill="white"/>
<rect x="2.09678" y="23.9926" width="2.09677" height="2.09677" fill="white"/>
<rect x="4.19355" y="23.9926" width="2.09677" height="2.09677" fill="white"/>
<rect x="18.871" y="23.9926" width="2.09677" height="2.09677" fill="white"/>
<rect x="20.9677" y="23.9926" width="2.09677" height="2.09677" fill="white"/>
<rect x="23.0645" y="23.9926" width="2.09677" height="2.09677" fill="white"/>
<rect x="31.4516" y="23.9926" width="2.09677" height="2.09677" fill="white"/>
<rect x="33.5484" y="23.9926" width="2.09677" height="2.09677" fill="white"/>
<rect x="35.6452" y="23.9926" width="2.09677" height="2.09677" fill="white"/>
<rect x="37.7419" y="23.9926" width="2.09677" height="2.09677" fill="white"/>
<rect x="39.8387" y="23.9926" width="2.09677" height="2.09677" fill="white"/>
<rect x="41.9355" y="23.9926" width="2.09677" height="2.09677" fill="white"/>
<rect x="44.0323" y="23.9926" width="2.09677" height="2.09677" fill="white"/>
<rect x="46.129" y="23.9926" width="2.09677" height="2.09677" fill="white"/>
<rect x="58.7097" y="23.9926" width="2.09677" height="2.09677" fill="white"/>
<rect x="60.8064" y="23.9926" width="2.09677" height="2.09677" fill="white"/>
<rect x="62.9032" y="23.9926" width="2.09677" height="2.09677" fill="white"/>
<rect y="26.0894" width="2.09677" height="2.09677" fill="white"/>
<rect x="2.09678" y="26.0894" width="2.09677" height="2.09677" fill="white"/>
<rect x="4.19355" y="26.0894" width="2.09677" height="2.09677" fill="white"/>
<rect x="18.871" y="26.0894" width="2.09677" height="2.09677" fill="white"/>
<rect x="20.9677" y="26.0894" width="2.09677" height="2.09677" fill="white"/>
<rect x="23.0645" y="26.0894" width="2.09677" height="2.09677" fill="white"/>
<rect x="29.3548" y="26.0894" width="2.09677" height="2.09677" fill="white"/>
<rect x="31.4516" y="26.0894" width="2.09677" height="2.09677" fill="white"/>
<rect x="33.5484" y="26.0894" width="2.09677" height="2.09677" fill="white"/>
<rect x="35.6452" y="26.0894" width="2.09677" height="2.09677" fill="white"/>
<rect x="37.7419" y="26.0894" width="2.09677" height="2.09677" fill="white"/>
<rect x="39.8387" y="26.0894" width="2.09677" height="2.09677" fill="white"/>
<rect x="41.9355" y="26.0894" width="2.09677" height="2.09677" fill="white"/>
<rect x="44.0323" y="26.0894" width="2.09677" height="2.09677" fill="white"/>
<rect x="46.129" y="26.0894" width="2.09677" height="2.09677" fill="white"/>
<rect x="48.2258" y="26.0894" width="2.09677" height="2.09677" fill="white"/>
<rect x="58.7097" y="26.0894" width="2.09677" height="2.09677" fill="white"/>
<rect x="60.8064" y="26.0894" width="2.09677" height="2.09677" fill="white"/>
<rect x="62.9032" y="26.0894" width="2.09677" height="2.09677" fill="white"/>
<rect y="28.1862" width="2.09677" height="2.09677" fill="white"/>
<rect x="2.09678" y="28.1862" width="2.09677" height="2.09677" fill="white"/>
<rect x="4.19355" y="28.1862" width="2.09677" height="2.09677" fill="white"/>
<rect x="18.871" y="28.1862" width="2.09677" height="2.09677" fill="white"/>
<rect x="20.9677" y="28.1862" width="2.09677" height="2.09677" fill="white"/>
<rect x="23.0645" y="28.1862" width="2.09677" height="2.09677" fill="white"/>
<rect x="27.2581" y="28.1862" width="2.09677" height="2.09677" fill="white"/>
<rect x="29.3548" y="28.1862" width="2.09677" height="2.09677" fill="white"/>
<rect x="31.4516" y="28.1862" width="2.09677" height="2.09677" fill="white"/>
<rect x="33.5484" y="28.1862" width="2.09677" height="2.09677" fill="white"/>
<rect x="46.129" y="28.1862" width="2.09677" height="2.09677" fill="white"/>
<rect x="48.2258" y="28.1862" width="2.09677" height="2.09677" fill="white"/>
<rect x="50.3226" y="28.1862" width="2.09677" height="2.09677" fill="white"/>
<rect x="58.7097" y="28.1862" width="2.09677" height="2.09677" fill="white"/>
<rect x="60.8064" y="28.1862" width="2.09677" height="2.09677" fill="white"/>
<rect x="62.9032" y="28.1862" width="2.09677" height="2.09677" fill="white"/>
<rect y="30.283" width="2.09677" height="2.09677" fill="white"/>
<rect x="2.09678" y="30.283" width="2.09677" height="2.09677" fill="white"/>
<rect x="4.19355" y="30.283" width="2.09677" height="2.09677" fill="white"/>
<rect x="18.871" y="30.283" width="2.09677" height="2.09677" fill="white"/>
<rect x="20.9677" y="30.283" width="2.09677" height="2.09677" fill="white"/>
<rect x="23.0645" y="30.283" width="2.09677" height="2.09677" fill="white"/>
<rect x="27.2581" y="30.283" width="2.09677" height="2.09677" fill="white"/>
<rect x="29.3548" y="30.283" width="2.09677" height="2.09677" fill="white"/>
<rect x="31.4516" y="30.283" width="2.09677" height="2.09677" fill="white"/>
<rect x="48.2258" y="30.283" width="2.09677" height="2.09677" fill="white"/>
<rect x="50.3226" y="30.283" width="2.09677" height="2.09677" fill="white"/>
<rect x="58.7097" y="30.283" width="2.09677" height="2.09677" fill="white"/>
<rect x="60.8064" y="30.283" width="2.09677" height="2.09677" fill="white"/>
<rect x="62.9032" y="30.283" width="2.09677" height="2.09677" fill="white"/>
<rect y="32.3797" width="2.09677" height="2.09677" fill="white"/>
<rect x="2.09678" y="32.3797" width="2.09677" height="2.09677" fill="white"/>
<rect x="4.19355" y="32.3797" width="2.09677" height="2.09677" fill="white"/>
<rect x="18.871" y="32.3797" width="2.09677" height="2.09677" fill="white"/>
<rect x="20.9677" y="32.3797" width="2.09677" height="2.09677" fill="white"/>
<rect x="23.0645" y="32.3797" width="2.09677" height="2.09677" fill="white"/>
<rect x="27.2581" y="32.3797" width="2.09677" height="2.09677" fill="white"/>
<rect x="29.3548" y="32.3797" width="2.09677" height="2.09677" fill="white"/>
<rect x="31.4516" y="32.3797" width="2.09677" height="2.09677" fill="white"/>
<rect x="48.2258" y="32.3797" width="2.09677" height="2.09677" fill="white"/>
<rect x="50.3226" y="32.3797" width="2.09677" height="2.09677" fill="white"/>
<rect x="58.7097" y="32.3797" width="2.09677" height="2.09677" fill="white"/>
<rect x="60.8064" y="32.3797" width="2.09677" height="2.09677" fill="white"/>
<rect x="62.9032" y="32.3797" width="2.09677" height="2.09677" fill="white"/>
<rect y="34.4765" width="2.09677" height="2.09677" fill="white"/>
<rect x="2.09678" y="34.4765" width="2.09677" height="2.09677" fill="white"/>
<rect x="4.19355" y="34.4765" width="2.09677" height="2.09677" fill="white"/>
<rect x="18.871" y="34.4765" width="2.09677" height="2.09677" fill="white"/>
<rect x="20.9677" y="34.4765" width="2.09677" height="2.09677" fill="white"/>
<rect x="23.0645" y="34.4765" width="2.09677" height="2.09677" fill="white"/>
<rect x="29.3548" y="34.4765" width="2.09677" height="2.09677" fill="white"/>
<rect x="31.4516" y="34.4765" width="2.09677" height="2.09677" fill="white"/>
<rect x="33.5484" y="34.4765" width="2.09677" height="2.09677" fill="white"/>
<rect x="35.6452" y="34.4765" width="2.09677" height="2.09677" fill="white"/>
<rect x="37.7419" y="34.4765" width="2.09677" height="2.09677" fill="white"/>
<rect x="39.8387" y="34.4765" width="2.09677" height="2.09677" fill="white"/>
<rect x="41.9355" y="34.4765" width="2.09677" height="2.09677" fill="white"/>
<rect x="58.7097" y="34.4765" width="2.09677" height="2.09677" fill="white"/>
<rect x="60.8064" y="34.4765" width="2.09677" height="2.09677" fill="white"/>
<rect x="62.9032" y="34.4765" width="2.09677" height="2.09677" fill="white"/>
<rect y="36.5732" width="2.09677" height="2.09677" fill="white"/>
<rect x="2.09678" y="36.5732" width="2.09677" height="2.09677" fill="white"/>
<rect x="4.19355" y="36.5732" width="2.09677" height="2.09677" fill="white"/>
<rect x="18.871" y="36.5732" width="2.09677" height="2.09677" fill="white"/>
<rect x="20.9677" y="36.5732" width="2.09677" height="2.09677" fill="white"/>
<rect x="23.0645" y="36.5732" width="2.09677" height="2.09677" fill="white"/>
<rect x="31.4516" y="36.5732" width="2.09677" height="2.09677" fill="white"/>
<rect x="33.5484" y="36.5732" width="2.09677" height="2.09677" fill="white"/>
<rect x="35.6452" y="36.5732" width="2.09677" height="2.09677" fill="white"/>
<rect x="37.7419" y="36.5732" width="2.09677" height="2.09677" fill="white"/>
<rect x="39.8387" y="36.5732" width="2.09677" height="2.09677" fill="white"/>
<rect x="41.9355" y="36.5732" width="2.09677" height="2.09677" fill="white"/>
<rect x="44.0323" y="36.5732" width="2.09677" height="2.09677" fill="white"/>
<rect x="46.129" y="36.5732" width="2.09677" height="2.09677" fill="white"/>
<rect x="48.2258" y="36.5732" width="2.09677" height="2.09677" fill="white"/>
<rect x="58.7097" y="36.5732" width="2.09677" height="2.09677" fill="white"/>
<rect x="60.8064" y="36.5732" width="2.09677" height="2.09677" fill="white"/>
<rect x="62.9032" y="36.5732" width="2.09677" height="2.09677" fill="white"/>
<rect y="38.67" width="2.09677" height="2.09677" fill="white"/>
<rect x="2.09678" y="38.67" width="2.09677" height="2.09677" fill="white"/>
<rect x="4.19355" y="38.67" width="2.09677" height="2.09677" fill="white"/>
<rect x="18.871" y="38.67" width="2.09677" height="2.09677" fill="white"/>
<rect x="20.9677" y="38.67" width="2.09677" height="2.09677" fill="white"/>
<rect x="23.0645" y="38.67" width="2.09677" height="2.09677" fill="white"/>
<rect x="37.7419" y="38.67" width="2.09677" height="2.09677" fill="white"/>
<rect x="39.8387" y="38.67" width="2.09677" height="2.09677" fill="white"/>
<rect x="41.9355" y="38.67" width="2.09677" height="2.09677" fill="white"/>
<rect x="44.0323" y="38.67" width="2.09677" height="2.09677" fill="white"/>
<rect x="46.129" y="38.67" width="2.09677" height="2.09677" fill="white"/>
<rect x="48.2258" y="38.67" width="2.09677" height="2.09677" fill="white"/>
<rect x="50.3226" y="38.67" width="2.09677" height="2.09677" fill="white"/>
<rect x="58.7097" y="38.67" width="2.09677" height="2.09677" fill="white"/>
<rect x="60.8064" y="38.67" width="2.09677" height="2.09677" fill="white"/>
<rect x="62.9032" y="38.67" width="2.09677" height="2.09677" fill="white"/>
<rect y="40.7668" width="2.09677" height="2.09677" fill="white"/>
<rect x="2.09678" y="40.7668" width="2.09677" height="2.09677" fill="white"/>
<rect x="4.19355" y="40.7668" width="2.09677" height="2.09677" fill="white"/>
<rect x="18.871" y="40.7668" width="2.09677" height="2.09677" fill="white"/>
<rect x="20.9677" y="40.7668" width="2.09677" height="2.09677" fill="white"/>
<rect x="23.0645" y="40.7668" width="2.09677" height="2.09677" fill="white"/>
<rect x="48.2258" y="40.7668" width="2.09677" height="2.09677" fill="white"/>
<rect x="50.3226" y="40.7668" width="2.09677" height="2.09677" fill="white"/>
<rect x="52.4194" y="40.7668" width="2.09677" height="2.09677" fill="white"/>
<rect x="58.7097" y="40.7668" width="2.09677" height="2.09677" fill="white"/>
<rect x="60.8064" y="40.7668" width="2.09677" height="2.09677" fill="white"/>
<rect x="62.9032" y="40.7668" width="2.09677" height="2.09677" fill="white"/>
<rect y="42.8636" width="2.09677" height="2.09677" fill="white"/>
<rect x="2.09678" y="42.8636" width="2.09677" height="2.09677" fill="white"/>
<rect x="4.19355" y="42.8636" width="2.09677" height="2.09677" fill="white"/>
<rect x="18.871" y="42.8636" width="2.09677" height="2.09677" fill="white"/>
<rect x="20.9677" y="42.8636" width="2.09677" height="2.09677" fill="white"/>
<rect x="23.0645" y="42.8636" width="2.09677" height="2.09677" fill="white"/>
<rect x="27.2581" y="42.8636" width="2.09677" height="2.09677" fill="white"/>
<rect x="29.3548" y="42.8636" width="2.09677" height="2.09677" fill="white"/>
<rect x="48.2258" y="42.8636" width="2.09677" height="2.09677" fill="white"/>
<rect x="50.3226" y="42.8636" width="2.09677" height="2.09677" fill="white"/>
<rect x="52.4194" y="42.8636" width="2.09677" height="2.09677" fill="white"/>
<rect x="58.7097" y="42.8636" width="2.09677" height="2.09677" fill="white"/>
<rect x="60.8064" y="42.8636" width="2.09677" height="2.09677" fill="white"/>
<rect x="62.9032" y="42.8636" width="2.09677" height="2.09677" fill="white"/>
<rect y="44.9604" width="2.09677" height="2.09677" fill="white"/>
<rect x="2.09678" y="44.9604" width="2.09677" height="2.09677" fill="white"/>
<rect x="4.19355" y="44.9604" width="2.09677" height="2.09677" fill="white"/>
<rect x="18.871" y="44.9604" width="2.09677" height="2.09677" fill="white"/>
<rect x="20.9677" y="44.9604" width="2.09677" height="2.09677" fill="white"/>
<rect x="23.0645" y="44.9604" width="2.09677" height="2.09677" fill="white"/>
<rect x="27.2581" y="44.9604" width="2.09677" height="2.09677" fill="white"/>
<rect x="29.3548" y="44.9604" width="2.09677" height="2.09677" fill="white"/>
<rect x="31.4516" y="44.9604" width="2.09677" height="2.09677" fill="white"/>
<rect x="48.2258" y="44.9604" width="2.09677" height="2.09677" fill="white"/>
<rect x="50.3226" y="44.9604" width="2.09677" height="2.09677" fill="white"/>
<rect x="52.4194" y="44.9604" width="2.09677" height="2.09677" fill="white"/>
<rect x="58.7097" y="44.9604" width="2.09677" height="2.09677" fill="white"/>
<rect x="60.8064" y="44.9604" width="2.09677" height="2.09677" fill="white"/>
<rect x="62.9032" y="44.9604" width="2.09677" height="2.09677" fill="white"/>
<rect y="47.0571" width="2.09677" height="2.09677" fill="white"/>
<rect x="2.09678" y="47.0571" width="2.09677" height="2.09677" fill="white"/>
<rect x="4.19355" y="47.0571" width="2.09677" height="2.09677" fill="white"/>
<rect x="18.871" y="47.0571" width="2.09677" height="2.09677" fill="white"/>
<rect x="20.9677" y="47.0571" width="2.09677" height="2.09677" fill="white"/>
<rect x="23.0645" y="47.0571" width="2.09677" height="2.09677" fill="white"/>
<rect x="27.2581" y="47.0571" width="2.09677" height="2.09677" fill="white"/>
<rect x="29.3548" y="47.0571" width="2.09677" height="2.09677" fill="white"/>
<rect x="31.4516" y="47.0571" width="2.09677" height="2.09677" fill="white"/>
<rect x="33.5484" y="47.0571" width="2.09677" height="2.09677" fill="white"/>
<rect x="35.6452" y="47.0571" width="2.09677" height="2.09677" fill="white"/>
<rect x="37.7419" y="47.0571" width="2.09677" height="2.09677" fill="white"/>
<rect x="39.8387" y="47.0571" width="2.09677" height="2.09677" fill="white"/>
<rect x="41.9355" y="47.0571" width="2.09677" height="2.09677" fill="white"/>
<rect x="44.0323" y="47.0571" width="2.09677" height="2.09677" fill="white"/>
<rect x="46.129" y="47.0571" width="2.09677" height="2.09677" fill="white"/>
<rect x="48.2258" y="47.0571" width="2.09677" height="2.09677" fill="white"/>
<rect x="50.3226" y="47.0571" width="2.09677" height="2.09677" fill="white"/>
<rect x="58.7097" y="47.0571" width="2.09677" height="2.09677" fill="white"/>
<rect x="60.8064" y="47.0571" width="2.09677" height="2.09677" fill="white"/>
<rect x="62.9032" y="47.0571" width="2.09677" height="2.09677" fill="white"/>
<rect y="49.1539" width="2.09677" height="2.09677" fill="white"/>
<rect x="2.09678" y="49.1539" width="2.09677" height="2.09677" fill="white"/>
<rect x="4.19355" y="49.1539" width="2.09677" height="2.09677" fill="white"/>
<rect x="18.871" y="49.1539" width="2.09677" height="2.09677" fill="white"/>
<rect x="20.9677" y="49.1539" width="2.09677" height="2.09677" fill="white"/>
<rect x="23.0645" y="49.1539" width="2.09677" height="2.09677" fill="white"/>
<rect x="29.3548" y="49.1539" width="2.09677" height="2.09677" fill="white"/>
<rect x="31.4516" y="49.1539" width="2.09677" height="2.09677" fill="white"/>
<rect x="33.5484" y="49.1539" width="2.09677" height="2.09677" fill="white"/>
<rect x="35.6452" y="49.1539" width="2.09677" height="2.09677" fill="white"/>
<rect x="37.7419" y="49.1539" width="2.09677" height="2.09677" fill="white"/>
<rect x="39.8387" y="49.1539" width="2.09677" height="2.09677" fill="white"/>
<rect x="41.9355" y="49.1539" width="2.09677" height="2.09677" fill="white"/>
<rect x="44.0323" y="49.1539" width="2.09677" height="2.09677" fill="white"/>
<rect x="46.129" y="49.1539" width="2.09677" height="2.09677" fill="white"/>
<rect x="48.2258" y="49.1539" width="2.09677" height="2.09677" fill="white"/>
<rect x="58.7097" y="49.1539" width="2.09677" height="2.09677" fill="white"/>
<rect x="60.8064" y="49.1539" width="2.09677" height="2.09677" fill="white"/>
<rect x="62.9032" y="49.1539" width="2.09677" height="2.09677" fill="white"/>
<rect y="51.2507" width="2.09677" height="2.09677" fill="white"/>
<rect x="2.09678" y="51.2507" width="2.09677" height="2.09677" fill="white"/>
<rect x="4.19355" y="51.2507" width="2.09677" height="2.09677" fill="white"/>
<rect x="18.871" y="51.2507" width="2.09677" height="2.09677" fill="white"/>
<rect x="20.9677" y="51.2507" width="2.09677" height="2.09677" fill="white"/>
<rect x="23.0645" y="51.2507" width="2.09677" height="2.09677" fill="white"/>
<rect x="35.6452" y="51.2507" width="2.09677" height="2.09677" fill="white"/>
<rect x="37.7419" y="51.2507" width="2.09677" height="2.09677" fill="white"/>
<rect x="39.8387" y="51.2507" width="2.09677" height="2.09677" fill="white"/>
<rect x="41.9355" y="51.2507" width="2.09677" height="2.09677" fill="white"/>
<rect x="44.0323" y="51.2507" width="2.09677" height="2.09677" fill="white"/>
<rect x="58.7097" y="51.2507" width="2.09677" height="2.09677" fill="white"/>
<rect x="60.8064" y="51.2507" width="2.09677" height="2.09677" fill="white"/>
<rect x="62.9032" y="51.2507" width="2.09677" height="2.09677" fill="white"/>
<rect y="53.3475" width="2.09677" height="2.09677" fill="white"/>
<rect x="2.09678" y="53.3475" width="2.09677" height="2.09677" fill="white"/>
<rect x="4.19355" y="53.3475" width="2.09677" height="2.09677" fill="white"/>
<rect x="6.29032" y="53.3475" width="2.09677" height="2.09677" fill="white"/>
<rect x="18.871" y="53.3475" width="2.09677" height="2.09677" fill="white"/>
<rect x="20.9677" y="53.3475" width="2.09677" height="2.09677" fill="white"/>
<rect x="23.0645" y="53.3475" width="2.09677" height="2.09677" fill="white"/>
<rect x="56.6129" y="53.3475" width="2.09677" height="2.09677" fill="white"/>
<rect x="58.7097" y="53.3475" width="2.09677" height="2.09677" fill="white"/>
<rect x="60.8064" y="53.3475" width="2.09677" height="2.09677" fill="white"/>
<rect x="62.9032" y="53.3475" width="2.09677" height="2.09677" fill="white"/>
<rect x="2.09678" y="55.4442" width="2.09677" height="2.09677" fill="white"/>
<rect x="4.19355" y="55.4442" width="2.09677" height="2.09677" fill="white"/>
<rect x="6.29032" y="55.4442" width="2.09677" height="2.09677" fill="white"/>
<rect x="8.3871" y="55.4442" width="2.09677" height="2.09677" fill="white"/>
<rect x="18.871" y="55.4442" width="2.09677" height="2.09677" fill="white"/>
<rect x="20.9677" y="55.4442" width="2.09677" height="2.09677" fill="white"/>
<rect x="23.0645" y="55.4442" width="2.09677" height="2.09677" fill="white"/>
<rect x="54.5161" y="55.4442" width="2.09677" height="2.09677" fill="white"/>
<rect x="56.6129" y="55.4442" width="2.09677" height="2.09677" fill="white"/>
<rect x="58.7097" y="55.4442" width="2.09677" height="2.09677" fill="white"/>
<rect x="60.8064" y="55.4442" width="2.09677" height="2.09677" fill="white"/>
<rect x="4.19355" y="57.541" width="2.09677" height="2.09677" fill="white"/>
<rect x="6.29032" y="57.541" width="2.09677" height="2.09677" fill="white"/>
<rect x="8.3871" y="57.541" width="2.09677" height="2.09677" fill="white"/>
<rect x="10.4839" y="57.541" width="2.09677" height="2.09677" fill="white"/>
<rect x="12.5806" y="57.541" width="2.09677" height="2.09677" fill="white"/>
<rect x="14.6774" y="57.541" width="2.09677" height="2.09677" fill="white"/>
<rect x="16.7742" y="57.541" width="2.09677" height="2.09677" fill="white"/>
<rect x="18.871" y="57.541" width="2.09677" height="2.09677" fill="white"/>
<rect x="20.9677" y="57.541" width="2.09677" height="2.09677" fill="white"/>
<rect x="50.3226" y="57.541" width="2.09677" height="2.09677" fill="white"/>
<rect x="52.4194" y="57.541" width="2.09677" height="2.09677" fill="white"/>
<rect x="54.5161" y="57.541" width="2.09677" height="2.09677" fill="white"/>
<rect x="56.6129" y="57.541" width="2.09677" height="2.09677" fill="white"/>
<rect x="58.7097" y="57.541" width="2.09677" height="2.09677" fill="white"/>
<rect x="8.3871" y="59.6378" width="2.09677" height="2.09677" fill="white"/>
<rect x="10.4839" y="59.6378" width="2.09677" height="2.09677" fill="white"/>
<rect x="12.5806" y="59.6378" width="2.09677" height="2.09677" fill="white"/>
<rect x="14.6774" y="59.6378" width="2.09677" height="2.09677" fill="white"/>
<rect x="16.7742" y="59.6378" width="2.09677" height="2.09677" fill="white"/>
<rect x="18.871" y="59.6378" width="2.09677" height="2.09677" fill="white"/>
<rect x="20.9677" y="59.6378" width="2.09677" height="2.09677" fill="white"/>
<rect x="46.129" y="59.6378" width="2.09677" height="2.09677" fill="white"/>
<rect x="48.2258" y="59.6378" width="2.09677" height="2.09677" fill="white"/>
<rect x="50.3226" y="59.6378" width="2.09677" height="2.09677" fill="white"/>
<rect x="52.4194" y="59.6378" width="2.09677" height="2.09677" fill="white"/>
<rect x="54.5161" y="59.6378" width="2.09677" height="2.09677" fill="white"/>
<rect x="12.5806" y="61.7346" width="2.09677" height="2.09677" fill="white"/>
<rect x="14.6774" y="61.7346" width="2.09677" height="2.09677" fill="white"/>
<rect x="16.7742" y="61.7346" width="2.09677" height="2.09677" fill="white"/>
<rect x="18.871" y="61.7346" width="2.09677" height="2.09677" fill="white"/>
<rect x="44.0323" y="61.7346" width="2.09677" height="2.09677" fill="white"/>
<rect x="46.129" y="61.7346" width="2.09677" height="2.09677" fill="white"/>
<rect x="48.2258" y="61.7346" width="2.09677" height="2.09677" fill="white"/>
<rect x="50.3226" y="61.7346" width="2.09677" height="2.09677" fill="white"/>
<rect x="39.8387" y="63.8313" width="2.09677" height="2.09677" fill="white"/>
<rect x="41.9355" y="63.8313" width="2.09677" height="2.09677" fill="white"/>
<rect x="44.0323" y="63.8313" width="2.09677" height="2.09677" fill="white"/>
<rect x="46.129" y="63.8313" width="2.09677" height="2.09677" fill="white"/>
<rect x="48.2258" y="63.8313" width="2.09677" height="2.09677" fill="white"/>
<rect x="20.9677" y="65.9281" width="2.09677" height="2.09677" fill="white"/>
<rect x="23.0645" y="65.9281" width="2.09677" height="2.09677" fill="white"/>
<rect x="25.1613" y="65.9281" width="2.09677" height="2.09677" fill="white"/>
<rect x="27.2581" y="65.9281" width="2.09677" height="2.09677" fill="white"/>
<rect x="35.6452" y="65.9281" width="2.09677" height="2.09677" fill="white"/>
<rect x="37.7419" y="65.9281" width="2.09677" height="2.09677" fill="white"/>
<rect x="39.8387" y="65.9281" width="2.09677" height="2.09677" fill="white"/>
<rect x="41.9355" y="65.9281" width="2.09677" height="2.09677" fill="white"/>
<rect x="44.0323" y="65.9281" width="2.09677" height="2.09677" fill="white"/>
<rect x="23.0645" y="68.0249" width="2.09677" height="2.09677" fill="white"/>
<rect x="25.1613" y="68.0249" width="2.09677" height="2.09677" fill="white"/>
<rect x="27.2581" y="68.0249" width="2.09677" height="2.09677" fill="white"/>
<rect x="29.3548" y="68.0249" width="2.09677" height="2.09677" fill="white"/>
<rect x="31.4516" y="68.0249" width="2.09677" height="2.09677" fill="white"/>
<rect x="33.5484" y="68.0249" width="2.09677" height="2.09677" fill="white"/>
<rect x="35.6452" y="68.0249" width="2.09677" height="2.09677" fill="white"/>
<rect x="37.7419" y="68.0249" width="2.09677" height="2.09677" fill="white"/>
<rect x="39.8387" y="68.0249" width="2.09677" height="2.09677" fill="white"/>
<rect x="27.2581" y="70.1216" width="2.09677" height="2.09677" fill="white"/>
<rect x="29.3548" y="70.1216" width="2.09677" height="2.09677" fill="white"/>
<rect x="31.4516" y="70.1216" width="2.09677" height="2.09677" fill="white"/>
<rect x="33.5484" y="70.1216" width="2.09677" height="2.09677" fill="white"/>
<rect x="35.6452" y="70.1216" width="2.09677" height="2.09677" fill="white"/>
<rect x="31.4516" y="72.2184" width="2.09677" height="2.09677" fill="white"/>
<rect x="33.5484" y="72.2184" width="2.09677" height="2.09677" fill="white"/>
</svg>
