<svg width="65" height="67" viewBox="0 0 65 67" fill="none" xmlns="http://www.w3.org/2000/svg">
<rect x="21.6667" y="0.0645752" width="1.80556" height="1.80556" fill="white"/>
<rect x="23.4722" y="0.0645752" width="1.80556" height="1.80556" fill="white"/>
<rect x="25.2778" y="0.0645752" width="1.80556" height="1.80556" fill="white"/>
<rect x="27.0833" y="0.0645752" width="1.80556" height="1.80556" fill="white"/>
<rect x="28.8889" y="0.0645752" width="1.80556" height="1.80556" fill="white"/>
<rect x="30.6945" y="0.0645752" width="1.80556" height="1.80556" fill="white"/>
<rect x="32.5" y="0.0645752" width="1.80556" height="1.80556" fill="white"/>
<rect x="34.3055" y="0.0645752" width="1.80556" height="1.80556" fill="white"/>
<rect x="36.1111" y="0.0645752" width="1.80556" height="1.80556" fill="white"/>
<rect x="37.9167" y="0.0645752" width="1.80556" height="1.80556" fill="white"/>
<rect x="39.7222" y="0.0645752" width="1.80556" height="1.80556" fill="white"/>
<rect x="18.0555" y="1.87012" width="1.80556" height="1.80556" fill="white"/>
<rect x="19.8611" y="1.87012" width="1.80556" height="1.80556" fill="white"/>
<rect x="21.6667" y="1.87012" width="1.80556" height="1.80556" fill="white"/>
<rect x="23.4722" y="1.87012" width="1.80556" height="1.80556" fill="white"/>
<rect x="25.2778" y="1.87012" width="1.80556" height="1.80556" fill="white"/>
<rect x="27.0833" y="1.87012" width="1.80556" height="1.80556" fill="white"/>
<rect x="28.8889" y="1.87012" width="1.80556" height="1.80556" fill="white"/>
<rect x="30.6945" y="1.87012" width="1.80556" height="1.80556" fill="white"/>
<rect x="32.5" y="1.87012" width="1.80556" height="1.80556" fill="white"/>
<rect x="34.3055" y="1.87012" width="1.80556" height="1.80556" fill="white"/>
<rect x="36.1111" y="1.87012" width="1.80556" height="1.80556" fill="white"/>
<rect x="37.9167" y="1.87012" width="1.80556" height="1.80556" fill="white"/>
<rect x="39.7222" y="1.87012" width="1.80556" height="1.80556" fill="white"/>
<rect x="41.5278" y="1.87012" width="1.80556" height="1.80556" fill="white"/>
<rect x="43.3333" y="1.87012" width="1.80556" height="1.80556" fill="white"/>
<rect x="16.25" y="3.67566" width="1.80556" height="1.80556" fill="white"/>
<rect x="18.0555" y="3.67566" width="1.80556" height="1.80556" fill="white"/>
<rect x="19.8611" y="3.67566" width="1.80556" height="1.80556" fill="white"/>
<rect x="23.4722" y="3.67566" width="1.80556" height="1.80556" fill="white"/>
<rect x="25.2778" y="3.67566" width="1.80556" height="1.80556" fill="white"/>
<rect x="27.0833" y="3.67566" width="1.80556" height="1.80556" fill="white"/>
<rect x="28.8889" y="3.67566" width="1.80556" height="1.80556" fill="white"/>
<rect x="30.6945" y="3.67566" width="1.80556" height="1.80556" fill="white"/>
<rect x="32.5" y="3.67566" width="1.80556" height="1.80556" fill="white"/>
<rect x="34.3055" y="3.67566" width="1.80556" height="1.80556" fill="white"/>
<rect x="36.1111" y="3.67566" width="1.80556" height="1.80556" fill="white"/>
<rect x="37.9167" y="3.67566" width="1.80556" height="1.80556" fill="white"/>
<rect x="39.7222" y="3.67566" width="1.80556" height="1.80556" fill="white"/>
<rect x="41.5278" y="3.67566" width="1.80556" height="1.80556" fill="white"/>
<rect x="43.3333" y="3.67566" width="1.80556" height="1.80556" fill="white"/>
<rect x="45.1389" y="3.67566" width="1.80556" height="1.80556" fill="white"/>
<rect x="16.25" y="5.4812" width="1.80556" height="1.80556" fill="white"/>
<rect x="18.0555" y="5.4812" width="1.80556" height="1.80556" fill="white"/>
<path d="M21.6667 5.4812H19.8611V7.28676H21.6667V5.4812Z" fill="white"/>
<rect x="25.2778" y="5.4812" width="1.80556" height="1.80556" fill="white"/>
<rect x="27.0833" y="5.4812" width="1.80556" height="1.80556" fill="white"/>
<rect x="28.8889" y="5.4812" width="1.80556" height="1.80556" fill="white"/>
<rect x="30.6945" y="5.4812" width="1.80556" height="1.80556" fill="white"/>
<rect x="32.5" y="5.4812" width="1.80556" height="1.80556" fill="white"/>
<rect x="34.3055" y="5.4812" width="1.80556" height="1.80556" fill="white"/>
<rect x="36.1111" y="5.4812" width="1.80556" height="1.80556" fill="white"/>
<rect x="37.9167" y="5.4812" width="1.80556" height="1.80556" fill="white"/>
<rect x="39.7222" y="5.4812" width="1.80556" height="1.80556" fill="white"/>
<rect x="41.5278" y="5.4812" width="1.80556" height="1.80556" fill="white"/>
<rect x="43.3333" y="5.4812" width="1.80556" height="1.80556" fill="white"/>
<rect x="45.1389" y="5.4812" width="1.80556" height="1.80556" fill="white"/>
<rect x="16.25" y="7.28674" width="1.80556" height="1.80556" fill="white"/>
<rect x="18.0555" y="7.28674" width="1.80556" height="1.80556" fill="white"/>
<rect x="19.8611" y="7.28674" width="1.80556" height="1.80556" fill="white"/>
<rect x="25.2778" y="7.28674" width="1.80556" height="1.80556" fill="white"/>
<rect x="27.0833" y="7.28674" width="1.80556" height="1.80556" fill="white"/>
<rect x="28.8889" y="7.28674" width="1.80556" height="1.80556" fill="white"/>
<rect x="30.6945" y="7.28674" width="1.80556" height="1.80556" fill="white"/>
<rect x="32.5" y="7.28674" width="1.80556" height="1.80556" fill="white"/>
<rect x="34.3055" y="7.28674" width="1.80556" height="1.80556" fill="white"/>
<rect x="36.1111" y="7.28674" width="1.80556" height="1.80556" fill="white"/>
<rect x="37.9167" y="7.28674" width="1.80556" height="1.80556" fill="white"/>
<rect x="39.7222" y="7.28674" width="1.80556" height="1.80556" fill="white"/>
<rect x="41.5278" y="7.28674" width="1.80556" height="1.80556" fill="white"/>
<rect x="43.3333" y="7.28674" width="1.80556" height="1.80556" fill="white"/>
<rect x="45.1389" y="7.28674" width="1.80556" height="1.80556" fill="white"/>
<rect x="16.25" y="9.09241" width="1.80556" height="1.80556" fill="white"/>
<rect x="18.0555" y="9.09241" width="1.80556" height="1.80556" fill="white"/>
<rect x="19.8611" y="9.09241" width="1.80556" height="1.80556" fill="white"/>
<rect x="21.6667" y="9.09241" width="1.80556" height="1.80556" fill="white"/>
<rect x="23.4722" y="9.09241" width="1.80556" height="1.80556" fill="white"/>
<rect x="25.2778" y="9.09241" width="1.80556" height="1.80556" fill="white"/>
<rect x="27.0833" y="9.09241" width="1.80556" height="1.80556" fill="white"/>
<rect x="28.8889" y="9.09241" width="1.80556" height="1.80556" fill="white"/>
<rect x="30.6945" y="9.09241" width="1.80556" height="1.80556" fill="white"/>
<rect x="32.5" y="9.09241" width="1.80556" height="1.80556" fill="white"/>
<rect x="34.3055" y="9.09241" width="1.80556" height="1.80556" fill="white"/>
<rect x="36.1111" y="9.09241" width="1.80556" height="1.80556" fill="white"/>
<rect x="37.9167" y="9.09241" width="1.80556" height="1.80556" fill="white"/>
<rect x="39.7222" y="9.09241" width="1.80556" height="1.80556" fill="white"/>
<rect x="41.5278" y="9.09241" width="1.80556" height="1.80556" fill="white"/>
<rect x="43.3333" y="9.09241" width="1.80556" height="1.80556" fill="white"/>
<rect x="45.1389" y="9.09241" width="1.80556" height="1.80556" fill="white"/>
<rect x="16.25" y="10.8979" width="1.80556" height="1.80556" fill="white"/>
<rect x="18.0555" y="10.8979" width="1.80556" height="1.80556" fill="white"/>
<rect x="19.8611" y="10.8979" width="1.80556" height="1.80556" fill="white"/>
<rect x="21.6667" y="10.8979" width="1.80556" height="1.80556" fill="white"/>
<rect x="23.4722" y="10.8979" width="1.80556" height="1.80556" fill="white"/>
<rect x="25.2778" y="10.8979" width="1.80556" height="1.80556" fill="white"/>
<rect x="27.0833" y="10.8979" width="1.80556" height="1.80556" fill="white"/>
<rect x="28.8889" y="10.8979" width="1.80556" height="1.80556" fill="white"/>
<rect x="30.6945" y="10.8979" width="1.80556" height="1.80556" fill="white"/>
<rect x="32.5" y="10.8979" width="1.80556" height="1.80556" fill="white"/>
<rect x="34.3055" y="10.8979" width="1.80556" height="1.80556" fill="white"/>
<rect x="36.1111" y="10.8979" width="1.80556" height="1.80556" fill="white"/>
<rect x="37.9167" y="10.8979" width="1.80556" height="1.80556" fill="white"/>
<rect x="39.7222" y="10.8979" width="1.80556" height="1.80556" fill="white"/>
<rect x="41.5278" y="10.8979" width="1.80556" height="1.80556" fill="white"/>
<rect x="43.3333" y="10.8979" width="1.80556" height="1.80556" fill="white"/>
<rect x="45.1389" y="10.8979" width="1.80556" height="1.80556" fill="white"/>
<rect x="36.1111" y="12.7035" width="1.80556" height="1.80556" fill="white"/>
<rect x="37.9167" y="12.7035" width="1.80556" height="1.80556" fill="white"/>
<rect x="39.7222" y="12.7035" width="1.80556" height="1.80556" fill="white"/>
<rect x="41.5278" y="12.7035" width="1.80556" height="1.80556" fill="white"/>
<rect x="43.3333" y="12.7035" width="1.80556" height="1.80556" fill="white"/>
<rect x="45.1389" y="12.7035" width="1.80556" height="1.80556" fill="white"/>
<rect x="9.02777" y="14.509" width="1.80556" height="1.80556" fill="white"/>
<rect x="10.8333" y="14.509" width="1.80556" height="1.80556" fill="white"/>
<rect x="12.6389" y="14.509" width="1.80556" height="1.80556" fill="white"/>
<rect x="14.4445" y="14.509" width="1.80556" height="1.80556" fill="white"/>
<rect x="16.25" y="14.509" width="1.80556" height="1.80556" fill="white"/>
<rect x="18.0555" y="14.509" width="1.80556" height="1.80556" fill="white"/>
<rect x="19.8611" y="14.509" width="1.80556" height="1.80556" fill="white"/>
<rect x="21.6667" y="14.509" width="1.80556" height="1.80556" fill="white"/>
<rect x="23.4722" y="14.509" width="1.80556" height="1.80556" fill="white"/>
<rect x="25.2778" y="14.509" width="1.80556" height="1.80556" fill="white"/>
<rect x="27.0833" y="14.509" width="1.80556" height="1.80556" fill="white"/>
<rect x="28.8889" y="14.509" width="1.80556" height="1.80556" fill="white"/>
<rect x="30.6945" y="14.509" width="1.80556" height="1.80556" fill="white"/>
<rect x="32.5" y="14.509" width="1.80556" height="1.80556" fill="white"/>
<rect x="34.3055" y="14.509" width="1.80556" height="1.80556" fill="white"/>
<rect x="36.1111" y="14.509" width="1.80556" height="1.80556" fill="white"/>
<rect x="37.9167" y="14.509" width="1.80556" height="1.80556" fill="white"/>
<rect x="39.7222" y="14.509" width="1.80556" height="1.80556" fill="white"/>
<rect x="41.5278" y="14.509" width="1.80556" height="1.80556" fill="white"/>
<rect x="43.3333" y="14.509" width="1.80556" height="1.80556" fill="white"/>
<rect x="45.1389" y="14.509" width="1.80556" height="1.80556" fill="white"/>
<rect x="5.41666" y="16.3146" width="1.80556" height="1.80556" fill="white"/>
<rect x="7.22223" y="16.3146" width="1.80556" height="1.80556" fill="white"/>
<rect x="9.02777" y="16.3146" width="1.80556" height="1.80556" fill="white"/>
<rect x="10.8333" y="16.3146" width="1.80556" height="1.80556" fill="white"/>
<rect x="12.6389" y="16.3146" width="1.80556" height="1.80556" fill="white"/>
<rect x="14.4445" y="16.3146" width="1.80556" height="1.80556" fill="white"/>
<rect x="16.25" y="16.3146" width="1.80556" height="1.80556" fill="white"/>
<rect x="18.0555" y="16.3146" width="1.80556" height="1.80556" fill="white"/>
<rect x="19.8611" y="16.3146" width="1.80556" height="1.80556" fill="white"/>
<rect x="21.6667" y="16.3146" width="1.80556" height="1.80556" fill="white"/>
<rect x="23.4722" y="16.3146" width="1.80556" height="1.80556" fill="white"/>
<rect x="25.2778" y="16.3146" width="1.80556" height="1.80556" fill="white"/>
<rect x="27.0833" y="16.3146" width="1.80556" height="1.80556" fill="white"/>
<rect x="28.8889" y="16.3146" width="1.80556" height="1.80556" fill="white"/>
<rect x="30.6945" y="16.3146" width="1.80556" height="1.80556" fill="white"/>
<rect x="32.5" y="16.3146" width="1.80556" height="1.80556" fill="white"/>
<rect x="34.3055" y="16.3146" width="1.80556" height="1.80556" fill="white"/>
<rect x="36.1111" y="16.3146" width="1.80556" height="1.80556" fill="white"/>
<rect x="37.9167" y="16.3146" width="1.80556" height="1.80556" fill="white"/>
<rect x="39.7222" y="16.3146" width="1.80556" height="1.80556" fill="white"/>
<rect x="41.5278" y="16.3146" width="1.80556" height="1.80556" fill="white"/>
<rect x="43.3333" y="16.3146" width="1.80556" height="1.80556" fill="white"/>
<rect x="45.1389" y="16.3146" width="1.80556" height="1.80556" fill="white"/>
<rect x="3.61111" y="18.1201" width="1.80556" height="1.80556" fill="white"/>
<rect x="5.41666" y="18.1201" width="1.80556" height="1.80556" fill="white"/>
<rect x="7.22223" y="18.1201" width="1.80556" height="1.80556" fill="white"/>
<rect x="9.02777" y="18.1201" width="1.80556" height="1.80556" fill="white"/>
<rect x="10.8333" y="18.1201" width="1.80556" height="1.80556" fill="white"/>
<rect x="12.6389" y="18.1201" width="1.80556" height="1.80556" fill="white"/>
<rect x="14.4445" y="18.1201" width="1.80556" height="1.80556" fill="white"/>
<rect x="16.25" y="18.1201" width="1.80556" height="1.80556" fill="white"/>
<rect x="18.0555" y="18.1201" width="1.80556" height="1.80556" fill="white"/>
<rect x="19.8611" y="18.1201" width="1.80556" height="1.80556" fill="white"/>
<rect x="21.6667" y="18.1201" width="1.80556" height="1.80556" fill="white"/>
<rect x="23.4722" y="18.1201" width="1.80556" height="1.80556" fill="white"/>
<rect x="25.2778" y="18.1201" width="1.80556" height="1.80556" fill="white"/>
<rect x="27.0833" y="18.1201" width="1.80556" height="1.80556" fill="white"/>
<rect x="28.8889" y="18.1201" width="1.80556" height="1.80556" fill="white"/>
<rect x="30.6945" y="18.1201" width="1.80556" height="1.80556" fill="white"/>
<rect x="32.5" y="18.1201" width="1.80556" height="1.80556" fill="white"/>
<rect x="34.3055" y="18.1201" width="1.80556" height="1.80556" fill="white"/>
<rect x="36.1111" y="18.1201" width="1.80556" height="1.80556" fill="white"/>
<rect x="37.9167" y="18.1201" width="1.80556" height="1.80556" fill="white"/>
<rect x="39.7222" y="18.1201" width="1.80556" height="1.80556" fill="white"/>
<rect x="41.5278" y="18.1201" width="1.80556" height="1.80556" fill="white"/>
<rect x="43.3333" y="18.1201" width="1.80556" height="1.80556" fill="white"/>
<rect x="45.1389" y="18.1201" width="1.80556" height="1.80556" fill="white"/>
<rect x="48.75" y="18.1201" width="1.80556" height="1.80556" fill="white"/>
<rect x="50.5555" y="18.1201" width="1.80556" height="1.80556" fill="white"/>
<rect x="52.3611" y="18.1201" width="1.80556" height="1.80556" fill="white"/>
<rect x="54.1667" y="18.1201" width="1.80556" height="1.80556" fill="white"/>
<rect x="55.9722" y="18.1201" width="1.80556" height="1.80556" fill="white"/>
<rect x="57.7778" y="18.1201" width="1.80556" height="1.80556" fill="white"/>
<rect x="59.5833" y="18.1201" width="1.80556" height="1.80556" fill="white"/>
<rect x="1.80554" y="19.9257" width="1.80556" height="1.80556" fill="white"/>
<rect x="3.61111" y="19.9257" width="1.80556" height="1.80556" fill="white"/>
<rect x="5.41666" y="19.9257" width="1.80556" height="1.80556" fill="white"/>
<rect x="7.22223" y="19.9257" width="1.80556" height="1.80556" fill="white"/>
<rect x="9.02777" y="19.9257" width="1.80556" height="1.80556" fill="white"/>
<rect x="10.8333" y="19.9257" width="1.80556" height="1.80556" fill="white"/>
<rect x="12.6389" y="19.9257" width="1.80556" height="1.80556" fill="white"/>
<rect x="14.4445" y="19.9257" width="1.80556" height="1.80556" fill="white"/>
<rect x="16.25" y="19.9257" width="1.80556" height="1.80556" fill="white"/>
<rect x="18.0555" y="19.9257" width="1.80556" height="1.80556" fill="white"/>
<rect x="19.8611" y="19.9257" width="1.80556" height="1.80556" fill="white"/>
<rect x="21.6667" y="19.9257" width="1.80556" height="1.80556" fill="white"/>
<rect x="23.4722" y="19.9257" width="1.80556" height="1.80556" fill="white"/>
<rect x="25.2778" y="19.9257" width="1.80556" height="1.80556" fill="white"/>
<rect x="27.0833" y="19.9257" width="1.80556" height="1.80556" fill="white"/>
<rect x="28.8889" y="19.9257" width="1.80556" height="1.80556" fill="white"/>
<rect x="30.6945" y="19.9257" width="1.80556" height="1.80556" fill="white"/>
<rect x="32.5" y="19.9257" width="1.80556" height="1.80556" fill="white"/>
<rect x="34.3055" y="19.9257" width="1.80556" height="1.80556" fill="white"/>
<rect x="36.1111" y="19.9257" width="1.80556" height="1.80556" fill="white"/>
<rect x="37.9167" y="19.9257" width="1.80556" height="1.80556" fill="white"/>
<rect x="39.7222" y="19.9257" width="1.80556" height="1.80556" fill="white"/>
<rect x="41.5278" y="19.9257" width="1.80556" height="1.80556" fill="white"/>
<rect x="43.3333" y="19.9257" width="1.80556" height="1.80556" fill="white"/>
<rect x="45.1389" y="19.9257" width="1.80556" height="1.80556" fill="white"/>
<rect x="48.75" y="19.9257" width="1.80556" height="1.80556" fill="white"/>
<rect x="50.5555" y="19.9257" width="1.80556" height="1.80556" fill="white"/>
<rect x="52.3611" y="19.9257" width="1.80556" height="1.80556" fill="white"/>
<rect x="54.1667" y="19.9257" width="1.80556" height="1.80556" fill="white"/>
<rect x="55.9722" y="19.9257" width="1.80556" height="1.80556" fill="white"/>
<rect x="57.7778" y="19.9257" width="1.80556" height="1.80556" fill="white"/>
<rect x="59.5833" y="19.9257" width="1.80556" height="1.80556" fill="white"/>
<rect x="61.3889" y="19.9257" width="1.80556" height="1.80556" fill="white"/>
<rect x="1.80554" y="21.7312" width="1.80556" height="1.80556" fill="white"/>
<rect x="3.61111" y="21.7312" width="1.80556" height="1.80556" fill="white"/>
<rect x="5.41666" y="21.7312" width="1.80556" height="1.80556" fill="white"/>
<rect x="7.22223" y="21.7312" width="1.80556" height="1.80556" fill="white"/>
<rect x="9.02777" y="21.7312" width="1.80556" height="1.80556" fill="white"/>
<rect x="10.8333" y="21.7312" width="1.80556" height="1.80556" fill="white"/>
<rect x="12.6389" y="21.7312" width="1.80556" height="1.80556" fill="white"/>
<rect x="14.4445" y="21.7312" width="1.80556" height="1.80556" fill="white"/>
<rect x="16.25" y="21.7312" width="1.80556" height="1.80556" fill="white"/>
<rect x="18.0555" y="21.7312" width="1.80556" height="1.80556" fill="white"/>
<rect x="19.8611" y="21.7312" width="1.80556" height="1.80556" fill="white"/>
<rect x="21.6667" y="21.7312" width="1.80556" height="1.80556" fill="white"/>
<rect x="23.4722" y="21.7312" width="1.80556" height="1.80556" fill="white"/>
<rect x="25.2778" y="21.7312" width="1.80556" height="1.80556" fill="white"/>
<rect x="27.0833" y="21.7312" width="1.80556" height="1.80556" fill="white"/>
<rect x="28.8889" y="21.7312" width="1.80556" height="1.80556" fill="white"/>
<rect x="30.6945" y="21.7312" width="1.80556" height="1.80556" fill="white"/>
<rect x="32.5" y="21.7312" width="1.80556" height="1.80556" fill="white"/>
<rect x="34.3055" y="21.7312" width="1.80556" height="1.80556" fill="white"/>
<rect x="36.1111" y="21.7312" width="1.80556" height="1.80556" fill="white"/>
<rect x="37.9167" y="21.7312" width="1.80556" height="1.80556" fill="white"/>
<rect x="39.7222" y="21.7312" width="1.80556" height="1.80556" fill="white"/>
<rect x="41.5278" y="21.7312" width="1.80556" height="1.80556" fill="white"/>
<rect x="43.3333" y="21.7312" width="1.80556" height="1.80556" fill="white"/>
<rect x="45.1389" y="21.7312" width="1.80556" height="1.80556" fill="white"/>
<rect x="48.75" y="21.7312" width="1.80556" height="1.80556" fill="white"/>
<rect x="50.5555" y="21.7312" width="1.80556" height="1.80556" fill="white"/>
<rect x="52.3611" y="21.7312" width="1.80556" height="1.80556" fill="white"/>
<rect x="54.1667" y="21.7312" width="1.80556" height="1.80556" fill="white"/>
<rect x="55.9722" y="21.7312" width="1.80556" height="1.80556" fill="white"/>
<rect x="57.7778" y="21.7312" width="1.80556" height="1.80556" fill="white"/>
<rect x="59.5833" y="21.7312" width="1.80556" height="1.80556" fill="white"/>
<rect x="61.3889" y="21.7312" width="1.80556" height="1.80556" fill="white"/>
<rect y="23.5367" width="1.80556" height="1.80556" fill="white"/>
<rect x="1.80554" y="23.5367" width="1.80556" height="1.80556" fill="white"/>
<rect x="3.61111" y="23.5367" width="1.80556" height="1.80556" fill="white"/>
<rect x="5.41666" y="23.5367" width="1.80556" height="1.80556" fill="white"/>
<rect x="7.22223" y="23.5367" width="1.80556" height="1.80556" fill="white"/>
<rect x="9.02777" y="23.5367" width="1.80556" height="1.80556" fill="white"/>
<rect x="10.8333" y="23.5367" width="1.80556" height="1.80556" fill="white"/>
<rect x="12.6389" y="23.5367" width="1.80556" height="1.80556" fill="white"/>
<rect x="14.4445" y="23.5367" width="1.80556" height="1.80556" fill="white"/>
<rect x="16.25" y="23.5367" width="1.80556" height="1.80556" fill="white"/>
<rect x="18.0555" y="23.5367" width="1.80556" height="1.80556" fill="white"/>
<rect x="19.8611" y="23.5367" width="1.80556" height="1.80556" fill="white"/>
<rect x="21.6667" y="23.5367" width="1.80556" height="1.80556" fill="white"/>
<rect x="23.4722" y="23.5367" width="1.80556" height="1.80556" fill="white"/>
<rect x="25.2778" y="23.5367" width="1.80556" height="1.80556" fill="white"/>
<rect x="27.0833" y="23.5367" width="1.80556" height="1.80556" fill="white"/>
<rect x="28.8889" y="23.5367" width="1.80556" height="1.80556" fill="white"/>
<rect x="30.6945" y="23.5367" width="1.80556" height="1.80556" fill="white"/>
<rect x="32.5" y="23.5367" width="1.80556" height="1.80556" fill="white"/>
<rect x="34.3055" y="23.5367" width="1.80556" height="1.80556" fill="white"/>
<rect x="36.1111" y="23.5367" width="1.80556" height="1.80556" fill="white"/>
<rect x="37.9167" y="23.5367" width="1.80556" height="1.80556" fill="white"/>
<rect x="39.7222" y="23.5367" width="1.80556" height="1.80556" fill="white"/>
<rect x="41.5278" y="23.5367" width="1.80556" height="1.80556" fill="white"/>
<rect x="43.3333" y="23.5367" width="1.80556" height="1.80556" fill="white"/>
<rect x="45.1389" y="23.5367" width="1.80556" height="1.80556" fill="white"/>
<rect x="48.75" y="23.5367" width="1.80556" height="1.80556" fill="white"/>
<rect x="50.5555" y="23.5367" width="1.80556" height="1.80556" fill="white"/>
<rect x="52.3611" y="23.5367" width="1.80556" height="1.80556" fill="white"/>
<rect x="54.1667" y="23.5367" width="1.80556" height="1.80556" fill="white"/>
<rect x="55.9722" y="23.5367" width="1.80556" height="1.80556" fill="white"/>
<rect x="57.7778" y="23.5367" width="1.80556" height="1.80556" fill="white"/>
<rect x="59.5833" y="23.5367" width="1.80556" height="1.80556" fill="white"/>
<rect x="61.3889" y="23.5367" width="1.80556" height="1.80556" fill="white"/>
<rect x="63.1945" y="23.5367" width="1.80556" height="1.80556" fill="white"/>
<rect y="25.3424" width="1.80556" height="1.80556" fill="white"/>
<rect x="1.80554" y="25.3424" width="1.80556" height="1.80556" fill="white"/>
<rect x="3.61111" y="25.3424" width="1.80556" height="1.80556" fill="white"/>
<rect x="5.41666" y="25.3424" width="1.80556" height="1.80556" fill="white"/>
<rect x="7.22223" y="25.3424" width="1.80556" height="1.80556" fill="white"/>
<rect x="9.02777" y="25.3424" width="1.80556" height="1.80556" fill="white"/>
<rect x="10.8333" y="25.3424" width="1.80556" height="1.80556" fill="white"/>
<rect x="12.6389" y="25.3424" width="1.80556" height="1.80556" fill="white"/>
<rect x="14.4445" y="25.3424" width="1.80556" height="1.80556" fill="white"/>
<rect x="16.25" y="25.3424" width="1.80556" height="1.80556" fill="white"/>
<rect x="18.0555" y="25.3424" width="1.80556" height="1.80556" fill="white"/>
<rect x="19.8611" y="25.3424" width="1.80556" height="1.80556" fill="white"/>
<rect x="21.6667" y="25.3424" width="1.80556" height="1.80556" fill="white"/>
<rect x="23.4722" y="25.3424" width="1.80556" height="1.80556" fill="white"/>
<rect x="25.2778" y="25.3424" width="1.80556" height="1.80556" fill="white"/>
<rect x="27.0833" y="25.3424" width="1.80556" height="1.80556" fill="white"/>
<rect x="28.8889" y="25.3424" width="1.80556" height="1.80556" fill="white"/>
<rect x="30.6945" y="25.3424" width="1.80556" height="1.80556" fill="white"/>
<rect x="32.5" y="25.3424" width="1.80556" height="1.80556" fill="white"/>
<rect x="34.3055" y="25.3424" width="1.80556" height="1.80556" fill="white"/>
<rect x="36.1111" y="25.3424" width="1.80556" height="1.80556" fill="white"/>
<rect x="37.9167" y="25.3424" width="1.80556" height="1.80556" fill="white"/>
<rect x="39.7222" y="25.3424" width="1.80556" height="1.80556" fill="white"/>
<rect x="41.5278" y="25.3424" width="1.80556" height="1.80556" fill="white"/>
<rect x="43.3333" y="25.3424" width="1.80556" height="1.80556" fill="white"/>
<rect x="45.1389" y="25.3424" width="1.80556" height="1.80556" fill="white"/>
<rect x="48.75" y="25.3424" width="1.80556" height="1.80556" fill="white"/>
<rect x="50.5555" y="25.3424" width="1.80556" height="1.80556" fill="white"/>
<rect x="52.3611" y="25.3424" width="1.80556" height="1.80556" fill="white"/>
<rect x="54.1667" y="25.3424" width="1.80556" height="1.80556" fill="white"/>
<rect x="55.9722" y="25.3424" width="1.80556" height="1.80556" fill="white"/>
<rect x="57.7778" y="25.3424" width="1.80556" height="1.80556" fill="white"/>
<rect x="59.5833" y="25.3424" width="1.80556" height="1.80556" fill="white"/>
<rect x="61.3889" y="25.3424" width="1.80556" height="1.80556" fill="white"/>
<rect x="63.1945" y="25.3424" width="1.80556" height="1.80556" fill="white"/>
<rect y="27.1479" width="1.80556" height="1.80556" fill="white"/>
<rect x="1.80554" y="27.1479" width="1.80556" height="1.80556" fill="white"/>
<rect x="3.61111" y="27.1479" width="1.80556" height="1.80556" fill="white"/>
<rect x="5.41666" y="27.1479" width="1.80556" height="1.80556" fill="white"/>
<rect x="7.22223" y="27.1479" width="1.80556" height="1.80556" fill="white"/>
<rect x="9.02777" y="27.1479" width="1.80556" height="1.80556" fill="white"/>
<rect x="10.8333" y="27.1479" width="1.80556" height="1.80556" fill="white"/>
<rect x="12.6389" y="27.1479" width="1.80556" height="1.80556" fill="white"/>
<rect x="14.4445" y="27.1479" width="1.80556" height="1.80556" fill="white"/>
<rect x="16.25" y="27.1479" width="1.80556" height="1.80556" fill="white"/>
<rect x="18.0555" y="27.1479" width="1.80556" height="1.80556" fill="white"/>
<rect x="19.8611" y="27.1479" width="1.80556" height="1.80556" fill="white"/>
<rect x="21.6667" y="27.1479" width="1.80556" height="1.80556" fill="white"/>
<rect x="23.4722" y="27.1479" width="1.80556" height="1.80556" fill="white"/>
<rect x="25.2778" y="27.1479" width="1.80556" height="1.80556" fill="white"/>
<rect x="27.0833" y="27.1479" width="1.80556" height="1.80556" fill="white"/>
<rect x="28.8889" y="27.1479" width="1.80556" height="1.80556" fill="white"/>
<rect x="30.6945" y="27.1479" width="1.80556" height="1.80556" fill="white"/>
<rect x="32.5" y="27.1479" width="1.80556" height="1.80556" fill="white"/>
<rect x="34.3055" y="27.1479" width="1.80556" height="1.80556" fill="white"/>
<rect x="36.1111" y="27.1479" width="1.80556" height="1.80556" fill="white"/>
<rect x="37.9167" y="27.1479" width="1.80556" height="1.80556" fill="white"/>
<rect x="39.7222" y="27.1479" width="1.80556" height="1.80556" fill="white"/>
<rect x="41.5278" y="27.1479" width="1.80556" height="1.80556" fill="white"/>
<rect x="43.3333" y="27.1479" width="1.80556" height="1.80556" fill="white"/>
<rect x="45.1389" y="27.1479" width="1.80556" height="1.80556" fill="white"/>
<rect x="48.75" y="27.1479" width="1.80556" height="1.80556" fill="white"/>
<rect x="50.5555" y="27.1479" width="1.80556" height="1.80556" fill="white"/>
<rect x="52.3611" y="27.1479" width="1.80556" height="1.80556" fill="white"/>
<rect x="54.1667" y="27.1479" width="1.80556" height="1.80556" fill="white"/>
<rect x="55.9722" y="27.1479" width="1.80556" height="1.80556" fill="white"/>
<rect x="57.7778" y="27.1479" width="1.80556" height="1.80556" fill="white"/>
<rect x="59.5833" y="27.1479" width="1.80556" height="1.80556" fill="white"/>
<rect x="61.3889" y="27.1479" width="1.80556" height="1.80556" fill="white"/>
<rect x="63.1945" y="27.1479" width="1.80556" height="1.80556" fill="white"/>
<rect y="28.9535" width="1.80556" height="1.80556" fill="white"/>
<rect x="1.80554" y="28.9535" width="1.80556" height="1.80556" fill="white"/>
<rect x="3.61111" y="28.9535" width="1.80556" height="1.80556" fill="white"/>
<rect x="5.41666" y="28.9535" width="1.80556" height="1.80556" fill="white"/>
<rect x="7.22223" y="28.9535" width="1.80556" height="1.80556" fill="white"/>
<rect x="9.02777" y="28.9535" width="1.80556" height="1.80556" fill="white"/>
<rect x="10.8333" y="28.9535" width="1.80556" height="1.80556" fill="white"/>
<rect x="12.6389" y="28.9535" width="1.80556" height="1.80556" fill="white"/>
<rect x="14.4445" y="28.9535" width="1.80556" height="1.80556" fill="white"/>
<rect x="16.25" y="28.9535" width="1.80556" height="1.80556" fill="white"/>
<rect x="18.0555" y="28.9535" width="1.80556" height="1.80556" fill="white"/>
<rect x="19.8611" y="28.9535" width="1.80556" height="1.80556" fill="white"/>
<rect x="21.6667" y="28.9535" width="1.80556" height="1.80556" fill="white"/>
<rect x="23.4722" y="28.9535" width="1.80556" height="1.80556" fill="white"/>
<rect x="25.2778" y="28.9535" width="1.80556" height="1.80556" fill="white"/>
<rect x="27.0833" y="28.9535" width="1.80556" height="1.80556" fill="white"/>
<rect x="28.8889" y="28.9535" width="1.80556" height="1.80556" fill="white"/>
<rect x="30.6945" y="28.9535" width="1.80556" height="1.80556" fill="white"/>
<rect x="32.5" y="28.9535" width="1.80556" height="1.80556" fill="white"/>
<rect x="34.3055" y="28.9535" width="1.80556" height="1.80556" fill="white"/>
<rect x="36.1111" y="28.9535" width="1.80556" height="1.80556" fill="white"/>
<rect x="37.9167" y="28.9535" width="1.80556" height="1.80556" fill="white"/>
<rect x="39.7222" y="28.9535" width="1.80556" height="1.80556" fill="white"/>
<rect x="41.5278" y="28.9535" width="1.80556" height="1.80556" fill="white"/>
<rect x="43.3333" y="28.9535" width="1.80556" height="1.80556" fill="white"/>
<rect x="46.9445" y="28.9535" width="1.80556" height="1.80556" fill="white"/>
<rect x="48.75" y="28.9535" width="1.80556" height="1.80556" fill="white"/>
<rect x="50.5555" y="28.9535" width="1.80556" height="1.80556" fill="white"/>
<rect x="52.3611" y="28.9535" width="1.80556" height="1.80556" fill="white"/>
<rect x="54.1667" y="28.9535" width="1.80556" height="1.80556" fill="white"/>
<rect x="55.9722" y="28.9535" width="1.80556" height="1.80556" fill="white"/>
<rect x="57.7778" y="28.9535" width="1.80556" height="1.80556" fill="white"/>
<rect x="59.5833" y="28.9535" width="1.80556" height="1.80556" fill="white"/>
<rect x="61.3889" y="28.9535" width="1.80556" height="1.80556" fill="white"/>
<rect x="63.1945" y="28.9535" width="1.80556" height="1.80556" fill="white"/>
<rect y="30.759" width="1.80556" height="1.80556" fill="white"/>
<rect x="1.80554" y="30.759" width="1.80556" height="1.80556" fill="white"/>
<rect x="3.61111" y="30.759" width="1.80556" height="1.80556" fill="white"/>
<rect x="5.41666" y="30.759" width="1.80556" height="1.80556" fill="white"/>
<rect x="7.22223" y="30.759" width="1.80556" height="1.80556" fill="white"/>
<rect x="9.02777" y="30.759" width="1.80556" height="1.80556" fill="white"/>
<rect x="10.8333" y="30.759" width="1.80556" height="1.80556" fill="white"/>
<rect x="12.6389" y="30.759" width="1.80556" height="1.80556" fill="white"/>
<rect x="14.4445" y="30.759" width="1.80556" height="1.80556" fill="white"/>
<rect x="16.25" y="30.759" width="1.80556" height="1.80556" fill="white"/>
<rect x="18.0555" y="30.759" width="1.80556" height="1.80556" fill="white"/>
<rect x="19.8611" y="30.759" width="1.80556" height="1.80556" fill="white"/>
<rect x="21.6667" y="30.759" width="1.80556" height="1.80556" fill="white"/>
<rect x="45.1389" y="30.759" width="1.80556" height="1.80556" fill="white"/>
<rect x="46.9445" y="30.759" width="1.80556" height="1.80556" fill="white"/>
<rect x="48.75" y="30.759" width="1.80556" height="1.80556" fill="white"/>
<rect x="50.5555" y="30.759" width="1.80556" height="1.80556" fill="white"/>
<rect x="52.3611" y="30.759" width="1.80556" height="1.80556" fill="white"/>
<rect x="54.1667" y="30.759" width="1.80556" height="1.80556" fill="white"/>
<rect x="55.9722" y="30.759" width="1.80556" height="1.80556" fill="white"/>
<rect x="57.7778" y="30.759" width="1.80556" height="1.80556" fill="white"/>
<rect x="59.5833" y="30.759" width="1.80556" height="1.80556" fill="white"/>
<rect x="61.3889" y="30.759" width="1.80556" height="1.80556" fill="white"/>
<rect x="63.1945" y="30.759" width="1.80556" height="1.80556" fill="white"/>
<rect y="32.5646" width="1.80556" height="1.80556" fill="white"/>
<rect x="1.80554" y="32.5646" width="1.80556" height="1.80556" fill="white"/>
<rect x="3.61111" y="32.5646" width="1.80556" height="1.80556" fill="white"/>
<rect x="5.41666" y="32.5646" width="1.80556" height="1.80556" fill="white"/>
<rect x="7.22223" y="32.5646" width="1.80556" height="1.80556" fill="white"/>
<rect x="9.02777" y="32.5646" width="1.80556" height="1.80556" fill="white"/>
<rect x="10.8333" y="32.5646" width="1.80556" height="1.80556" fill="white"/>
<rect x="12.6389" y="32.5646" width="1.80556" height="1.80556" fill="white"/>
<rect x="14.4445" y="32.5646" width="1.80556" height="1.80556" fill="white"/>
<rect x="16.25" y="32.5646" width="1.80556" height="1.80556" fill="white"/>
<rect x="18.0555" y="32.5646" width="1.80556" height="1.80556" fill="white"/>
<rect x="25.2778" y="32.5646" width="1.80556" height="1.80556" fill="white"/>
<rect x="27.0833" y="32.5646" width="1.80556" height="1.80556" fill="white"/>
<rect x="28.8889" y="32.5646" width="1.80556" height="1.80556" fill="white"/>
<rect x="30.6945" y="32.5646" width="1.80556" height="1.80556" fill="white"/>
<rect x="32.5" y="32.5646" width="1.80556" height="1.80556" fill="white"/>
<rect x="34.3055" y="32.5646" width="1.80556" height="1.80556" fill="white"/>
<rect x="36.1111" y="32.5646" width="1.80556" height="1.80556" fill="white"/>
<rect x="37.9167" y="32.5646" width="1.80556" height="1.80556" fill="white"/>
<rect x="39.7222" y="32.5646" width="1.80556" height="1.80556" fill="white"/>
<rect x="41.5278" y="32.5646" width="1.80556" height="1.80556" fill="white"/>
<rect x="43.3333" y="32.5646" width="1.80556" height="1.80556" fill="white"/>
<rect x="45.1389" y="32.5646" width="1.80556" height="1.80556" fill="white"/>
<rect x="46.9445" y="32.5646" width="1.80556" height="1.80556" fill="white"/>
<rect x="48.75" y="32.5646" width="1.80556" height="1.80556" fill="white"/>
<rect x="50.5555" y="32.5646" width="1.80556" height="1.80556" fill="white"/>
<rect x="52.3611" y="32.5646" width="1.80556" height="1.80556" fill="white"/>
<rect x="54.1667" y="32.5646" width="1.80556" height="1.80556" fill="white"/>
<rect x="55.9722" y="32.5646" width="1.80556" height="1.80556" fill="white"/>
<rect x="57.7778" y="32.5646" width="1.80556" height="1.80556" fill="white"/>
<rect x="59.5833" y="32.5646" width="1.80556" height="1.80556" fill="white"/>
<rect x="61.3889" y="32.5646" width="1.80556" height="1.80556" fill="white"/>
<rect x="63.1945" y="32.5646" width="1.80556" height="1.80556" fill="white"/>
<rect y="34.3701" width="1.80556" height="1.80556" fill="white"/>
<rect x="1.80554" y="34.3701" width="1.80556" height="1.80556" fill="white"/>
<rect x="3.61111" y="34.3701" width="1.80556" height="1.80556" fill="white"/>
<rect x="5.41666" y="34.3701" width="1.80556" height="1.80556" fill="white"/>
<rect x="7.22223" y="34.3701" width="1.80556" height="1.80556" fill="white"/>
<rect x="9.02777" y="34.3701" width="1.80556" height="1.80556" fill="white"/>
<rect x="10.8333" y="34.3701" width="1.80556" height="1.80556" fill="white"/>
<rect x="12.6389" y="34.3701" width="1.80556" height="1.80556" fill="white"/>
<rect x="14.4445" y="34.3701" width="1.80556" height="1.80556" fill="white"/>
<rect x="16.25" y="34.3701" width="1.80556" height="1.80556" fill="white"/>
<rect x="21.6667" y="34.3701" width="1.80556" height="1.80556" fill="white"/>
<rect x="23.4722" y="34.3701" width="1.80556" height="1.80556" fill="white"/>
<rect x="25.2778" y="34.3701" width="1.80556" height="1.80556" fill="white"/>
<rect x="27.0833" y="34.3701" width="1.80556" height="1.80556" fill="white"/>
<rect x="28.8889" y="34.3701" width="1.80556" height="1.80556" fill="white"/>
<rect x="30.6945" y="34.3701" width="1.80556" height="1.80556" fill="white"/>
<rect x="32.5" y="34.3701" width="1.80556" height="1.80556" fill="white"/>
<rect x="34.3055" y="34.3701" width="1.80556" height="1.80556" fill="white"/>
<rect x="36.1111" y="34.3701" width="1.80556" height="1.80556" fill="white"/>
<rect x="37.9167" y="34.3701" width="1.80556" height="1.80556" fill="white"/>
<rect x="39.7222" y="34.3701" width="1.80556" height="1.80556" fill="white"/>
<rect x="41.5278" y="34.3701" width="1.80556" height="1.80556" fill="white"/>
<rect x="43.3333" y="34.3701" width="1.80556" height="1.80556" fill="white"/>
<rect x="45.1389" y="34.3701" width="1.80556" height="1.80556" fill="white"/>
<rect x="46.9445" y="34.3701" width="1.80556" height="1.80556" fill="white"/>
<rect x="48.75" y="34.3701" width="1.80556" height="1.80556" fill="white"/>
<rect x="50.5555" y="34.3701" width="1.80556" height="1.80556" fill="white"/>
<rect x="52.3611" y="34.3701" width="1.80556" height="1.80556" fill="white"/>
<rect x="54.1667" y="34.3701" width="1.80556" height="1.80556" fill="white"/>
<rect x="55.9722" y="34.3701" width="1.80556" height="1.80556" fill="white"/>
<rect x="57.7778" y="34.3701" width="1.80556" height="1.80556" fill="white"/>
<rect x="59.5833" y="34.3701" width="1.80556" height="1.80556" fill="white"/>
<rect x="61.3889" y="34.3701" width="1.80556" height="1.80556" fill="white"/>
<rect x="63.1945" y="34.3701" width="1.80556" height="1.80556" fill="white"/>
<rect y="36.1757" width="1.80556" height="1.80556" fill="white"/>
<rect x="1.80554" y="36.1757" width="1.80556" height="1.80556" fill="white"/>
<rect x="3.61111" y="36.1757" width="1.80556" height="1.80556" fill="white"/>
<rect x="5.41666" y="36.1757" width="1.80556" height="1.80556" fill="white"/>
<rect x="7.22223" y="36.1757" width="1.80556" height="1.80556" fill="white"/>
<rect x="9.02777" y="36.1757" width="1.80556" height="1.80556" fill="white"/>
<rect x="10.8333" y="36.1757" width="1.80556" height="1.80556" fill="white"/>
<rect x="12.6389" y="36.1757" width="1.80556" height="1.80556" fill="white"/>
<rect x="14.4445" y="36.1757" width="1.80556" height="1.80556" fill="white"/>
<rect x="19.8611" y="36.1757" width="1.80556" height="1.80556" fill="white"/>
<rect x="21.6667" y="36.1757" width="1.80556" height="1.80556" fill="white"/>
<rect x="23.4722" y="36.1757" width="1.80556" height="1.80556" fill="white"/>
<rect x="25.2778" y="36.1757" width="1.80556" height="1.80556" fill="white"/>
<rect x="27.0833" y="36.1757" width="1.80556" height="1.80556" fill="white"/>
<rect x="28.8889" y="36.1757" width="1.80556" height="1.80556" fill="white"/>
<rect x="30.6945" y="36.1757" width="1.80556" height="1.80556" fill="white"/>
<rect x="32.5" y="36.1757" width="1.80556" height="1.80556" fill="white"/>
<rect x="34.3055" y="36.1757" width="1.80556" height="1.80556" fill="white"/>
<rect x="36.1111" y="36.1757" width="1.80556" height="1.80556" fill="white"/>
<rect x="37.9167" y="36.1757" width="1.80556" height="1.80556" fill="white"/>
<rect x="39.7222" y="36.1757" width="1.80556" height="1.80556" fill="white"/>
<rect x="41.5278" y="36.1757" width="1.80556" height="1.80556" fill="white"/>
<rect x="43.3333" y="36.1757" width="1.80556" height="1.80556" fill="white"/>
<rect x="45.1389" y="36.1757" width="1.80556" height="1.80556" fill="white"/>
<rect x="46.9445" y="36.1757" width="1.80556" height="1.80556" fill="white"/>
<rect x="48.75" y="36.1757" width="1.80556" height="1.80556" fill="white"/>
<rect x="50.5555" y="36.1757" width="1.80556" height="1.80556" fill="white"/>
<rect x="52.3611" y="36.1757" width="1.80556" height="1.80556" fill="white"/>
<rect x="54.1667" y="36.1757" width="1.80556" height="1.80556" fill="white"/>
<rect x="55.9722" y="36.1757" width="1.80556" height="1.80556" fill="white"/>
<rect x="57.7778" y="36.1757" width="1.80556" height="1.80556" fill="white"/>
<rect x="59.5833" y="36.1757" width="1.80556" height="1.80556" fill="white"/>
<rect x="61.3889" y="36.1757" width="1.80556" height="1.80556" fill="white"/>
<rect x="63.1945" y="36.1757" width="1.80556" height="1.80556" fill="white"/>
<rect y="37.9812" width="1.80556" height="1.80556" fill="white"/>
<rect x="1.80554" y="37.9812" width="1.80556" height="1.80556" fill="white"/>
<rect x="3.61111" y="37.9812" width="1.80556" height="1.80556" fill="white"/>
<rect x="5.41666" y="37.9812" width="1.80556" height="1.80556" fill="white"/>
<rect x="7.22223" y="37.9812" width="1.80556" height="1.80556" fill="white"/>
<rect x="9.02777" y="37.9812" width="1.80556" height="1.80556" fill="white"/>
<rect x="10.8333" y="37.9812" width="1.80556" height="1.80556" fill="white"/>
<rect x="12.6389" y="37.9812" width="1.80556" height="1.80556" fill="white"/>
<rect x="14.4445" y="37.9812" width="1.80556" height="1.80556" fill="white"/>
<rect x="18.0555" y="37.9812" width="1.80556" height="1.80556" fill="white"/>
<rect x="19.8611" y="37.9812" width="1.80556" height="1.80556" fill="white"/>
<rect x="21.6667" y="37.9812" width="1.80556" height="1.80556" fill="white"/>
<rect x="23.4722" y="37.9812" width="1.80556" height="1.80556" fill="white"/>
<rect x="25.2778" y="37.9812" width="1.80556" height="1.80556" fill="white"/>
<rect x="27.0833" y="37.9812" width="1.80556" height="1.80556" fill="white"/>
<rect x="28.8889" y="37.9812" width="1.80556" height="1.80556" fill="white"/>
<rect x="30.6945" y="37.9812" width="1.80556" height="1.80556" fill="white"/>
<rect x="32.5" y="37.9812" width="1.80556" height="1.80556" fill="white"/>
<rect x="34.3055" y="37.9812" width="1.80556" height="1.80556" fill="white"/>
<rect x="36.1111" y="37.9812" width="1.80556" height="1.80556" fill="white"/>
<rect x="37.9167" y="37.9812" width="1.80556" height="1.80556" fill="white"/>
<rect x="39.7222" y="37.9812" width="1.80556" height="1.80556" fill="white"/>
<rect x="41.5278" y="37.9812" width="1.80556" height="1.80556" fill="white"/>
<rect x="43.3333" y="37.9812" width="1.80556" height="1.80556" fill="white"/>
<rect x="45.1389" y="37.9812" width="1.80556" height="1.80556" fill="white"/>
<rect x="46.9445" y="37.9812" width="1.80556" height="1.80556" fill="white"/>
<rect x="48.75" y="37.9812" width="1.80556" height="1.80556" fill="white"/>
<rect x="50.5555" y="37.9812" width="1.80556" height="1.80556" fill="white"/>
<rect x="52.3611" y="37.9812" width="1.80556" height="1.80556" fill="white"/>
<rect x="54.1667" y="37.9812" width="1.80556" height="1.80556" fill="white"/>
<rect x="55.9722" y="37.9812" width="1.80556" height="1.80556" fill="white"/>
<rect x="57.7778" y="37.9812" width="1.80556" height="1.80556" fill="white"/>
<rect x="59.5833" y="37.9812" width="1.80556" height="1.80556" fill="white"/>
<rect x="61.3889" y="37.9812" width="1.80556" height="1.80556" fill="white"/>
<rect x="63.1945" y="37.9812" width="1.80556" height="1.80556" fill="white"/>
<rect x="1.80554" y="39.7867" width="1.80556" height="1.80556" fill="white"/>
<rect x="3.61111" y="39.7867" width="1.80556" height="1.80556" fill="white"/>
<rect x="5.41666" y="39.7867" width="1.80556" height="1.80556" fill="white"/>
<rect x="7.22223" y="39.7867" width="1.80556" height="1.80556" fill="white"/>
<rect x="9.02777" y="39.7867" width="1.80556" height="1.80556" fill="white"/>
<rect x="10.8333" y="39.7867" width="1.80556" height="1.80556" fill="white"/>
<rect x="12.6389" y="39.7867" width="1.80556" height="1.80556" fill="white"/>
<rect x="14.4445" y="39.7867" width="1.80556" height="1.80556" fill="white"/>
<rect x="18.0555" y="39.7867" width="1.80556" height="1.80556" fill="white"/>
<rect x="19.8611" y="39.7867" width="1.80556" height="1.80556" fill="white"/>
<rect x="21.6667" y="39.7867" width="1.80556" height="1.80556" fill="white"/>
<rect x="23.4722" y="39.7867" width="1.80556" height="1.80556" fill="white"/>
<rect x="25.2778" y="39.7867" width="1.80556" height="1.80556" fill="white"/>
<rect x="27.0833" y="39.7867" width="1.80556" height="1.80556" fill="white"/>
<rect x="28.8889" y="39.7867" width="1.80556" height="1.80556" fill="white"/>
<rect x="30.6945" y="39.7867" width="1.80556" height="1.80556" fill="white"/>
<rect x="32.5" y="39.7867" width="1.80556" height="1.80556" fill="white"/>
<rect x="34.3055" y="39.7867" width="1.80556" height="1.80556" fill="white"/>
<rect x="36.1111" y="39.7867" width="1.80556" height="1.80556" fill="white"/>
<rect x="37.9167" y="39.7867" width="1.80556" height="1.80556" fill="white"/>
<rect x="39.7222" y="39.7867" width="1.80556" height="1.80556" fill="white"/>
<rect x="41.5278" y="39.7867" width="1.80556" height="1.80556" fill="white"/>
<rect x="43.3333" y="39.7867" width="1.80556" height="1.80556" fill="white"/>
<rect x="45.1389" y="39.7867" width="1.80556" height="1.80556" fill="white"/>
<rect x="46.9445" y="39.7867" width="1.80556" height="1.80556" fill="white"/>
<rect x="48.75" y="39.7867" width="1.80556" height="1.80556" fill="white"/>
<rect x="50.5555" y="39.7867" width="1.80556" height="1.80556" fill="white"/>
<rect x="52.3611" y="39.7867" width="1.80556" height="1.80556" fill="white"/>
<rect x="54.1667" y="39.7867" width="1.80556" height="1.80556" fill="white"/>
<rect x="55.9722" y="39.7867" width="1.80556" height="1.80556" fill="white"/>
<rect x="57.7778" y="39.7867" width="1.80556" height="1.80556" fill="white"/>
<rect x="59.5833" y="39.7867" width="1.80556" height="1.80556" fill="white"/>
<rect x="61.3889" y="39.7867" width="1.80556" height="1.80556" fill="white"/>
<rect x="63.1945" y="39.7867" width="1.80556" height="1.80556" fill="white"/>
<rect x="1.80554" y="41.5924" width="1.80556" height="1.80556" fill="white"/>
<rect x="3.61111" y="41.5924" width="1.80556" height="1.80556" fill="white"/>
<rect x="5.41666" y="41.5924" width="1.80556" height="1.80556" fill="white"/>
<rect x="7.22223" y="41.5924" width="1.80556" height="1.80556" fill="white"/>
<rect x="9.02777" y="41.5924" width="1.80556" height="1.80556" fill="white"/>
<rect x="10.8333" y="41.5924" width="1.80556" height="1.80556" fill="white"/>
<rect x="12.6389" y="41.5924" width="1.80556" height="1.80556" fill="white"/>
<rect x="14.4445" y="41.5924" width="1.80556" height="1.80556" fill="white"/>
<rect x="18.0555" y="41.5924" width="1.80556" height="1.80556" fill="white"/>
<rect x="19.8611" y="41.5924" width="1.80556" height="1.80556" fill="white"/>
<rect x="21.6667" y="41.5924" width="1.80556" height="1.80556" fill="white"/>
<rect x="23.4722" y="41.5924" width="1.80556" height="1.80556" fill="white"/>
<rect x="25.2778" y="41.5924" width="1.80556" height="1.80556" fill="white"/>
<rect x="27.0833" y="41.5924" width="1.80556" height="1.80556" fill="white"/>
<rect x="28.8889" y="41.5924" width="1.80556" height="1.80556" fill="white"/>
<rect x="30.6945" y="41.5924" width="1.80556" height="1.80556" fill="white"/>
<rect x="32.5" y="41.5924" width="1.80556" height="1.80556" fill="white"/>
<rect x="34.3055" y="41.5924" width="1.80556" height="1.80556" fill="white"/>
<rect x="36.1111" y="41.5924" width="1.80556" height="1.80556" fill="white"/>
<rect x="37.9167" y="41.5924" width="1.80556" height="1.80556" fill="white"/>
<rect x="39.7222" y="41.5924" width="1.80556" height="1.80556" fill="white"/>
<rect x="41.5278" y="41.5924" width="1.80556" height="1.80556" fill="white"/>
<rect x="43.3333" y="41.5924" width="1.80556" height="1.80556" fill="white"/>
<rect x="45.1389" y="41.5924" width="1.80556" height="1.80556" fill="white"/>
<rect x="46.9445" y="41.5924" width="1.80556" height="1.80556" fill="white"/>
<rect x="48.75" y="41.5924" width="1.80556" height="1.80556" fill="white"/>
<rect x="50.5555" y="41.5924" width="1.80556" height="1.80556" fill="white"/>
<rect x="52.3611" y="41.5924" width="1.80556" height="1.80556" fill="white"/>
<rect x="54.1667" y="41.5924" width="1.80556" height="1.80556" fill="white"/>
<rect x="55.9722" y="41.5924" width="1.80556" height="1.80556" fill="white"/>
<rect x="57.7778" y="41.5924" width="1.80556" height="1.80556" fill="white"/>
<rect x="59.5833" y="41.5924" width="1.80556" height="1.80556" fill="white"/>
<rect x="61.3889" y="41.5924" width="1.80556" height="1.80556" fill="white"/>
<rect x="63.1945" y="41.5924" width="1.80556" height="1.80556" fill="white"/>
<rect x="3.61111" y="43.3979" width="1.80556" height="1.80556" fill="white"/>
<rect x="5.41666" y="43.3979" width="1.80556" height="1.80556" fill="white"/>
<rect x="7.22223" y="43.3979" width="1.80556" height="1.80556" fill="white"/>
<rect x="9.02777" y="43.3979" width="1.80556" height="1.80556" fill="white"/>
<rect x="10.8333" y="43.3979" width="1.80556" height="1.80556" fill="white"/>
<rect x="12.6389" y="43.3979" width="1.80556" height="1.80556" fill="white"/>
<rect x="14.4445" y="43.3979" width="1.80556" height="1.80556" fill="white"/>
<rect x="18.0555" y="43.3979" width="1.80556" height="1.80556" fill="white"/>
<rect x="19.8611" y="43.3979" width="1.80556" height="1.80556" fill="white"/>
<rect x="21.6667" y="43.3979" width="1.80556" height="1.80556" fill="white"/>
<rect x="23.4722" y="43.3979" width="1.80556" height="1.80556" fill="white"/>
<rect x="25.2778" y="43.3979" width="1.80556" height="1.80556" fill="white"/>
<rect x="27.0833" y="43.3979" width="1.80556" height="1.80556" fill="white"/>
<rect x="28.8889" y="43.3979" width="1.80556" height="1.80556" fill="white"/>
<rect x="30.6945" y="43.3979" width="1.80556" height="1.80556" fill="white"/>
<rect x="32.5" y="43.3979" width="1.80556" height="1.80556" fill="white"/>
<rect x="34.3055" y="43.3979" width="1.80556" height="1.80556" fill="white"/>
<rect x="36.1111" y="43.3979" width="1.80556" height="1.80556" fill="white"/>
<rect x="37.9167" y="43.3979" width="1.80556" height="1.80556" fill="white"/>
<rect x="39.7222" y="43.3979" width="1.80556" height="1.80556" fill="white"/>
<rect x="41.5278" y="43.3979" width="1.80556" height="1.80556" fill="white"/>
<rect x="43.3333" y="43.3979" width="1.80556" height="1.80556" fill="white"/>
<rect x="45.1389" y="43.3979" width="1.80556" height="1.80556" fill="white"/>
<rect x="46.9445" y="43.3979" width="1.80556" height="1.80556" fill="white"/>
<rect x="48.75" y="43.3979" width="1.80556" height="1.80556" fill="white"/>
<rect x="50.5555" y="43.3979" width="1.80556" height="1.80556" fill="white"/>
<rect x="52.3611" y="43.3979" width="1.80556" height="1.80556" fill="white"/>
<rect x="54.1667" y="43.3979" width="1.80556" height="1.80556" fill="white"/>
<rect x="55.9722" y="43.3979" width="1.80556" height="1.80556" fill="white"/>
<rect x="57.7778" y="43.3979" width="1.80556" height="1.80556" fill="white"/>
<rect x="59.5833" y="43.3979" width="1.80556" height="1.80556" fill="white"/>
<rect x="61.3889" y="43.3979" width="1.80556" height="1.80556" fill="white"/>
<rect x="5.41666" y="45.2035" width="1.80556" height="1.80556" fill="white"/>
<rect x="7.22223" y="45.2035" width="1.80556" height="1.80556" fill="white"/>
<rect x="9.02777" y="45.2035" width="1.80556" height="1.80556" fill="white"/>
<rect x="10.8333" y="45.2035" width="1.80556" height="1.80556" fill="white"/>
<rect x="12.6389" y="45.2035" width="1.80556" height="1.80556" fill="white"/>
<rect x="14.4445" y="45.2035" width="1.80556" height="1.80556" fill="white"/>
<rect x="18.0555" y="45.2035" width="1.80556" height="1.80556" fill="white"/>
<rect x="19.8611" y="45.2035" width="1.80556" height="1.80556" fill="white"/>
<rect x="21.6667" y="45.2035" width="1.80556" height="1.80556" fill="white"/>
<rect x="23.4722" y="45.2035" width="1.80556" height="1.80556" fill="white"/>
<rect x="25.2778" y="45.2035" width="1.80556" height="1.80556" fill="white"/>
<rect x="27.0833" y="45.2035" width="1.80556" height="1.80556" fill="white"/>
<rect x="28.8889" y="45.2035" width="1.80556" height="1.80556" fill="white"/>
<rect x="30.6945" y="45.2035" width="1.80556" height="1.80556" fill="white"/>
<rect x="32.5" y="45.2035" width="1.80556" height="1.80556" fill="white"/>
<rect x="34.3055" y="45.2035" width="1.80556" height="1.80556" fill="white"/>
<rect x="36.1111" y="45.2035" width="1.80556" height="1.80556" fill="white"/>
<rect x="37.9167" y="45.2035" width="1.80556" height="1.80556" fill="white"/>
<rect x="39.7222" y="45.2035" width="1.80556" height="1.80556" fill="white"/>
<rect x="41.5278" y="45.2035" width="1.80556" height="1.80556" fill="white"/>
<rect x="43.3333" y="45.2035" width="1.80556" height="1.80556" fill="white"/>
<rect x="45.1389" y="45.2035" width="1.80556" height="1.80556" fill="white"/>
<rect x="46.9445" y="45.2035" width="1.80556" height="1.80556" fill="white"/>
<rect x="48.75" y="45.2035" width="1.80556" height="1.80556" fill="white"/>
<rect x="50.5555" y="45.2035" width="1.80556" height="1.80556" fill="white"/>
<rect x="52.3611" y="45.2035" width="1.80556" height="1.80556" fill="white"/>
<rect x="54.1667" y="45.2035" width="1.80556" height="1.80556" fill="white"/>
<rect x="55.9722" y="45.2035" width="1.80556" height="1.80556" fill="white"/>
<rect x="57.7778" y="45.2035" width="1.80556" height="1.80556" fill="white"/>
<rect x="59.5833" y="45.2035" width="1.80556" height="1.80556" fill="white"/>
<rect x="61.3889" y="45.2035" width="1.80556" height="1.80556" fill="white"/>
<rect x="18.0555" y="47.009" width="1.80556" height="1.80556" fill="white"/>
<rect x="19.8611" y="47.009" width="1.80556" height="1.80556" fill="white"/>
<rect x="21.6667" y="47.009" width="1.80556" height="1.80556" fill="white"/>
<rect x="23.4722" y="47.009" width="1.80556" height="1.80556" fill="white"/>
<rect x="25.2778" y="47.009" width="1.80556" height="1.80556" fill="white"/>
<rect x="27.0833" y="47.009" width="1.80556" height="1.80556" fill="white"/>
<rect x="28.8889" y="47.009" width="1.80556" height="1.80556" fill="white"/>
<rect x="30.6945" y="47.009" width="1.80556" height="1.80556" fill="white"/>
<rect x="32.5" y="47.009" width="1.80556" height="1.80556" fill="white"/>
<rect x="34.3055" y="47.009" width="1.80556" height="1.80556" fill="white"/>
<rect x="36.1111" y="47.009" width="1.80556" height="1.80556" fill="white"/>
<rect x="37.9167" y="47.009" width="1.80556" height="1.80556" fill="white"/>
<rect x="39.7222" y="47.009" width="1.80556" height="1.80556" fill="white"/>
<rect x="41.5278" y="47.009" width="1.80556" height="1.80556" fill="white"/>
<rect x="43.3333" y="47.009" width="1.80556" height="1.80556" fill="white"/>
<rect x="45.1389" y="47.009" width="1.80556" height="1.80556" fill="white"/>
<rect x="46.9445" y="47.009" width="1.80556" height="1.80556" fill="white"/>
<rect x="48.75" y="47.009" width="1.80556" height="1.80556" fill="white"/>
<rect x="50.5555" y="47.009" width="1.80556" height="1.80556" fill="white"/>
<rect x="52.3611" y="47.009" width="1.80556" height="1.80556" fill="white"/>
<rect x="54.1667" y="47.009" width="1.80556" height="1.80556" fill="white"/>
<rect x="55.9722" y="47.009" width="1.80556" height="1.80556" fill="white"/>
<rect x="57.7778" y="47.009" width="1.80556" height="1.80556" fill="white"/>
<rect x="59.5833" y="47.009" width="1.80556" height="1.80556" fill="white"/>
<rect x="18.0555" y="48.8146" width="1.80556" height="1.80556" fill="white"/>
<rect x="19.8611" y="48.8146" width="1.80556" height="1.80556" fill="white"/>
<rect x="21.6667" y="48.8146" width="1.80556" height="1.80556" fill="white"/>
<rect x="23.4722" y="48.8146" width="1.80556" height="1.80556" fill="white"/>
<rect x="25.2778" y="48.8146" width="1.80556" height="1.80556" fill="white"/>
<rect x="27.0833" y="48.8146" width="1.80556" height="1.80556" fill="white"/>
<rect x="28.8889" y="48.8146" width="1.80556" height="1.80556" fill="white"/>
<rect x="30.6945" y="48.8146" width="1.80556" height="1.80556" fill="white"/>
<rect x="32.5" y="48.8146" width="1.80556" height="1.80556" fill="white"/>
<rect x="34.3055" y="48.8146" width="1.80556" height="1.80556" fill="white"/>
<rect x="36.1111" y="48.8146" width="1.80556" height="1.80556" fill="white"/>
<rect x="37.9167" y="48.8146" width="1.80556" height="1.80556" fill="white"/>
<rect x="39.7222" y="48.8146" width="1.80556" height="1.80556" fill="white"/>
<rect x="41.5278" y="48.8146" width="1.80556" height="1.80556" fill="white"/>
<rect x="43.3333" y="48.8146" width="1.80556" height="1.80556" fill="white"/>
<rect x="45.1389" y="48.8146" width="1.80556" height="1.80556" fill="white"/>
<rect x="46.9445" y="48.8146" width="1.80556" height="1.80556" fill="white"/>
<rect x="48.75" y="48.8146" width="1.80556" height="1.80556" fill="white"/>
<rect x="50.5555" y="48.8146" width="1.80556" height="1.80556" fill="white"/>
<rect x="52.3611" y="48.8146" width="1.80556" height="1.80556" fill="white"/>
<rect x="54.1667" y="48.8146" width="1.80556" height="1.80556" fill="white"/>
<rect x="55.9722" y="48.8146" width="1.80556" height="1.80556" fill="white"/>
<rect x="18.0555" y="50.6201" width="1.80556" height="1.80556" fill="white"/>
<rect x="19.8611" y="50.6201" width="1.80556" height="1.80556" fill="white"/>
<rect x="21.6667" y="50.6201" width="1.80556" height="1.80556" fill="white"/>
<rect x="23.4722" y="50.6201" width="1.80556" height="1.80556" fill="white"/>
<rect x="25.2778" y="50.6201" width="1.80556" height="1.80556" fill="white"/>
<rect x="27.0833" y="50.6201" width="1.80556" height="1.80556" fill="white"/>
<rect x="28.8889" y="50.6201" width="1.80556" height="1.80556" fill="white"/>
<rect x="30.6945" y="50.6201" width="1.80556" height="1.80556" fill="white"/>
<rect x="32.5" y="50.6201" width="1.80556" height="1.80556" fill="white"/>
<rect x="34.3055" y="50.6201" width="1.80556" height="1.80556" fill="white"/>
<rect x="18.0555" y="52.4257" width="1.80556" height="1.80556" fill="white"/>
<rect x="19.8611" y="52.4257" width="1.80556" height="1.80556" fill="white"/>
<rect x="21.6667" y="52.4257" width="1.80556" height="1.80556" fill="white"/>
<rect x="23.4722" y="52.4257" width="1.80556" height="1.80556" fill="white"/>
<rect x="25.2778" y="52.4257" width="1.80556" height="1.80556" fill="white"/>
<rect x="27.0833" y="52.4257" width="1.80556" height="1.80556" fill="white"/>
<rect x="28.8889" y="52.4257" width="1.80556" height="1.80556" fill="white"/>
<rect x="30.6945" y="52.4257" width="1.80556" height="1.80556" fill="white"/>
<rect x="32.5" y="52.4257" width="1.80556" height="1.80556" fill="white"/>
<rect x="34.3055" y="52.4257" width="1.80556" height="1.80556" fill="white"/>
<rect x="36.1111" y="52.4257" width="1.80556" height="1.80556" fill="white"/>
<rect x="37.9167" y="52.4257" width="1.80556" height="1.80556" fill="white"/>
<rect x="39.7222" y="52.4257" width="1.80556" height="1.80556" fill="white"/>
<rect x="41.5278" y="52.4257" width="1.80556" height="1.80556" fill="white"/>
<rect x="43.3333" y="52.4257" width="1.80556" height="1.80556" fill="white"/>
<rect x="45.1389" y="52.4257" width="1.80556" height="1.80556" fill="white"/>
<rect x="46.9445" y="52.4257" width="1.80556" height="1.80556" fill="white"/>
<rect x="48.75" y="52.4257" width="1.80556" height="1.80556" fill="white"/>
<rect x="18.0555" y="54.2312" width="1.80556" height="1.80556" fill="white"/>
<rect x="19.8611" y="54.2312" width="1.80556" height="1.80556" fill="white"/>
<rect x="21.6667" y="54.2312" width="1.80556" height="1.80556" fill="white"/>
<rect x="23.4722" y="54.2312" width="1.80556" height="1.80556" fill="white"/>
<rect x="25.2778" y="54.2312" width="1.80556" height="1.80556" fill="white"/>
<rect x="27.0833" y="54.2312" width="1.80556" height="1.80556" fill="white"/>
<rect x="28.8889" y="54.2312" width="1.80556" height="1.80556" fill="white"/>
<rect x="30.6945" y="54.2312" width="1.80556" height="1.80556" fill="white"/>
<rect x="32.5" y="54.2312" width="1.80556" height="1.80556" fill="white"/>
<rect x="34.3055" y="54.2312" width="1.80556" height="1.80556" fill="white"/>
<rect x="36.1111" y="54.2312" width="1.80556" height="1.80556" fill="white"/>
<rect x="37.9167" y="54.2312" width="1.80556" height="1.80556" fill="white"/>
<rect x="39.7222" y="54.2312" width="1.80556" height="1.80556" fill="white"/>
<rect x="41.5278" y="54.2312" width="1.80556" height="1.80556" fill="white"/>
<rect x="43.3333" y="54.2312" width="1.80556" height="1.80556" fill="white"/>
<rect x="45.1389" y="54.2312" width="1.80556" height="1.80556" fill="white"/>
<rect x="46.9445" y="54.2312" width="1.80556" height="1.80556" fill="white"/>
<rect x="48.75" y="54.2312" width="1.80556" height="1.80556" fill="white"/>
<rect x="18.0555" y="56.0367" width="1.80556" height="1.80556" fill="white"/>
<rect x="19.8611" y="56.0367" width="1.80556" height="1.80556" fill="white"/>
<rect x="21.6667" y="56.0367" width="1.80556" height="1.80556" fill="white"/>
<rect x="23.4722" y="56.0367" width="1.80556" height="1.80556" fill="white"/>
<rect x="25.2778" y="56.0367" width="1.80556" height="1.80556" fill="white"/>
<rect x="27.0833" y="56.0367" width="1.80556" height="1.80556" fill="white"/>
<rect x="28.8889" y="56.0367" width="1.80556" height="1.80556" fill="white"/>
<rect x="30.6945" y="56.0367" width="1.80556" height="1.80556" fill="white"/>
<rect x="32.5" y="56.0367" width="1.80556" height="1.80556" fill="white"/>
<rect x="34.3055" y="56.0367" width="1.80556" height="1.80556" fill="white"/>
<rect x="36.1111" y="56.0367" width="1.80556" height="1.80556" fill="white"/>
<rect x="37.9167" y="56.0367" width="1.80556" height="1.80556" fill="white"/>
<rect x="43.3333" y="56.0367" width="1.80556" height="1.80556" fill="white"/>
<rect x="45.1389" y="56.0367" width="1.80556" height="1.80556" fill="white"/>
<rect x="46.9445" y="56.0367" width="1.80556" height="1.80556" fill="white"/>
<rect x="48.75" y="56.0367" width="1.80556" height="1.80556" fill="white"/>
<rect x="18.0555" y="57.8424" width="1.80556" height="1.80556" fill="white"/>
<rect x="19.8611" y="57.8424" width="1.80556" height="1.80556" fill="white"/>
<rect x="21.6667" y="57.8424" width="1.80556" height="1.80556" fill="white"/>
<rect x="23.4722" y="57.8424" width="1.80556" height="1.80556" fill="white"/>
<rect x="25.2778" y="57.8424" width="1.80556" height="1.80556" fill="white"/>
<rect x="27.0833" y="57.8424" width="1.80556" height="1.80556" fill="white"/>
<rect x="28.8889" y="57.8424" width="1.80556" height="1.80556" fill="white"/>
<rect x="30.6945" y="57.8424" width="1.80556" height="1.80556" fill="white"/>
<rect x="32.5" y="57.8424" width="1.80556" height="1.80556" fill="white"/>
<rect x="34.3055" y="57.8424" width="1.80556" height="1.80556" fill="white"/>
<rect x="36.1111" y="57.8424" width="1.80556" height="1.80556" fill="white"/>
<rect x="43.3333" y="57.8424" width="1.80556" height="1.80556" fill="white"/>
<rect x="45.1389" y="57.8424" width="1.80556" height="1.80556" fill="white"/>
<rect x="46.9445" y="57.8424" width="1.80556" height="1.80556" fill="white"/>
<rect x="19.8611" y="59.6479" width="1.80556" height="1.80556" fill="white"/>
<rect x="21.6667" y="59.6479" width="1.80556" height="1.80556" fill="white"/>
<rect x="23.4722" y="59.6479" width="1.80556" height="1.80556" fill="white"/>
<rect x="25.2778" y="59.6479" width="1.80556" height="1.80556" fill="white"/>
<rect x="27.0833" y="59.6479" width="1.80556" height="1.80556" fill="white"/>
<rect x="28.8889" y="59.6479" width="1.80556" height="1.80556" fill="white"/>
<rect x="30.6945" y="59.6479" width="1.80556" height="1.80556" fill="white"/>
<rect x="32.5" y="59.6479" width="1.80556" height="1.80556" fill="white"/>
<rect x="34.3055" y="59.6479" width="1.80556" height="1.80556" fill="white"/>
<rect x="36.1111" y="59.6479" width="1.80556" height="1.80556" fill="white"/>
<rect x="37.9167" y="59.6479" width="1.80556" height="1.80556" fill="white"/>
<rect x="43.3333" y="59.6479" width="1.80556" height="1.80556" fill="white"/>
<rect x="45.1389" y="59.6479" width="1.80556" height="1.80556" fill="white"/>
<rect x="46.9445" y="59.6479" width="1.80556" height="1.80556" fill="white"/>
<rect x="21.6667" y="61.4535" width="1.80556" height="1.80556" fill="white"/>
<rect x="23.4722" y="61.4535" width="1.80556" height="1.80556" fill="white"/>
<rect x="25.2778" y="61.4535" width="1.80556" height="1.80556" fill="white"/>
<rect x="27.0833" y="61.4535" width="1.80556" height="1.80556" fill="white"/>
<rect x="28.8889" y="61.4535" width="1.80556" height="1.80556" fill="white"/>
<rect x="30.6945" y="61.4535" width="1.80556" height="1.80556" fill="white"/>
<rect x="32.5" y="61.4535" width="1.80556" height="1.80556" fill="white"/>
<rect x="34.3055" y="61.4535" width="1.80556" height="1.80556" fill="white"/>
<rect x="36.1111" y="61.4535" width="1.80556" height="1.80556" fill="white"/>
<rect x="37.9167" y="61.4535" width="1.80556" height="1.80556" fill="white"/>
<rect x="39.7222" y="61.4535" width="1.80556" height="1.80556" fill="white"/>
<rect x="41.5278" y="61.4535" width="1.80556" height="1.80556" fill="white"/>
<rect x="43.3333" y="61.4535" width="1.80556" height="1.80556" fill="white"/>
<rect x="45.1389" y="61.4535" width="1.80556" height="1.80556" fill="white"/>
<rect x="23.4722" y="63.259" width="1.80556" height="1.80556" fill="white"/>
<rect x="25.2778" y="63.259" width="1.80556" height="1.80556" fill="white"/>
<rect x="27.0833" y="63.259" width="1.80556" height="1.80556" fill="white"/>
<rect x="28.8889" y="63.259" width="1.80556" height="1.80556" fill="white"/>
<rect x="30.6945" y="63.259" width="1.80556" height="1.80556" fill="white"/>
<rect x="32.5" y="63.259" width="1.80556" height="1.80556" fill="white"/>
<rect x="34.3055" y="63.259" width="1.80556" height="1.80556" fill="white"/>
<rect x="36.1111" y="63.259" width="1.80556" height="1.80556" fill="white"/>
<rect x="37.9167" y="63.259" width="1.80556" height="1.80556" fill="white"/>
<rect x="39.7222" y="63.259" width="1.80556" height="1.80556" fill="white"/>
<rect x="41.5278" y="63.259" width="1.80556" height="1.80556" fill="white"/>
<rect x="32.5" y="65.0646" width="1.80556" height="1.80556" fill="white"/>
<rect x="34.3055" y="65.0646" width="1.80556" height="1.80556" fill="white"/>
</svg>
