<svg width="176" height="62" viewBox="0 0 176 62" fill="none" xmlns="http://www.w3.org/2000/svg">
<rect x="17.9306" y="0.556702" width="2.24139" height="2.24139" fill="white"/>
<rect x="20.1737" y="0.556702" width="2.24139" height="2.24139" fill="white"/>
<rect x="42.5869" y="0.556702" width="2.24139" height="2.24139" fill="white"/>
<rect x="44.8264" y="0.556702" width="2.24139" height="2.24139" fill="white"/>
<rect x="13.4478" y="2.79803" width="2.24139" height="2.24139" fill="white"/>
<rect x="15.6906" y="2.79803" width="2.24139" height="2.24139" fill="white"/>
<rect x="17.9306" y="2.79803" width="2.24139" height="2.24139" fill="white"/>
<rect x="20.1737" y="2.79803" width="2.24139" height="2.24139" fill="white"/>
<rect x="22.4134" y="2.79803" width="2.24139" height="2.24139" fill="white"/>
<rect x="24.6566" y="2.79803" width="2.24139" height="2.24139" fill="white"/>
<rect x="38.1041" y="2.79803" width="2.24139" height="2.24139" fill="white"/>
<rect x="40.3441" y="2.79803" width="2.24139" height="2.24139" fill="white"/>
<rect x="42.5869" y="2.79803" width="2.24139" height="2.24139" fill="white"/>
<rect x="44.8264" y="2.79803" width="2.24139" height="2.24139" fill="white"/>
<rect x="47.0697" y="2.79803" width="2.24139" height="2.24139" fill="white"/>
<rect x="49.3095" y="2.79803" width="2.24139" height="2.24139" fill="white"/>
<rect x="13.4478" y="5.03931" width="2.24139" height="2.24139" fill="white"/>
<rect x="24.6566" y="5.03931" width="2.24139" height="2.24139" fill="white"/>
<rect x="26.8961" y="5.03931" width="2.24139" height="2.24139" fill="white"/>
<rect x="35.8615" y="5.03931" width="2.24139" height="2.24139" fill="white"/>
<rect x="38.1041" y="5.03931" width="2.24139" height="2.24139" fill="white"/>
<rect x="49.3095" y="5.03931" width="2.24139" height="2.24139" fill="white"/>
<rect x="11.2076" y="7.2807" width="2.24139" height="2.24139" fill="white"/>
<rect x="13.4478" y="7.2807" width="2.24139" height="2.24139" fill="white"/>
<rect x="26.8961" y="7.2807" width="2.24139" height="2.24139" fill="white"/>
<rect x="29.1389" y="7.2807" width="2.24139" height="2.24139" fill="white"/>
<rect x="33.6217" y="7.2807" width="2.24139" height="2.24139" fill="white"/>
<rect x="35.8615" y="7.2807" width="2.24139" height="2.24139" fill="white"/>
<rect x="49.3095" y="7.2807" width="2.24139" height="2.24139" fill="white"/>
<rect x="51.5526" y="7.2807" width="2.24139" height="2.24139" fill="white"/>
<rect x="11.2076" y="9.52209" width="2.24139" height="2.24139" fill="white"/>
<rect x="13.4478" y="9.52209" width="2.24139" height="2.24139" fill="white"/>
<rect x="31.3786" y="9.52209" width="2.24139" height="2.24139" fill="white"/>
<rect x="49.3095" y="9.52209" width="2.24139" height="2.24139" fill="white"/>
<rect x="51.5526" y="9.52209" width="2.24139" height="2.24139" fill="white"/>
<rect x="11.2076" y="11.7635" width="2.24139" height="2.24139" fill="white"/>
<rect x="13.4478" y="11.7635" width="2.24139" height="2.24139" fill="white"/>
<rect x="29.1389" y="11.7635" width="2.24139" height="2.24139" fill="white"/>
<rect x="31.3786" y="11.7635" width="2.24139" height="2.24139" fill="white"/>
<rect x="33.6217" y="11.7635" width="2.24139" height="2.24139" fill="white"/>
<rect x="49.3095" y="11.7635" width="2.24139" height="2.24139" fill="white"/>
<rect x="51.5526" y="11.7635" width="2.24139" height="2.24139" fill="white"/>
<rect x="13.4478" y="14.0049" width="2.24139" height="2.24139" fill="white"/>
<rect x="26.8961" y="14.0049" width="2.24139" height="2.24139" fill="white"/>
<rect x="29.1389" y="14.0049" width="2.24139" height="2.24139" fill="white"/>
<rect x="33.6217" y="14.0049" width="2.24139" height="2.24139" fill="white"/>
<rect x="35.8615" y="14.0049" width="2.24139" height="2.24139" fill="white"/>
<rect x="49.3095" y="14.0049" width="2.24139" height="2.24139" fill="white"/>
<rect x="13.4478" y="16.2461" width="2.24139" height="2.24139" fill="white"/>
<rect x="24.6566" y="16.2461" width="2.24139" height="2.24139" fill="white"/>
<rect x="26.8961" y="16.2461" width="2.24139" height="2.24139" fill="white"/>
<rect x="29.1389" y="16.2461" width="2.24139" height="2.24139" fill="white"/>
<rect x="31.3786" y="16.2461" width="2.24139" height="2.24139" fill="white"/>
<rect x="33.6217" y="16.2461" width="2.24139" height="2.24139" fill="white"/>
<rect x="35.8615" y="16.2461" width="2.24139" height="2.24139" fill="white"/>
<rect x="38.1041" y="16.2461" width="2.24139" height="2.24139" fill="white"/>
<rect x="49.3095" y="16.2461" width="2.24139" height="2.24139" fill="white"/>
<rect x="13.4478" y="18.4875" width="2.24139" height="2.24139" fill="white"/>
<rect x="15.6906" y="18.4875" width="2.24139" height="2.24139" fill="white"/>
<rect x="17.9306" y="18.4875" width="2.24139" height="2.24139" fill="white"/>
<rect x="20.1737" y="18.4875" width="2.24139" height="2.24139" fill="white"/>
<rect x="22.4134" y="18.4875" width="2.24139" height="2.24139" fill="white"/>
<rect x="24.6566" y="18.4875" width="2.24139" height="2.24139" fill="white"/>
<rect x="26.8961" y="18.4875" width="2.24139" height="2.24139" fill="white"/>
<rect x="29.1389" y="18.4875" width="2.24139" height="2.24139" fill="white"/>
<rect x="31.3786" y="18.4875" width="2.24139" height="2.24139" fill="white"/>
<rect x="33.6217" y="18.4875" width="2.24139" height="2.24139" fill="white"/>
<rect x="35.8615" y="18.4875" width="2.24139" height="2.24139" fill="white"/>
<rect x="38.1041" y="18.4875" width="2.24139" height="2.24139" fill="white"/>
<rect x="40.3441" y="18.4875" width="2.24139" height="2.24139" fill="white"/>
<rect x="42.5869" y="18.4875" width="2.24139" height="2.24139" fill="white"/>
<rect x="44.8264" y="18.4875" width="2.24139" height="2.24139" fill="white"/>
<rect x="47.0697" y="18.4875" width="2.24139" height="2.24139" fill="white"/>
<rect x="49.3095" y="18.4875" width="2.24139" height="2.24139" fill="white"/>
<rect x="6.72455" y="20.7289" width="2.24139" height="2.24139" fill="white"/>
<rect x="8.965" y="20.7289" width="2.24139" height="2.24139" fill="white"/>
<rect x="11.2076" y="20.7289" width="2.24139" height="2.24139" fill="white"/>
<rect x="13.4478" y="20.7289" width="2.24139" height="2.24139" fill="white"/>
<rect x="15.6906" y="20.7289" width="2.24139" height="2.24139" fill="white"/>
<rect x="22.4134" y="20.7289" width="2.24139" height="2.24139" fill="white"/>
<rect x="40.3441" y="20.7289" width="2.24139" height="2.24139" fill="white"/>
<rect x="47.0697" y="20.7289" width="2.24139" height="2.24139" fill="white"/>
<rect x="49.3095" y="20.7289" width="2.24139" height="2.24139" fill="white"/>
<rect x="51.5526" y="20.7289" width="2.24139" height="2.24139" fill="white"/>
<rect x="53.7925" y="20.7289" width="2.24139" height="2.24139" fill="white"/>
<rect x="56.0351" y="20.7289" width="2.24139" height="2.24139" fill="white"/>
<rect x="4.48264" y="22.9696" width="2.24139" height="2.24139" fill="white"/>
<rect x="6.72455" y="22.9696" width="2.24139" height="2.24139" fill="white"/>
<rect x="13.4478" y="22.9696" width="2.24139" height="2.24139" fill="white"/>
<rect x="15.6906" y="22.9696" width="2.24139" height="2.24139" fill="white"/>
<rect x="20.1737" y="22.9696" width="2.24139" height="2.24139" fill="white"/>
<rect x="22.4134" y="22.9696" width="2.24139" height="2.24139" fill="white"/>
<rect x="40.3441" y="22.9696" width="2.24139" height="2.24139" fill="white"/>
<rect x="42.5869" y="22.9696" width="2.24139" height="2.24139" fill="white"/>
<rect x="47.0697" y="22.9696" width="2.24139" height="2.24139" fill="white"/>
<rect x="49.3095" y="22.9696" width="2.24139" height="2.24139" fill="white"/>
<rect x="56.0351" y="22.9696" width="2.24139" height="2.24139" fill="white"/>
<rect x="58.2756" y="22.9696" width="2.24139" height="2.24139" fill="white"/>
<rect y="25.2118" width="2.24139" height="2.24139" fill="white"/>
<rect x="2.24152" y="25.2118" width="2.24139" height="2.24139" fill="white"/>
<rect x="4.48264" y="25.2118" width="2.24139" height="2.24139" fill="white"/>
<rect x="15.6906" y="25.2118" width="2.24139" height="2.24139" fill="white"/>
<rect x="20.1737" y="25.2118" width="2.24139" height="2.24139" fill="white"/>
<rect x="29.1389" y="25.2118" width="2.24139" height="2.24139" fill="white"/>
<rect x="31.3786" y="25.2118" width="2.24139" height="2.24139" fill="white"/>
<rect x="33.6217" y="25.2118" width="2.24139" height="2.24139" fill="white"/>
<rect x="42.5869" y="25.2118" width="2.24139" height="2.24139" fill="white"/>
<rect x="47.0697" y="25.2118" width="2.24139" height="2.24139" fill="white"/>
<rect x="58.2756" y="25.2118" width="2.24139" height="2.24139" fill="white"/>
<rect x="60.5178" y="25.2118" width="2.24139" height="2.24139" fill="white"/>
<rect x="62.7586" y="25.2118" width="2.24139" height="2.24139" fill="white"/>
<rect y="27.4526" width="2.24139" height="2.24139" fill="white"/>
<rect x="15.6906" y="27.4526" width="2.24139" height="2.24139" fill="white"/>
<rect x="17.9306" y="27.4526" width="2.24139" height="2.24139" fill="white"/>
<rect x="20.1737" y="27.4526" width="2.24139" height="2.24139" fill="white"/>
<rect x="26.8961" y="27.4526" width="2.24139" height="2.24139" fill="white"/>
<rect x="29.1389" y="27.4526" width="2.24139" height="2.24139" fill="white"/>
<rect x="31.3786" y="27.4526" width="2.24139" height="2.24139" fill="white"/>
<rect x="33.6217" y="27.4526" width="2.24139" height="2.24139" fill="white"/>
<rect x="35.8615" y="27.4526" width="2.24139" height="2.24139" fill="white"/>
<rect x="42.5869" y="27.4526" width="2.24139" height="2.24139" fill="white"/>
<rect x="44.8264" y="27.4526" width="2.24139" height="2.24139" fill="white"/>
<rect x="47.0697" y="27.4526" width="2.24139" height="2.24139" fill="white"/>
<rect x="62.7586" y="27.4526" width="2.24139" height="2.24139" fill="white"/>
<rect y="29.6948" width="2.24139" height="2.24139" fill="white"/>
<rect x="17.9306" y="29.6948" width="2.24139" height="2.24139" fill="white"/>
<rect x="26.8961" y="29.6948" width="2.24139" height="2.24139" fill="white"/>
<rect x="29.1389" y="29.6948" width="2.24139" height="2.24139" fill="white"/>
<rect x="31.3786" y="29.6948" width="2.24139" height="2.24139" fill="white"/>
<rect x="33.6217" y="29.6948" width="2.24139" height="2.24139" fill="white"/>
<rect x="35.8615" y="29.6948" width="2.24139" height="2.24139" fill="white"/>
<rect x="44.8264" y="29.6948" width="2.24139" height="2.24139" fill="white"/>
<rect x="62.7586" y="29.6948" width="2.24139" height="2.24139" fill="white"/>
<rect y="31.9362" width="2.24139" height="2.24139" fill="white"/>
<rect x="15.6906" y="31.9362" width="2.24139" height="2.24139" fill="white"/>
<rect x="17.9306" y="31.9362" width="2.24139" height="2.24139" fill="white"/>
<rect x="20.1737" y="31.9362" width="2.24139" height="2.24139" fill="white"/>
<rect x="26.8961" y="31.9362" width="2.24139" height="2.24139" fill="white"/>
<rect x="29.1389" y="31.9362" width="2.24139" height="2.24139" fill="white"/>
<rect x="31.3786" y="31.9362" width="2.24139" height="2.24139" fill="white"/>
<rect x="33.6217" y="31.9362" width="2.24139" height="2.24139" fill="white"/>
<rect x="35.8615" y="31.9362" width="2.24139" height="2.24139" fill="white"/>
<rect x="42.5869" y="31.9362" width="2.24139" height="2.24139" fill="white"/>
<rect x="44.8264" y="31.9362" width="2.24139" height="2.24139" fill="white"/>
<rect x="47.0697" y="31.9362" width="2.24139" height="2.24139" fill="white"/>
<rect x="62.7586" y="31.9362" width="2.24139" height="2.24139" fill="white"/>
<rect y="34.1779" width="2.24139" height="2.24139" fill="white"/>
<rect x="2.24152" y="34.1779" width="2.24139" height="2.24139" fill="white"/>
<rect x="4.48264" y="34.1779" width="2.24139" height="2.24139" fill="white"/>
<rect x="15.6906" y="34.1779" width="2.24139" height="2.24139" fill="white"/>
<rect x="20.1737" y="34.1779" width="2.24139" height="2.24139" fill="white"/>
<rect x="29.1389" y="34.1779" width="2.24139" height="2.24139" fill="white"/>
<rect x="31.3786" y="34.1779" width="2.24139" height="2.24139" fill="white"/>
<rect x="33.6217" y="34.1779" width="2.24139" height="2.24139" fill="white"/>
<rect x="42.5869" y="34.1779" width="2.24139" height="2.24139" fill="white"/>
<rect x="47.0697" y="34.1779" width="2.24139" height="2.24139" fill="white"/>
<rect x="58.2756" y="34.1779" width="2.24139" height="2.24139" fill="white"/>
<rect x="60.5178" y="34.1779" width="2.24139" height="2.24139" fill="white"/>
<rect x="62.7586" y="34.1779" width="2.24139" height="2.24139" fill="white"/>
<rect x="4.48264" y="36.4192" width="2.24139" height="2.24139" fill="white"/>
<rect x="6.72455" y="36.4192" width="2.24139" height="2.24139" fill="white"/>
<rect x="13.4478" y="36.4192" width="2.24139" height="2.24139" fill="white"/>
<rect x="15.6906" y="36.4192" width="2.24139" height="2.24139" fill="white"/>
<rect x="20.1737" y="36.4192" width="2.24139" height="2.24139" fill="white"/>
<rect x="22.4134" y="36.4192" width="2.24139" height="2.24139" fill="white"/>
<rect x="40.3441" y="36.4192" width="2.24139" height="2.24139" fill="white"/>
<rect x="42.5869" y="36.4192" width="2.24139" height="2.24139" fill="white"/>
<rect x="47.0697" y="36.4192" width="2.24139" height="2.24139" fill="white"/>
<rect x="49.3095" y="36.4192" width="2.24139" height="2.24139" fill="white"/>
<rect x="56.0351" y="36.4192" width="2.24139" height="2.24139" fill="white"/>
<rect x="58.2756" y="36.4192" width="2.24139" height="2.24139" fill="white"/>
<rect x="6.72455" y="38.6609" width="2.24139" height="2.24139" fill="white"/>
<rect x="8.965" y="38.6609" width="2.24139" height="2.24139" fill="white"/>
<rect x="11.2076" y="38.6609" width="2.24139" height="2.24139" fill="white"/>
<rect x="13.4478" y="38.6609" width="2.24139" height="2.24139" fill="white"/>
<rect x="15.6906" y="38.6609" width="2.24139" height="2.24139" fill="white"/>
<rect x="22.4134" y="38.6609" width="2.24139" height="2.24139" fill="white"/>
<rect x="40.3441" y="38.6609" width="2.24139" height="2.24139" fill="white"/>
<rect x="47.0697" y="38.6609" width="2.24139" height="2.24139" fill="white"/>
<rect x="49.3095" y="38.6609" width="2.24139" height="2.24139" fill="white"/>
<rect x="51.5526" y="38.6609" width="2.24139" height="2.24139" fill="white"/>
<rect x="53.7925" y="38.6609" width="2.24139" height="2.24139" fill="white"/>
<rect x="56.0351" y="38.6609" width="2.24139" height="2.24139" fill="white"/>
<rect x="13.4478" y="40.9023" width="2.24139" height="2.24139" fill="white"/>
<rect x="15.6906" y="40.9023" width="2.24139" height="2.24139" fill="white"/>
<rect x="17.9306" y="40.9023" width="2.24139" height="2.24139" fill="white"/>
<rect x="20.1737" y="40.9023" width="2.24139" height="2.24139" fill="white"/>
<rect x="22.4134" y="40.9023" width="2.24139" height="2.24139" fill="white"/>
<rect x="24.6566" y="40.9023" width="2.24139" height="2.24139" fill="white"/>
<rect x="26.8961" y="40.9023" width="2.24139" height="2.24139" fill="white"/>
<rect x="29.1389" y="40.9023" width="2.24139" height="2.24139" fill="white"/>
<rect x="31.3786" y="40.9023" width="2.24139" height="2.24139" fill="white"/>
<rect x="33.6217" y="40.9023" width="2.24139" height="2.24139" fill="white"/>
<rect x="35.8615" y="40.9023" width="2.24139" height="2.24139" fill="white"/>
<rect x="38.1041" y="40.9023" width="2.24139" height="2.24139" fill="white"/>
<rect x="40.3441" y="40.9023" width="2.24139" height="2.24139" fill="white"/>
<rect x="42.5869" y="40.9023" width="2.24139" height="2.24139" fill="white"/>
<rect x="44.8264" y="40.9023" width="2.24139" height="2.24139" fill="white"/>
<rect x="47.0697" y="40.9023" width="2.24139" height="2.24139" fill="white"/>
<rect x="49.3095" y="40.9023" width="2.24139" height="2.24139" fill="white"/>
<rect x="13.4478" y="43.1439" width="2.24139" height="2.24139" fill="white"/>
<rect x="24.6566" y="43.1439" width="2.24139" height="2.24139" fill="white"/>
<rect x="26.8961" y="43.1439" width="2.24139" height="2.24139" fill="white"/>
<rect x="29.1389" y="43.1439" width="2.24139" height="2.24139" fill="white"/>
<rect x="31.3786" y="43.1439" width="2.24139" height="2.24139" fill="white"/>
<rect x="33.6217" y="43.1439" width="2.24139" height="2.24139" fill="white"/>
<rect x="35.8615" y="43.1439" width="2.24139" height="2.24139" fill="white"/>
<rect x="38.1041" y="43.1439" width="2.24139" height="2.24139" fill="white"/>
<rect x="49.3095" y="43.1439" width="2.24139" height="2.24139" fill="white"/>
<rect x="13.4478" y="45.3845" width="2.24139" height="2.24139" fill="white"/>
<rect x="26.8961" y="45.3845" width="2.24139" height="2.24139" fill="white"/>
<rect x="29.1389" y="45.3845" width="2.24139" height="2.24139" fill="white"/>
<rect x="33.6217" y="45.3845" width="2.24139" height="2.24139" fill="white"/>
<rect x="35.8615" y="45.3845" width="2.24139" height="2.24139" fill="white"/>
<rect x="49.3095" y="45.3845" width="2.24139" height="2.24139" fill="white"/>
<rect x="11.2076" y="47.6262" width="2.24139" height="2.24139" fill="white"/>
<rect x="13.4478" y="47.6262" width="2.24139" height="2.24139" fill="white"/>
<rect x="29.1389" y="47.6262" width="2.24139" height="2.24139" fill="white"/>
<rect x="31.3786" y="47.6262" width="2.24139" height="2.24139" fill="white"/>
<rect x="33.6217" y="47.6262" width="2.24139" height="2.24139" fill="white"/>
<rect x="49.3095" y="47.6262" width="2.24139" height="2.24139" fill="white"/>
<rect x="51.5526" y="47.6262" width="2.24139" height="2.24139" fill="white"/>
<rect x="11.2076" y="49.8674" width="2.24139" height="2.24139" fill="white"/>
<rect x="13.4478" y="49.8674" width="2.24139" height="2.24139" fill="white"/>
<rect x="31.3786" y="49.8674" width="2.24139" height="2.24139" fill="white"/>
<rect x="49.3095" y="49.8674" width="2.24139" height="2.24139" fill="white"/>
<rect x="51.5526" y="49.8674" width="2.24139" height="2.24139" fill="white"/>
<rect x="11.2076" y="52.1092" width="2.24139" height="2.24139" fill="white"/>
<rect x="13.4478" y="52.1092" width="2.24139" height="2.24139" fill="white"/>
<rect x="26.8961" y="52.1092" width="2.24139" height="2.24139" fill="white"/>
<rect x="29.1389" y="52.1092" width="2.24139" height="2.24139" fill="white"/>
<rect x="33.6217" y="52.1092" width="2.24139" height="2.24139" fill="white"/>
<rect x="35.8615" y="52.1092" width="2.24139" height="2.24139" fill="white"/>
<rect x="49.3095" y="52.1092" width="2.24139" height="2.24139" fill="white"/>
<rect x="51.5526" y="52.1092" width="2.24139" height="2.24139" fill="white"/>
<rect x="13.4478" y="54.3498" width="2.24139" height="2.24139" fill="white"/>
<rect x="24.6566" y="54.3498" width="2.24139" height="2.24139" fill="white"/>
<rect x="26.8961" y="54.3498" width="2.24139" height="2.24139" fill="white"/>
<rect x="35.8615" y="54.3498" width="2.24139" height="2.24139" fill="white"/>
<rect x="38.1041" y="54.3498" width="2.24139" height="2.24139" fill="white"/>
<rect x="49.3095" y="54.3498" width="2.24139" height="2.24139" fill="white"/>
<rect x="13.4478" y="56.5917" width="2.24139" height="2.24139" fill="white"/>
<rect x="15.6906" y="56.5917" width="2.24139" height="2.24139" fill="white"/>
<rect x="17.9306" y="56.5917" width="2.24139" height="2.24139" fill="white"/>
<rect x="20.1737" y="56.5917" width="2.24139" height="2.24139" fill="white"/>
<rect x="22.4134" y="56.5917" width="2.24139" height="2.24139" fill="white"/>
<rect x="24.6566" y="56.5917" width="2.24139" height="2.24139" fill="white"/>
<rect x="38.1041" y="56.5917" width="2.24139" height="2.24139" fill="white"/>
<rect x="40.3441" y="56.5917" width="2.24139" height="2.24139" fill="white"/>
<rect x="42.5869" y="56.5917" width="2.24139" height="2.24139" fill="white"/>
<rect x="44.8264" y="56.5917" width="2.24139" height="2.24139" fill="white"/>
<rect x="47.0697" y="56.5917" width="2.24139" height="2.24139" fill="white"/>
<rect x="49.3095" y="56.5917" width="2.24139" height="2.24139" fill="white"/>
<rect x="17.9306" y="58.8323" width="2.24139" height="2.24139" fill="white"/>
<rect x="20.1737" y="58.8323" width="2.24139" height="2.24139" fill="white"/>
<rect x="42.5869" y="58.8323" width="2.24139" height="2.24139" fill="white"/>
<rect x="44.8264" y="58.8323" width="2.24139" height="2.24139" fill="white"/>
<path d="M96.4886 19.0425V42.3152H92.2386L82.1136 27.6675H81.9432V42.3152H77.0227V19.0425H81.3409L91.3864 33.6788H91.5909V19.0425H96.4886ZM105.44 42.6447C104.327 42.6447 103.334 42.4515 102.463 42.0652C101.592 41.6712 100.902 41.0917 100.395 40.3265C99.8949 39.5538 99.6449 38.5917 99.6449 37.4402C99.6449 36.4705 99.8229 35.6561 100.179 34.997C100.535 34.3379 101.02 33.8076 101.634 33.4061C102.247 33.0046 102.944 32.7015 103.724 32.497C104.512 32.2925 105.338 32.1485 106.202 32.0652C107.217 31.9591 108.035 31.8606 108.656 31.7697C109.277 31.6712 109.728 31.5273 110.009 31.3379C110.289 31.1485 110.429 30.8682 110.429 30.497V30.4288C110.429 29.7091 110.202 29.1523 109.747 28.7584C109.3 28.3644 108.664 28.1675 107.838 28.1675C106.967 28.1675 106.274 28.3606 105.759 28.747C105.243 29.1258 104.902 29.6031 104.736 30.1788L100.259 29.8152C100.486 28.7546 100.933 27.8379 101.599 27.0652C102.266 26.2849 103.126 25.6864 104.179 25.2697C105.24 24.8455 106.467 24.6334 107.861 24.6334C108.83 24.6334 109.759 24.747 110.645 24.9743C111.539 25.2015 112.33 25.5538 113.02 26.0311C113.717 26.5084 114.266 27.122 114.668 27.872C115.069 28.6144 115.27 29.5046 115.27 30.5425V42.3152H110.679V39.8947H110.543C110.262 40.4402 109.887 40.9212 109.418 41.3379C108.948 41.747 108.384 42.069 107.724 42.3038C107.065 42.5311 106.304 42.6447 105.44 42.6447ZM106.827 39.3038C107.539 39.3038 108.168 39.1637 108.713 38.8834C109.259 38.5955 109.687 38.2091 109.997 37.7243C110.308 37.2394 110.463 36.6902 110.463 36.0765V34.2243C110.312 34.3228 110.103 34.4137 109.838 34.497C109.58 34.5728 109.289 34.6447 108.963 34.7129C108.637 34.7735 108.312 34.8303 107.986 34.8834C107.66 34.9288 107.365 34.9705 107.099 35.0084C106.531 35.0917 106.035 35.2243 105.611 35.4061C105.187 35.5879 104.857 35.8341 104.622 36.1447C104.387 36.4478 104.27 36.8265 104.27 37.2811C104.27 37.9402 104.509 38.444 104.986 38.7925C105.471 39.1334 106.084 39.3038 106.827 39.3038ZM128.31 24.8606V28.497H117.798V24.8606H128.31ZM120.185 20.6788H125.026V36.9515C125.026 37.3985 125.094 37.747 125.23 37.997C125.366 38.2394 125.556 38.4099 125.798 38.5084C126.048 38.6069 126.336 38.6561 126.662 38.6561C126.889 38.6561 127.116 38.6372 127.344 38.5993C127.571 38.5538 127.745 38.5197 127.866 38.497L128.628 42.0993C128.385 42.175 128.045 42.2622 127.605 42.3606C127.166 42.4667 126.632 42.5311 126.003 42.5538C124.836 42.5993 123.813 42.444 122.935 42.0879C122.063 41.7319 121.385 41.1788 120.901 40.4288C120.416 39.6788 120.177 38.7319 120.185 37.5879V20.6788ZM131.463 42.3152V24.8606H136.304V42.3152H131.463ZM133.895 22.6106C133.175 22.6106 132.558 22.372 132.043 21.8947C131.535 21.4099 131.281 20.8303 131.281 20.1561C131.281 19.4894 131.535 18.9175 132.043 18.4402C132.558 17.9553 133.175 17.7129 133.895 17.7129C134.615 17.7129 135.228 17.9553 135.736 18.4402C136.251 18.9175 136.509 19.4894 136.509 20.1561C136.509 20.8303 136.251 21.4099 135.736 21.8947C135.228 22.372 134.615 22.6106 133.895 22.6106ZM156.455 24.8606L150.352 42.3152H144.898L138.795 24.8606H143.909L147.534 37.3493H147.716L151.33 24.8606H156.455ZM166.324 42.6561C164.528 42.6561 162.983 42.2925 161.688 41.5652C160.4 40.8303 159.407 39.7925 158.71 38.4515C158.013 37.1031 157.665 35.5084 157.665 33.6675C157.665 31.872 158.013 30.2962 158.71 28.9402C159.407 27.5841 160.388 26.5273 161.653 25.7697C162.926 25.0122 164.419 24.6334 166.131 24.6334C167.282 24.6334 168.354 24.819 169.347 25.1902C170.347 25.5538 171.218 26.1031 171.96 26.8379C172.71 27.5728 173.294 28.497 173.71 29.6106C174.127 30.7167 174.335 32.0122 174.335 33.497V34.8265H159.597V31.8265H169.778C169.778 31.1296 169.627 30.5122 169.324 29.9743C169.021 29.4364 168.6 29.0159 168.062 28.7129C167.532 28.4023 166.915 28.247 166.21 28.247C165.475 28.247 164.824 28.4175 164.256 28.7584C163.695 29.0917 163.256 29.5425 162.938 30.1106C162.619 30.6712 162.456 31.2962 162.449 31.9856V34.8379C162.449 35.7015 162.608 36.4478 162.926 37.0765C163.252 37.7053 163.71 38.1902 164.301 38.5311C164.892 38.872 165.593 39.0425 166.403 39.0425C166.941 39.0425 167.434 38.9667 167.881 38.8152C168.328 38.6637 168.71 38.4364 169.028 38.1334C169.347 37.8303 169.589 37.4591 169.756 37.0197L174.233 37.3152C174.006 38.3909 173.54 39.3303 172.835 40.1334C172.138 40.9288 171.237 41.55 170.131 41.997C169.032 42.4364 167.763 42.6561 166.324 42.6561Z" fill="white"/>
</svg>
