<svg width="65" height="42" viewBox="0 0 65 42" fill="none" xmlns="http://www.w3.org/2000/svg">
<rect x="30.1219" y="0.0119019" width="1.58537" height="1.58537" fill="white"/>
<rect x="31.7073" y="0.0119019" width="1.58537" height="1.58537" fill="white"/>
<rect x="23.7805" y="1.59729" width="1.58537" height="1.58537" fill="white"/>
<rect x="25.3659" y="1.59729" width="1.58537" height="1.58537" fill="white"/>
<rect x="26.9512" y="1.59729" width="1.58537" height="1.58537" fill="white"/>
<rect x="28.5366" y="1.59729" width="1.58537" height="1.58537" fill="white"/>
<rect x="30.1219" y="1.59729" width="1.58537" height="1.58537" fill="white"/>
<rect x="31.7073" y="1.59729" width="1.58537" height="1.58537" fill="white"/>
<rect x="33.2927" y="1.59729" width="1.58537" height="1.58537" fill="white"/>
<rect x="34.8781" y="1.59729" width="1.58537" height="1.58537" fill="white"/>
<rect x="36.4634" y="1.59729" width="1.58537" height="1.58537" fill="white"/>
<rect x="38.0488" y="1.59729" width="1.58537" height="1.58537" fill="white"/>
<rect x="39.6341" y="1.59729" width="1.58537" height="1.58537" fill="white"/>
<rect x="22.1951" y="3.18262" width="1.58537" height="1.58537" fill="white"/>
<rect x="23.7805" y="3.18262" width="1.58537" height="1.58537" fill="white"/>
<rect x="25.3659" y="3.18262" width="1.58537" height="1.58537" fill="white"/>
<rect x="26.9512" y="3.18262" width="1.58537" height="1.58537" fill="white"/>
<rect x="28.5366" y="3.18262" width="1.58537" height="1.58537" fill="white"/>
<rect x="30.1219" y="3.18262" width="1.58537" height="1.58537" fill="white"/>
<rect x="31.7073" y="3.18262" width="1.58537" height="1.58537" fill="white"/>
<rect x="33.2927" y="3.18262" width="1.58537" height="1.58537" fill="white"/>
<rect x="34.8781" y="3.18262" width="1.58537" height="1.58537" fill="white"/>
<rect x="36.4634" y="3.18262" width="1.58537" height="1.58537" fill="white"/>
<rect x="38.0488" y="3.18262" width="1.58537" height="1.58537" fill="white"/>
<rect x="39.6341" y="3.18262" width="1.58537" height="1.58537" fill="white"/>
<rect x="41.2195" y="3.18262" width="1.58537" height="1.58537" fill="white"/>
<rect x="20.6098" y="4.76801" width="1.58537" height="1.58537" fill="white"/>
<rect x="22.1951" y="4.76801" width="1.58537" height="1.58537" fill="white"/>
<rect x="23.7805" y="4.76801" width="1.58537" height="1.58537" fill="white"/>
<rect x="25.3659" y="4.76801" width="1.58537" height="1.58537" fill="white"/>
<rect x="26.9512" y="4.76801" width="1.58537" height="1.58537" fill="white"/>
<rect x="28.5366" y="4.76801" width="1.58537" height="1.58537" fill="white"/>
<rect x="30.1219" y="4.76801" width="1.58537" height="1.58537" fill="white"/>
<rect x="31.7073" y="4.76801" width="1.58537" height="1.58537" fill="white"/>
<rect x="33.2927" y="4.76801" width="1.58537" height="1.58537" fill="white"/>
<rect x="34.8781" y="4.76801" width="1.58537" height="1.58537" fill="white"/>
<rect x="36.4634" y="4.76801" width="1.58537" height="1.58537" fill="white"/>
<rect x="38.0488" y="4.76801" width="1.58537" height="1.58537" fill="white"/>
<rect x="39.6341" y="4.76801" width="1.58537" height="1.58537" fill="white"/>
<rect x="41.2195" y="4.76801" width="1.58537" height="1.58537" fill="white"/>
<rect x="42.8049" y="4.76801" width="1.58537" height="1.58537" fill="white"/>
<rect x="44.3902" y="4.76801" width="1.58537" height="1.58537" fill="white"/>
<rect x="19.0244" y="6.35339" width="1.58537" height="1.58537" fill="white"/>
<rect x="20.6098" y="6.35339" width="1.58537" height="1.58537" fill="white"/>
<rect x="22.1951" y="6.35339" width="1.58537" height="1.58537" fill="white"/>
<rect x="23.7805" y="6.35339" width="1.58537" height="1.58537" fill="white"/>
<rect x="25.3659" y="6.35339" width="1.58537" height="1.58537" fill="white"/>
<rect x="26.9512" y="6.35339" width="1.58537" height="1.58537" fill="white"/>
<rect x="28.5366" y="6.35339" width="1.58537" height="1.58537" fill="white"/>
<rect x="30.1219" y="6.35339" width="1.58537" height="1.58537" fill="white"/>
<rect x="31.7073" y="6.35339" width="1.58537" height="1.58537" fill="white"/>
<rect x="33.2927" y="6.35339" width="1.58537" height="1.58537" fill="white"/>
<rect x="34.8781" y="6.35339" width="1.58537" height="1.58537" fill="white"/>
<rect x="36.4634" y="6.35339" width="1.58537" height="1.58537" fill="white"/>
<rect x="38.0488" y="6.35339" width="1.58537" height="1.58537" fill="white"/>
<rect x="39.6341" y="6.35339" width="1.58537" height="1.58537" fill="white"/>
<rect x="41.2195" y="6.35339" width="1.58537" height="1.58537" fill="white"/>
<rect x="42.8049" y="6.35339" width="1.58537" height="1.58537" fill="white"/>
<rect x="44.3902" y="6.35339" width="1.58537" height="1.58537" fill="white"/>
<rect x="45.9756" y="6.35339" width="1.58537" height="1.58537" fill="white"/>
<rect x="17.439" y="7.93872" width="1.58537" height="1.58537" fill="white"/>
<rect x="19.0244" y="7.93872" width="1.58537" height="1.58537" fill="white"/>
<rect x="20.6098" y="7.93872" width="1.58537" height="1.58537" fill="white"/>
<rect x="22.1951" y="7.93872" width="1.58537" height="1.58537" fill="white"/>
<rect x="23.7805" y="7.93872" width="1.58537" height="1.58537" fill="white"/>
<rect x="25.3659" y="7.93872" width="1.58537" height="1.58537" fill="white"/>
<rect x="26.9512" y="7.93872" width="1.58537" height="1.58537" fill="white"/>
<rect x="28.5366" y="7.93872" width="1.58537" height="1.58537" fill="white"/>
<rect x="30.1219" y="7.93872" width="1.58537" height="1.58537" fill="white"/>
<rect x="31.7073" y="7.93872" width="1.58537" height="1.58537" fill="white"/>
<rect x="33.2927" y="7.93872" width="1.58537" height="1.58537" fill="white"/>
<rect x="34.8781" y="7.93872" width="1.58537" height="1.58537" fill="white"/>
<rect x="36.4634" y="7.93872" width="1.58537" height="1.58537" fill="white"/>
<rect x="38.0488" y="7.93872" width="1.58537" height="1.58537" fill="white"/>
<rect x="39.6341" y="7.93872" width="1.58537" height="1.58537" fill="white"/>
<rect x="41.2195" y="7.93872" width="1.58537" height="1.58537" fill="white"/>
<rect x="42.8049" y="7.93872" width="1.58537" height="1.58537" fill="white"/>
<rect x="44.3902" y="7.93872" width="1.58537" height="1.58537" fill="white"/>
<rect x="45.9756" y="7.93872" width="1.58537" height="1.58537" fill="white"/>
<rect x="47.561" y="7.93872" width="1.58537" height="1.58537" fill="white"/>
<rect x="17.439" y="9.52411" width="1.58537" height="1.58537" fill="white"/>
<rect x="30.1219" y="9.52411" width="1.58537" height="1.58537" fill="white"/>
<rect x="31.7073" y="9.52411" width="1.58537" height="1.58537" fill="white"/>
<rect x="33.2927" y="9.52411" width="1.58537" height="1.58537" fill="white"/>
<rect x="34.8781" y="9.52411" width="1.58537" height="1.58537" fill="white"/>
<rect x="36.4634" y="9.52411" width="1.58537" height="1.58537" fill="white"/>
<rect x="38.0488" y="9.52411" width="1.58537" height="1.58537" fill="white"/>
<rect x="39.6341" y="9.52411" width="1.58537" height="1.58537" fill="white"/>
<rect x="41.2195" y="9.52411" width="1.58537" height="1.58537" fill="white"/>
<rect x="42.8049" y="9.52411" width="1.58537" height="1.58537" fill="white"/>
<rect x="44.3902" y="9.52411" width="1.58537" height="1.58537" fill="white"/>
<rect x="45.9756" y="9.52411" width="1.58537" height="1.58537" fill="white"/>
<rect x="47.561" y="9.52411" width="1.58537" height="1.58537" fill="white"/>
<rect x="49.1463" y="9.52411" width="1.58537" height="1.58537" fill="white"/>
<rect x="63.4146" y="9.52411" width="1.58537" height="1.58537" fill="white"/>
<rect x="15.8537" y="11.1094" width="1.58537" height="1.58537" fill="white"/>
<rect x="31.7073" y="11.1094" width="1.58537" height="1.58537" fill="white"/>
<rect x="33.2927" y="11.1094" width="1.58537" height="1.58537" fill="white"/>
<rect x="34.8781" y="11.1094" width="1.58537" height="1.58537" fill="white"/>
<rect x="36.4634" y="11.1094" width="1.58537" height="1.58537" fill="white"/>
<rect x="38.0488" y="11.1094" width="1.58537" height="1.58537" fill="white"/>
<rect x="39.6341" y="11.1094" width="1.58537" height="1.58537" fill="white"/>
<rect x="41.2195" y="11.1094" width="1.58537" height="1.58537" fill="white"/>
<rect x="42.8049" y="11.1094" width="1.58537" height="1.58537" fill="white"/>
<rect x="44.3902" y="11.1094" width="1.58537" height="1.58537" fill="white"/>
<rect x="45.9756" y="11.1094" width="1.58537" height="1.58537" fill="white"/>
<rect x="47.561" y="11.1094" width="1.58537" height="1.58537" fill="white"/>
<rect x="49.1463" y="11.1094" width="1.58537" height="1.58537" fill="white"/>
<rect x="50.7317" y="11.1094" width="1.58537" height="1.58537" fill="white"/>
<rect x="60.2439" y="11.1094" width="1.58537" height="1.58537" fill="white"/>
<rect x="61.8293" y="11.1094" width="1.58537" height="1.58537" fill="white"/>
<rect x="33.2927" y="12.6948" width="1.58537" height="1.58537" fill="white"/>
<rect x="34.8781" y="12.6948" width="1.58537" height="1.58537" fill="white"/>
<rect x="36.4634" y="12.6948" width="1.58537" height="1.58537" fill="white"/>
<rect x="38.0488" y="12.6948" width="1.58537" height="1.58537" fill="white"/>
<rect x="39.6341" y="12.6948" width="1.58537" height="1.58537" fill="white"/>
<rect x="41.2195" y="12.6948" width="1.58537" height="1.58537" fill="white"/>
<rect x="42.8049" y="12.6948" width="1.58537" height="1.58537" fill="white"/>
<rect x="44.3902" y="12.6948" width="1.58537" height="1.58537" fill="white"/>
<rect x="45.9756" y="12.6948" width="1.58537" height="1.58537" fill="white"/>
<rect x="47.561" y="12.6948" width="1.58537" height="1.58537" fill="white"/>
<rect x="49.1463" y="12.6948" width="1.58537" height="1.58537" fill="white"/>
<rect x="50.7317" y="12.6948" width="1.58537" height="1.58537" fill="white"/>
<rect x="52.3171" y="12.6948" width="1.58537" height="1.58537" fill="white"/>
<rect x="53.9024" y="12.6948" width="1.58537" height="1.58537" fill="white"/>
<rect x="55.4878" y="12.6948" width="1.58537" height="1.58537" fill="white"/>
<rect x="57.0732" y="12.6948" width="1.58537" height="1.58537" fill="white"/>
<rect x="58.6585" y="12.6948" width="1.58537" height="1.58537" fill="white"/>
<rect x="60.2439" y="12.6948" width="1.58537" height="1.58537" fill="white"/>
<rect x="61.8293" y="12.6948" width="1.58537" height="1.58537" fill="white"/>
<rect x="34.8781" y="14.2802" width="1.58537" height="1.58537" fill="white"/>
<rect x="36.4634" y="14.2802" width="1.58537" height="1.58537" fill="white"/>
<rect x="38.0488" y="14.2802" width="1.58537" height="1.58537" fill="white"/>
<rect x="39.6341" y="14.2802" width="1.58537" height="1.58537" fill="white"/>
<rect x="41.2195" y="14.2802" width="1.58537" height="1.58537" fill="white"/>
<rect x="42.8049" y="14.2802" width="1.58537" height="1.58537" fill="white"/>
<rect x="44.3902" y="14.2802" width="1.58537" height="1.58537" fill="white"/>
<rect x="45.9756" y="14.2802" width="1.58537" height="1.58537" fill="white"/>
<rect x="47.561" y="14.2802" width="1.58537" height="1.58537" fill="white"/>
<rect x="49.1463" y="14.2802" width="1.58537" height="1.58537" fill="white"/>
<rect x="50.7317" y="14.2802" width="1.58537" height="1.58537" fill="white"/>
<rect x="52.3171" y="14.2802" width="1.58537" height="1.58537" fill="white"/>
<rect x="53.9024" y="14.2802" width="1.58537" height="1.58537" fill="white"/>
<rect x="55.4878" y="14.2802" width="1.58537" height="1.58537" fill="white"/>
<rect x="57.0732" y="14.2802" width="1.58537" height="1.58537" fill="white"/>
<rect x="58.6585" y="14.2802" width="1.58537" height="1.58537" fill="white"/>
<rect x="60.2439" y="14.2802" width="1.58537" height="1.58537" fill="white"/>
<rect x="36.4634" y="15.8655" width="1.58537" height="1.58537" fill="white"/>
<rect x="38.0488" y="15.8655" width="1.58537" height="1.58537" fill="white"/>
<rect x="39.6341" y="15.8655" width="1.58537" height="1.58537" fill="white"/>
<rect x="41.2195" y="15.8655" width="1.58537" height="1.58537" fill="white"/>
<rect x="42.8049" y="15.8655" width="1.58537" height="1.58537" fill="white"/>
<rect x="44.3902" y="15.8655" width="1.58537" height="1.58537" fill="white"/>
<rect x="45.9756" y="15.8655" width="1.58537" height="1.58537" fill="white"/>
<rect x="47.561" y="15.8655" width="1.58537" height="1.58537" fill="white"/>
<rect x="49.1463" y="15.8655" width="1.58537" height="1.58537" fill="white"/>
<rect x="50.7317" y="15.8655" width="1.58537" height="1.58537" fill="white"/>
<rect x="52.3171" y="15.8655" width="1.58537" height="1.58537" fill="white"/>
<rect x="53.9024" y="15.8655" width="1.58537" height="1.58537" fill="white"/>
<rect x="55.4878" y="15.8655" width="1.58537" height="1.58537" fill="white"/>
<rect x="57.0732" y="15.8655" width="1.58537" height="1.58537" fill="white"/>
<rect x="58.6585" y="15.8655" width="1.58537" height="1.58537" fill="white"/>
<rect x="39.6341" y="17.4509" width="1.58537" height="1.58537" fill="white"/>
<rect x="41.2195" y="17.4509" width="1.58537" height="1.58537" fill="white"/>
<rect x="42.8049" y="17.4509" width="1.58537" height="1.58537" fill="white"/>
<rect x="44.3902" y="17.4509" width="1.58537" height="1.58537" fill="white"/>
<rect x="45.9756" y="17.4509" width="1.58537" height="1.58537" fill="white"/>
<rect x="47.561" y="17.4509" width="1.58537" height="1.58537" fill="white"/>
<rect x="49.1463" y="17.4509" width="1.58537" height="1.58537" fill="white"/>
<rect x="50.7317" y="17.4509" width="1.58537" height="1.58537" fill="white"/>
<rect x="52.3171" y="17.4509" width="1.58537" height="1.58537" fill="white"/>
<rect x="53.9024" y="17.4509" width="1.58537" height="1.58537" fill="white"/>
<rect x="55.4878" y="17.4509" width="1.58537" height="1.58537" fill="white"/>
<rect x="57.0732" y="17.4509" width="1.58537" height="1.58537" fill="white"/>
<rect x="42.8049" y="19.0363" width="1.58537" height="1.58537" fill="white"/>
<rect x="44.3902" y="19.0363" width="1.58537" height="1.58537" fill="white"/>
<rect x="45.9756" y="19.0363" width="1.58537" height="1.58537" fill="white"/>
<rect x="47.561" y="19.0363" width="1.58537" height="1.58537" fill="white"/>
<rect x="49.1463" y="19.0363" width="1.58537" height="1.58537" fill="white"/>
<rect x="50.7317" y="19.0363" width="1.58537" height="1.58537" fill="white"/>
<rect x="52.3171" y="19.0363" width="1.58537" height="1.58537" fill="white"/>
<rect x="53.9024" y="19.0363" width="1.58537" height="1.58537" fill="white"/>
<rect x="9.51219" y="20.6216" width="1.58537" height="1.58537" fill="white"/>
<rect x="11.0976" y="20.6216" width="1.58537" height="1.58537" fill="white"/>
<rect x="12.6829" y="20.6216" width="1.58537" height="1.58537" fill="white"/>
<rect x="14.2683" y="20.6216" width="1.58537" height="1.58537" fill="white"/>
<rect x="15.8537" y="20.6216" width="1.58537" height="1.58537" fill="white"/>
<rect x="17.439" y="20.6216" width="1.58537" height="1.58537" fill="white"/>
<rect x="19.0244" y="20.6216" width="1.58537" height="1.58537" fill="white"/>
<rect x="20.6098" y="20.6216" width="1.58537" height="1.58537" fill="white"/>
<rect x="6.34146" y="22.207" width="1.58537" height="1.58537" fill="white"/>
<rect x="7.92683" y="22.207" width="1.58537" height="1.58537" fill="white"/>
<rect x="9.51219" y="22.207" width="1.58537" height="1.58537" fill="white"/>
<rect x="11.0976" y="22.207" width="1.58537" height="1.58537" fill="white"/>
<rect x="12.6829" y="22.207" width="1.58537" height="1.58537" fill="white"/>
<rect x="14.2683" y="22.207" width="1.58537" height="1.58537" fill="white"/>
<rect x="15.8537" y="22.207" width="1.58537" height="1.58537" fill="white"/>
<rect x="17.439" y="22.207" width="1.58537" height="1.58537" fill="white"/>
<rect x="19.0244" y="22.207" width="1.58537" height="1.58537" fill="white"/>
<rect x="20.6098" y="22.207" width="1.58537" height="1.58537" fill="white"/>
<rect x="22.1951" y="22.207" width="1.58537" height="1.58537" fill="white"/>
<rect x="23.7805" y="22.207" width="1.58537" height="1.58537" fill="white"/>
<rect x="4.7561" y="23.7924" width="1.58537" height="1.58537" fill="white"/>
<rect x="6.34146" y="23.7924" width="1.58537" height="1.58537" fill="white"/>
<rect x="7.92683" y="23.7924" width="1.58537" height="1.58537" fill="white"/>
<rect x="9.51219" y="23.7924" width="1.58537" height="1.58537" fill="white"/>
<rect x="11.0976" y="23.7924" width="1.58537" height="1.58537" fill="white"/>
<rect x="12.6829" y="23.7924" width="1.58537" height="1.58537" fill="white"/>
<rect x="14.2683" y="23.7924" width="1.58537" height="1.58537" fill="white"/>
<rect x="15.8537" y="23.7924" width="1.58537" height="1.58537" fill="white"/>
<rect x="17.439" y="23.7924" width="1.58537" height="1.58537" fill="white"/>
<rect x="19.0244" y="23.7924" width="1.58537" height="1.58537" fill="white"/>
<rect x="20.6098" y="23.7924" width="1.58537" height="1.58537" fill="white"/>
<rect x="22.1951" y="23.7924" width="1.58537" height="1.58537" fill="white"/>
<rect x="23.7805" y="23.7924" width="1.58537" height="1.58537" fill="white"/>
<rect x="25.3659" y="23.7924" width="1.58537" height="1.58537" fill="white"/>
<rect x="3.17073" y="25.3777" width="1.58537" height="1.58537" fill="white"/>
<rect x="4.7561" y="25.3777" width="1.58537" height="1.58537" fill="white"/>
<rect x="6.34146" y="25.3777" width="1.58537" height="1.58537" fill="white"/>
<rect x="7.92683" y="25.3777" width="1.58537" height="1.58537" fill="white"/>
<rect x="9.51219" y="25.3777" width="1.58537" height="1.58537" fill="white"/>
<rect x="11.0976" y="25.3777" width="1.58537" height="1.58537" fill="white"/>
<rect x="12.6829" y="25.3777" width="1.58537" height="1.58537" fill="white"/>
<rect x="14.2683" y="25.3777" width="1.58537" height="1.58537" fill="white"/>
<rect x="15.8537" y="25.3777" width="1.58537" height="1.58537" fill="white"/>
<rect x="17.439" y="25.3777" width="1.58537" height="1.58537" fill="white"/>
<rect x="19.0244" y="25.3777" width="1.58537" height="1.58537" fill="white"/>
<rect x="20.6098" y="25.3777" width="1.58537" height="1.58537" fill="white"/>
<rect x="22.1951" y="25.3777" width="1.58537" height="1.58537" fill="white"/>
<rect x="23.7805" y="25.3777" width="1.58537" height="1.58537" fill="white"/>
<rect x="25.3659" y="25.3777" width="1.58537" height="1.58537" fill="white"/>
<rect x="26.9512" y="25.3777" width="1.58537" height="1.58537" fill="white"/>
<rect x="28.5366" y="25.3777" width="1.58537" height="1.58537" fill="white"/>
<rect x="1.58537" y="26.9631" width="1.58537" height="1.58537" fill="white"/>
<rect x="3.17073" y="26.9631" width="1.58537" height="1.58537" fill="white"/>
<rect x="4.7561" y="26.9631" width="1.58537" height="1.58537" fill="white"/>
<rect x="6.34146" y="26.9631" width="1.58537" height="1.58537" fill="white"/>
<rect x="7.92683" y="26.9631" width="1.58537" height="1.58537" fill="white"/>
<rect x="9.51219" y="26.9631" width="1.58537" height="1.58537" fill="white"/>
<rect x="11.0976" y="26.9631" width="1.58537" height="1.58537" fill="white"/>
<rect x="12.6829" y="26.9631" width="1.58537" height="1.58537" fill="white"/>
<rect x="14.2683" y="26.9631" width="1.58537" height="1.58537" fill="white"/>
<rect x="15.8537" y="26.9631" width="1.58537" height="1.58537" fill="white"/>
<rect x="17.439" y="26.9631" width="1.58537" height="1.58537" fill="white"/>
<rect x="19.0244" y="26.9631" width="1.58537" height="1.58537" fill="white"/>
<rect x="20.6098" y="26.9631" width="1.58537" height="1.58537" fill="white"/>
<rect x="22.1951" y="26.9631" width="1.58537" height="1.58537" fill="white"/>
<rect x="23.7805" y="26.9631" width="1.58537" height="1.58537" fill="white"/>
<rect x="25.3659" y="26.9631" width="1.58537" height="1.58537" fill="white"/>
<rect x="26.9512" y="26.9631" width="1.58537" height="1.58537" fill="white"/>
<rect x="28.5366" y="26.9631" width="1.58537" height="1.58537" fill="white"/>
<rect x="30.1219" y="26.9631" width="1.58537" height="1.58537" fill="white"/>
<rect x="1.58537" y="28.5485" width="1.58537" height="1.58537" fill="white"/>
<rect x="3.17073" y="28.5485" width="1.58537" height="1.58537" fill="white"/>
<rect x="11.0976" y="28.5485" width="1.58537" height="1.58537" fill="white"/>
<rect x="12.6829" y="28.5485" width="1.58537" height="1.58537" fill="white"/>
<rect x="14.2683" y="28.5485" width="1.58537" height="1.58537" fill="white"/>
<rect x="15.8537" y="28.5485" width="1.58537" height="1.58537" fill="white"/>
<rect x="17.439" y="28.5485" width="1.58537" height="1.58537" fill="white"/>
<rect x="19.0244" y="28.5485" width="1.58537" height="1.58537" fill="white"/>
<rect x="20.6098" y="28.5485" width="1.58537" height="1.58537" fill="white"/>
<rect x="22.1951" y="28.5485" width="1.58537" height="1.58537" fill="white"/>
<rect x="23.7805" y="28.5485" width="1.58537" height="1.58537" fill="white"/>
<rect x="25.3659" y="28.5485" width="1.58537" height="1.58537" fill="white"/>
<rect x="26.9512" y="28.5485" width="1.58537" height="1.58537" fill="white"/>
<rect x="28.5366" y="28.5485" width="1.58537" height="1.58537" fill="white"/>
<rect x="30.1219" y="28.5485" width="1.58537" height="1.58537" fill="white"/>
<rect x="31.7073" y="28.5485" width="1.58537" height="1.58537" fill="white"/>
<rect y="30.1339" width="1.58537" height="1.58537" fill="white"/>
<rect x="14.2683" y="30.1339" width="1.58537" height="1.58537" fill="white"/>
<rect x="15.8537" y="30.1339" width="1.58537" height="1.58537" fill="white"/>
<rect x="17.439" y="30.1339" width="1.58537" height="1.58537" fill="white"/>
<rect x="19.0244" y="30.1339" width="1.58537" height="1.58537" fill="white"/>
<rect x="20.6098" y="30.1339" width="1.58537" height="1.58537" fill="white"/>
<rect x="22.1951" y="30.1339" width="1.58537" height="1.58537" fill="white"/>
<rect x="23.7805" y="30.1339" width="1.58537" height="1.58537" fill="white"/>
<rect x="25.3659" y="30.1339" width="1.58537" height="1.58537" fill="white"/>
<rect x="26.9512" y="30.1339" width="1.58537" height="1.58537" fill="white"/>
<rect x="28.5366" y="30.1339" width="1.58537" height="1.58537" fill="white"/>
<rect x="30.1219" y="30.1339" width="1.58537" height="1.58537" fill="white"/>
<rect x="31.7073" y="30.1339" width="1.58537" height="1.58537" fill="white"/>
<rect x="33.2927" y="30.1339" width="1.58537" height="1.58537" fill="white"/>
<rect x="44.3902" y="30.1339" width="1.58537" height="1.58537" fill="white"/>
<rect x="45.9756" y="30.1339" width="1.58537" height="1.58537" fill="white"/>
<rect x="15.8537" y="31.7192" width="1.58537" height="1.58537" fill="white"/>
<rect x="17.439" y="31.7192" width="1.58537" height="1.58537" fill="white"/>
<rect x="19.0244" y="31.7192" width="1.58537" height="1.58537" fill="white"/>
<rect x="20.6098" y="31.7192" width="1.58537" height="1.58537" fill="white"/>
<rect x="22.1951" y="31.7192" width="1.58537" height="1.58537" fill="white"/>
<rect x="23.7805" y="31.7192" width="1.58537" height="1.58537" fill="white"/>
<rect x="25.3659" y="31.7192" width="1.58537" height="1.58537" fill="white"/>
<rect x="26.9512" y="31.7192" width="1.58537" height="1.58537" fill="white"/>
<rect x="28.5366" y="31.7192" width="1.58537" height="1.58537" fill="white"/>
<rect x="30.1219" y="31.7192" width="1.58537" height="1.58537" fill="white"/>
<rect x="31.7073" y="31.7192" width="1.58537" height="1.58537" fill="white"/>
<rect x="33.2927" y="31.7192" width="1.58537" height="1.58537" fill="white"/>
<rect x="34.8781" y="31.7192" width="1.58537" height="1.58537" fill="white"/>
<rect x="36.4634" y="31.7192" width="1.58537" height="1.58537" fill="white"/>
<rect x="41.2195" y="31.7192" width="1.58537" height="1.58537" fill="white"/>
<rect x="42.8049" y="31.7192" width="1.58537" height="1.58537" fill="white"/>
<rect x="44.3902" y="31.7192" width="1.58537" height="1.58537" fill="white"/>
<rect x="45.9756" y="31.7192" width="1.58537" height="1.58537" fill="white"/>
<rect x="17.439" y="33.3046" width="1.58537" height="1.58537" fill="white"/>
<rect x="19.0244" y="33.3046" width="1.58537" height="1.58537" fill="white"/>
<rect x="20.6098" y="33.3046" width="1.58537" height="1.58537" fill="white"/>
<rect x="22.1951" y="33.3046" width="1.58537" height="1.58537" fill="white"/>
<rect x="23.7805" y="33.3046" width="1.58537" height="1.58537" fill="white"/>
<rect x="25.3659" y="33.3046" width="1.58537" height="1.58537" fill="white"/>
<rect x="26.9512" y="33.3046" width="1.58537" height="1.58537" fill="white"/>
<rect x="28.5366" y="33.3046" width="1.58537" height="1.58537" fill="white"/>
<rect x="30.1219" y="33.3046" width="1.58537" height="1.58537" fill="white"/>
<rect x="31.7073" y="33.3046" width="1.58537" height="1.58537" fill="white"/>
<rect x="33.2927" y="33.3046" width="1.58537" height="1.58537" fill="white"/>
<rect x="34.8781" y="33.3046" width="1.58537" height="1.58537" fill="white"/>
<rect x="36.4634" y="33.3046" width="1.58537" height="1.58537" fill="white"/>
<rect x="38.0488" y="33.3046" width="1.58537" height="1.58537" fill="white"/>
<rect x="39.6341" y="33.3046" width="1.58537" height="1.58537" fill="white"/>
<rect x="41.2195" y="33.3046" width="1.58537" height="1.58537" fill="white"/>
<rect x="42.8049" y="33.3046" width="1.58537" height="1.58537" fill="white"/>
<rect x="44.3902" y="33.3046" width="1.58537" height="1.58537" fill="white"/>
<rect x="19.0244" y="34.89" width="1.58537" height="1.58537" fill="white"/>
<rect x="20.6098" y="34.89" width="1.58537" height="1.58537" fill="white"/>
<rect x="22.1951" y="34.89" width="1.58537" height="1.58537" fill="white"/>
<rect x="23.7805" y="34.89" width="1.58537" height="1.58537" fill="white"/>
<rect x="25.3659" y="34.89" width="1.58537" height="1.58537" fill="white"/>
<rect x="26.9512" y="34.89" width="1.58537" height="1.58537" fill="white"/>
<rect x="28.5366" y="34.89" width="1.58537" height="1.58537" fill="white"/>
<rect x="30.1219" y="34.89" width="1.58537" height="1.58537" fill="white"/>
<rect x="31.7073" y="34.89" width="1.58537" height="1.58537" fill="white"/>
<rect x="33.2927" y="34.89" width="1.58537" height="1.58537" fill="white"/>
<rect x="34.8781" y="34.89" width="1.58537" height="1.58537" fill="white"/>
<rect x="36.4634" y="34.89" width="1.58537" height="1.58537" fill="white"/>
<rect x="38.0488" y="34.89" width="1.58537" height="1.58537" fill="white"/>
<rect x="39.6341" y="34.89" width="1.58537" height="1.58537" fill="white"/>
<rect x="41.2195" y="34.89" width="1.58537" height="1.58537" fill="white"/>
<rect x="42.8049" y="34.89" width="1.58537" height="1.58537" fill="white"/>
<rect x="20.6098" y="36.4753" width="1.58537" height="1.58537" fill="white"/>
<rect x="22.1951" y="36.4753" width="1.58537" height="1.58537" fill="white"/>
<rect x="23.7805" y="36.4753" width="1.58537" height="1.58537" fill="white"/>
<rect x="25.3659" y="36.4753" width="1.58537" height="1.58537" fill="white"/>
<rect x="26.9512" y="36.4753" width="1.58537" height="1.58537" fill="white"/>
<rect x="28.5366" y="36.4753" width="1.58537" height="1.58537" fill="white"/>
<rect x="30.1219" y="36.4753" width="1.58537" height="1.58537" fill="white"/>
<rect x="31.7073" y="36.4753" width="1.58537" height="1.58537" fill="white"/>
<rect x="33.2927" y="36.4753" width="1.58537" height="1.58537" fill="white"/>
<rect x="34.8781" y="36.4753" width="1.58537" height="1.58537" fill="white"/>
<rect x="36.4634" y="36.4753" width="1.58537" height="1.58537" fill="white"/>
<rect x="38.0488" y="36.4753" width="1.58537" height="1.58537" fill="white"/>
<rect x="39.6341" y="36.4753" width="1.58537" height="1.58537" fill="white"/>
<rect x="41.2195" y="36.4753" width="1.58537" height="1.58537" fill="white"/>
<rect x="23.7805" y="38.0607" width="1.58537" height="1.58537" fill="white"/>
<rect x="25.3659" y="38.0607" width="1.58537" height="1.58537" fill="white"/>
<rect x="26.9512" y="38.0607" width="1.58537" height="1.58537" fill="white"/>
<rect x="28.5366" y="38.0607" width="1.58537" height="1.58537" fill="white"/>
<rect x="30.1219" y="38.0607" width="1.58537" height="1.58537" fill="white"/>
<rect x="31.7073" y="38.0607" width="1.58537" height="1.58537" fill="white"/>
<rect x="33.2927" y="38.0607" width="1.58537" height="1.58537" fill="white"/>
<rect x="34.8781" y="38.0607" width="1.58537" height="1.58537" fill="white"/>
<rect x="36.4634" y="38.0607" width="1.58537" height="1.58537" fill="white"/>
<rect x="38.0488" y="38.0607" width="1.58537" height="1.58537" fill="white"/>
<rect x="39.6341" y="38.0607" width="1.58537" height="1.58537" fill="white"/>
<rect x="30.1219" y="39.6461" width="1.58537" height="1.58537" fill="white"/>
<rect x="31.7073" y="39.6461" width="1.58537" height="1.58537" fill="white"/>
<rect x="33.2927" y="39.6461" width="1.58537" height="1.58537" fill="white"/>
</svg>
