<svg width="93" height="103" fill="none" xmlns="http://www.w3.org/2000/svg"><path d="M.176 23V.28h6.976c5.088 0 7.872 2.112 7.872 6.08 0 2.528-1.408 4.384-4.416 4.928 3.712.448 5.376 2.56 5.376 5.504 0 4.096-2.88 6.208-8.128 6.208H.176Zm7.712-3.552c2.624 0 4-1.088 4-3.04 0-1.984-1.376-3.136-4-3.136H4.08v6.176h3.808ZM7.152 9.72c2.592 0 3.776-1.056 3.776-2.976 0-1.888-1.184-2.912-3.776-2.912H4.08V9.72h3.072ZM19.875 23V.28h14.209v3.552H23.779v5.984h9.92v3.52h-9.92v6.112h10.56V23H19.877Zm17.108 0L43.703.28h4.544L54.967 23h-4.128l-1.408-4.928h-6.912L41.111 23h-4.128Zm6.464-8.256h5.056l-2.528-8.96-2.528 8.96Zm20.34 5.696L61.001 8.024V23h-3.904V.28h5.089l2.975 13.376L68.138.28h5.088V23h-3.903V8.024L66.538 20.44h-2.753ZM76.925 23V.28h6.976c5.088 0 7.872 2.112 7.872 6.08 0 2.528-1.408 4.384-4.416 4.928 3.712.448 5.376 2.56 5.376 5.504 0 4.096-2.88 6.208-8.128 6.208h-7.68Zm7.712-3.552c2.624 0 4-1.088 4-3.04 0-1.984-1.376-3.136-4-3.136H80.83v6.176h3.808Zm-.736-9.728c2.592 0 3.776-1.056 3.776-2.976 0-1.888-1.184-2.912-3.776-2.912H80.83V9.72h3.072ZM.688 63V40.28h14.208v3.552H4.592v5.984h9.92v3.52h-9.92v6.112h10.56V63H.688Zm17.108 0 6.72-22.72h4.544L35.78 63H31.65l-1.407-4.928H23.33L21.924 63h-4.128Zm6.463-8.256h5.056l-2.527-8.96-2.529 8.96ZM44.6 60.44l-2.784-12.416V63h-3.904V40.28h5.088l2.976 13.376 2.976-13.376h5.088V63h-3.904V48.024L47.351 60.44h-2.752ZM57.739 63V40.28h6.976c5.087 0 7.871 2.112 7.871 6.08 0 2.528-1.407 4.384-4.415 4.928 3.711.448 5.375 2.56 5.375 5.504 0 4.096-2.88 6.208-8.128 6.208h-7.68Zm7.712-3.552c2.624 0 4-1.088 4-3.04 0-1.984-1.376-3.136-4-3.136h-3.808v6.176h3.808Zm-.736-9.728c2.591 0 3.775-1.056 3.775-2.976 0-1.888-1.183-2.912-3.775-2.912h-3.073v5.888h3.072ZM.688 103V80.28h14.208v3.552H4.592v5.984h9.92v3.52h-9.92v6.112h10.56V103H.688Zm17.108 0 6.72-22.72h4.544L35.78 103H31.65l-1.407-4.928H23.33L21.924 103h-4.128Zm6.463-8.256h5.056l-2.527-8.96-2.529 8.96Zm20.34 5.696-2.784-12.416V103h-3.904V80.28h5.088l2.976 13.376 2.976-13.376h5.088V103h-3.904V88.024l-2.784 12.416h-2.752Z" fill="#fff"/></svg>
