<svg width="65" height="66" viewBox="0 0 65 66" fill="none" xmlns="http://www.w3.org/2000/svg">
<rect y="0.967407" width="2.70833" height="2.70833" fill="white"/>
<rect x="2.70833" y="0.967407" width="2.70833" height="2.70833" fill="white"/>
<rect x="5.41667" y="0.967407" width="2.70833" height="2.70833" fill="white"/>
<rect x="8.125" y="0.967407" width="2.70833" height="2.70833" fill="white"/>
<rect x="10.8333" y="0.967407" width="2.70833" height="2.70833" fill="white"/>
<rect x="13.5417" y="0.967407" width="2.70833" height="2.70833" fill="white"/>
<rect x="16.25" y="0.967407" width="2.70833" height="2.70833" fill="white"/>
<rect x="18.9583" y="0.967407" width="2.70833" height="2.70833" fill="white"/>
<rect x="21.6667" y="0.967407" width="2.70833" height="2.70833" fill="white"/>
<rect x="24.375" y="0.967407" width="2.70833" height="2.70833" fill="white"/>
<rect x="27.0833" y="0.967407" width="2.70833" height="2.70833" fill="white"/>
<rect x="29.7917" y="0.967407" width="2.70833" height="2.70833" fill="white"/>
<rect x="32.5" y="0.967407" width="2.70833" height="2.70833" fill="white"/>
<rect x="35.2083" y="0.967407" width="2.70833" height="2.70833" fill="white"/>
<rect x="37.9167" y="0.967407" width="2.70833" height="2.70833" fill="white"/>
<rect x="40.625" y="0.967407" width="2.70833" height="2.70833" fill="white"/>
<rect x="43.3333" y="0.967407" width="2.70833" height="2.70833" fill="white"/>
<rect x="46.0417" y="0.967407" width="2.70833" height="2.70833" fill="white"/>
<rect x="48.75" y="0.967407" width="2.70833" height="2.70833" fill="white"/>
<rect x="51.4583" y="0.967407" width="2.70833" height="2.70833" fill="white"/>
<rect x="54.1667" y="0.967407" width="2.70833" height="2.70833" fill="white"/>
<rect x="56.875" y="0.967407" width="2.70833" height="2.70833" fill="white"/>
<rect x="59.5833" y="0.967407" width="2.70833" height="2.70833" fill="white"/>
<rect x="62.2917" y="0.967407" width="2.70833" height="2.70833" fill="white"/>
<rect y="3.67578" width="2.70833" height="2.70833" fill="white"/>
<rect x="2.70833" y="3.67578" width="2.70833" height="2.70833" fill="white"/>
<rect x="5.41667" y="3.67578" width="2.70833" height="2.70833" fill="white"/>
<rect x="8.125" y="3.67578" width="2.70833" height="2.70833" fill="white"/>
<rect x="10.8333" y="3.67578" width="2.70833" height="2.70833" fill="white"/>
<rect x="13.5417" y="3.67578" width="2.70833" height="2.70833" fill="white"/>
<rect x="16.25" y="3.67578" width="2.70833" height="2.70833" fill="white"/>
<rect x="18.9583" y="3.67578" width="2.70833" height="2.70833" fill="white"/>
<rect x="21.6667" y="3.67578" width="2.70833" height="2.70833" fill="white"/>
<rect x="24.375" y="3.67578" width="2.70833" height="2.70833" fill="white"/>
<rect x="27.0833" y="3.67578" width="2.70833" height="2.70833" fill="white"/>
<rect x="29.7917" y="3.67578" width="2.70833" height="2.70833" fill="white"/>
<rect x="32.5" y="3.67578" width="2.70833" height="2.70833" fill="white"/>
<rect x="35.2083" y="3.67578" width="2.70833" height="2.70833" fill="white"/>
<rect x="37.9167" y="3.67578" width="2.70833" height="2.70833" fill="white"/>
<rect x="40.625" y="3.67578" width="2.70833" height="2.70833" fill="white"/>
<rect x="43.3333" y="3.67578" width="2.70833" height="2.70833" fill="white"/>
<rect x="46.0417" y="3.67578" width="2.70833" height="2.70833" fill="white"/>
<rect x="48.75" y="3.67578" width="2.70833" height="2.70833" fill="white"/>
<rect x="51.4583" y="3.67578" width="2.70833" height="2.70833" fill="white"/>
<rect x="54.1667" y="3.67578" width="2.70833" height="2.70833" fill="white"/>
<rect x="56.875" y="3.67578" width="2.70833" height="2.70833" fill="white"/>
<rect x="59.5833" y="3.67578" width="2.70833" height="2.70833" fill="white"/>
<rect x="62.2917" y="3.67578" width="2.70833" height="2.70833" fill="white"/>
<rect y="6.38403" width="2.70833" height="2.70833" fill="white"/>
<rect x="2.70833" y="6.38403" width="2.70833" height="2.70833" fill="white"/>
<rect x="5.41667" y="6.38403" width="2.70833" height="2.70833" fill="white"/>
<rect x="8.125" y="6.38403" width="2.70833" height="2.70833" fill="white"/>
<rect x="10.8333" y="6.38403" width="2.70833" height="2.70833" fill="white"/>
<rect x="13.5417" y="6.38403" width="2.70833" height="2.70833" fill="white"/>
<rect x="16.25" y="6.38403" width="2.70833" height="2.70833" fill="white"/>
<rect x="18.9583" y="6.38403" width="2.70833" height="2.70833" fill="white"/>
<rect x="21.6667" y="6.38403" width="2.70833" height="2.70833" fill="white"/>
<rect x="24.375" y="6.38403" width="2.70833" height="2.70833" fill="white"/>
<rect x="27.0833" y="6.38403" width="2.70833" height="2.70833" fill="white"/>
<rect x="29.7917" y="6.38403" width="2.70833" height="2.70833" fill="white"/>
<rect x="32.5" y="6.38403" width="2.70833" height="2.70833" fill="white"/>
<rect x="35.2083" y="6.38403" width="2.70833" height="2.70833" fill="white"/>
<rect x="37.9167" y="6.38403" width="2.70833" height="2.70833" fill="white"/>
<rect x="40.625" y="6.38403" width="2.70833" height="2.70833" fill="white"/>
<rect x="43.3333" y="6.38403" width="2.70833" height="2.70833" fill="white"/>
<rect x="46.0417" y="6.38403" width="2.70833" height="2.70833" fill="white"/>
<rect x="48.75" y="6.38403" width="2.70833" height="2.70833" fill="white"/>
<rect x="51.4583" y="6.38403" width="2.70833" height="2.70833" fill="white"/>
<rect x="54.1667" y="6.38403" width="2.70833" height="2.70833" fill="white"/>
<rect x="56.875" y="6.38403" width="2.70833" height="2.70833" fill="white"/>
<rect x="59.5833" y="6.38403" width="2.70833" height="2.70833" fill="white"/>
<rect x="62.2917" y="6.38403" width="2.70833" height="2.70833" fill="white"/>
<rect y="9.09241" width="2.70833" height="2.70833" fill="white"/>
<rect x="2.70833" y="9.09241" width="2.70833" height="2.70833" fill="white"/>
<rect x="5.41667" y="9.09241" width="2.70833" height="2.70833" fill="white"/>
<rect x="8.125" y="9.09241" width="2.70833" height="2.70833" fill="white"/>
<rect x="10.8333" y="9.09241" width="2.70833" height="2.70833" fill="white"/>
<rect x="13.5417" y="9.09241" width="2.70833" height="2.70833" fill="white"/>
<rect x="16.25" y="9.09241" width="2.70833" height="2.70833" fill="white"/>
<rect x="18.9583" y="9.09241" width="2.70833" height="2.70833" fill="white"/>
<rect x="21.6667" y="9.09241" width="2.70833" height="2.70833" fill="white"/>
<rect x="24.375" y="9.09241" width="2.70833" height="2.70833" fill="white"/>
<rect x="27.0833" y="9.09241" width="2.70833" height="2.70833" fill="white"/>
<rect x="29.7917" y="9.09241" width="2.70833" height="2.70833" fill="white"/>
<rect x="32.5" y="9.09241" width="2.70833" height="2.70833" fill="white"/>
<rect x="35.2083" y="9.09241" width="2.70833" height="2.70833" fill="white"/>
<rect x="37.9167" y="9.09241" width="2.70833" height="2.70833" fill="white"/>
<rect x="40.625" y="9.09241" width="2.70833" height="2.70833" fill="white"/>
<rect x="43.3333" y="9.09241" width="2.70833" height="2.70833" fill="white"/>
<rect x="46.0417" y="9.09241" width="2.70833" height="2.70833" fill="white"/>
<rect x="48.75" y="9.09241" width="2.70833" height="2.70833" fill="white"/>
<rect x="51.4583" y="9.09241" width="2.70833" height="2.70833" fill="white"/>
<rect x="54.1667" y="9.09241" width="2.70833" height="2.70833" fill="white"/>
<rect x="56.875" y="9.09241" width="2.70833" height="2.70833" fill="white"/>
<rect x="59.5833" y="9.09241" width="2.70833" height="2.70833" fill="white"/>
<rect x="62.2917" y="9.09241" width="2.70833" height="2.70833" fill="white"/>
<rect y="11.8008" width="2.70833" height="2.70833" fill="white"/>
<rect x="2.70833" y="11.8008" width="2.70833" height="2.70833" fill="white"/>
<rect x="5.41667" y="11.8008" width="2.70833" height="2.70833" fill="white"/>
<rect x="8.125" y="11.8008" width="2.70833" height="2.70833" fill="white"/>
<rect x="10.8333" y="11.8008" width="2.70833" height="2.70833" fill="white"/>
<rect x="13.5417" y="11.8008" width="2.70833" height="2.70833" fill="white"/>
<rect x="16.25" y="11.8008" width="2.70833" height="2.70833" fill="white"/>
<rect x="18.9583" y="11.8008" width="2.70833" height="2.70833" fill="white"/>
<rect x="21.6667" y="11.8008" width="2.70833" height="2.70833" fill="white"/>
<rect x="24.375" y="11.8008" width="2.70833" height="2.70833" fill="white"/>
<rect x="27.0833" y="11.8008" width="2.70833" height="2.70833" fill="white"/>
<rect x="29.7917" y="11.8008" width="2.70833" height="2.70833" fill="white"/>
<rect x="32.5" y="11.8008" width="2.70833" height="2.70833" fill="white"/>
<rect x="35.2083" y="11.8008" width="2.70833" height="2.70833" fill="white"/>
<rect x="37.9167" y="11.8008" width="2.70833" height="2.70833" fill="white"/>
<rect x="40.625" y="11.8008" width="2.70833" height="2.70833" fill="white"/>
<rect x="43.3333" y="11.8008" width="2.70833" height="2.70833" fill="white"/>
<rect x="46.0417" y="11.8008" width="2.70833" height="2.70833" fill="white"/>
<rect x="48.75" y="11.8008" width="2.70833" height="2.70833" fill="white"/>
<rect x="51.4583" y="11.8008" width="2.70833" height="2.70833" fill="white"/>
<rect x="54.1667" y="11.8008" width="2.70833" height="2.70833" fill="white"/>
<rect x="56.875" y="11.8008" width="2.70833" height="2.70833" fill="white"/>
<rect x="59.5833" y="11.8008" width="2.70833" height="2.70833" fill="white"/>
<rect x="62.2917" y="11.8008" width="2.70833" height="2.70833" fill="white"/>
<rect y="14.509" width="2.70833" height="2.70833" fill="white"/>
<rect x="2.70833" y="14.509" width="2.70833" height="2.70833" fill="white"/>
<rect x="5.41667" y="14.509" width="2.70833" height="2.70833" fill="white"/>
<rect x="8.125" y="14.509" width="2.70833" height="2.70833" fill="white"/>
<rect x="10.8333" y="14.509" width="2.70833" height="2.70833" fill="white"/>
<rect x="13.5417" y="14.509" width="2.70833" height="2.70833" fill="white"/>
<rect x="24.375" y="14.509" width="2.70833" height="2.70833" fill="white"/>
<rect x="27.0833" y="14.509" width="2.70833" height="2.70833" fill="white"/>
<rect x="29.7917" y="14.509" width="2.70833" height="2.70833" fill="white"/>
<rect x="32.5" y="14.509" width="2.70833" height="2.70833" fill="white"/>
<rect x="35.2083" y="14.509" width="2.70833" height="2.70833" fill="white"/>
<rect x="46.0417" y="14.509" width="2.70833" height="2.70833" fill="white"/>
<rect x="48.75" y="14.509" width="2.70833" height="2.70833" fill="white"/>
<rect x="51.4583" y="14.509" width="2.70833" height="2.70833" fill="white"/>
<rect x="54.1667" y="14.509" width="2.70833" height="2.70833" fill="white"/>
<rect x="56.875" y="14.509" width="2.70833" height="2.70833" fill="white"/>
<rect x="59.5833" y="14.509" width="2.70833" height="2.70833" fill="white"/>
<rect x="62.2917" y="14.509" width="2.70833" height="2.70833" fill="white"/>
<rect y="17.2174" width="2.70833" height="2.70833" fill="white"/>
<rect x="2.70833" y="17.2174" width="2.70833" height="2.70833" fill="white"/>
<rect x="5.41667" y="17.2174" width="2.70833" height="2.70833" fill="white"/>
<rect x="8.125" y="17.2174" width="2.70833" height="2.70833" fill="white"/>
<rect x="10.8333" y="17.2174" width="2.70833" height="2.70833" fill="white"/>
<rect x="13.5417" y="17.2174" width="2.70833" height="2.70833" fill="white"/>
<rect x="24.375" y="17.2174" width="2.70833" height="2.70833" fill="white"/>
<rect x="27.0833" y="17.2174" width="2.70833" height="2.70833" fill="white"/>
<rect x="29.7917" y="17.2174" width="2.70833" height="2.70833" fill="white"/>
<rect x="32.5" y="17.2174" width="2.70833" height="2.70833" fill="white"/>
<rect x="43.3333" y="17.2174" width="2.70833" height="2.70833" fill="white"/>
<rect x="46.0417" y="17.2174" width="2.70833" height="2.70833" fill="white"/>
<rect x="48.75" y="17.2174" width="2.70833" height="2.70833" fill="white"/>
<rect x="51.4583" y="17.2174" width="2.70833" height="2.70833" fill="white"/>
<rect x="54.1667" y="17.2174" width="2.70833" height="2.70833" fill="white"/>
<rect x="56.875" y="17.2174" width="2.70833" height="2.70833" fill="white"/>
<rect x="59.5833" y="17.2174" width="2.70833" height="2.70833" fill="white"/>
<rect x="62.2917" y="17.2174" width="2.70833" height="2.70833" fill="white"/>
<rect y="19.9258" width="2.70833" height="2.70833" fill="white"/>
<rect x="2.70833" y="19.9258" width="2.70833" height="2.70833" fill="white"/>
<rect x="5.41667" y="19.9258" width="2.70833" height="2.70833" fill="white"/>
<rect x="8.125" y="19.9258" width="2.70833" height="2.70833" fill="white"/>
<rect x="10.8333" y="19.9258" width="2.70833" height="2.70833" fill="white"/>
<rect x="13.5417" y="19.9258" width="2.70833" height="2.70833" fill="white"/>
<rect x="24.375" y="19.9258" width="2.70833" height="2.70833" fill="white"/>
<rect x="27.0833" y="19.9258" width="2.70833" height="2.70833" fill="white"/>
<rect x="29.7917" y="19.9258" width="2.70833" height="2.70833" fill="white"/>
<rect x="40.625" y="19.9258" width="2.70833" height="2.70833" fill="white"/>
<rect x="43.3333" y="19.9258" width="2.70833" height="2.70833" fill="white"/>
<rect x="46.0417" y="19.9258" width="2.70833" height="2.70833" fill="white"/>
<rect x="48.75" y="19.9258" width="2.70833" height="2.70833" fill="white"/>
<rect x="51.4583" y="19.9258" width="2.70833" height="2.70833" fill="white"/>
<rect x="54.1667" y="19.9258" width="2.70833" height="2.70833" fill="white"/>
<rect x="56.875" y="19.9258" width="2.70833" height="2.70833" fill="white"/>
<rect x="59.5833" y="19.9258" width="2.70833" height="2.70833" fill="white"/>
<rect x="62.2917" y="19.9258" width="2.70833" height="2.70833" fill="white"/>
<rect y="22.634" width="2.70833" height="2.70833" fill="white"/>
<rect x="2.70833" y="22.634" width="2.70833" height="2.70833" fill="white"/>
<rect x="5.41667" y="22.634" width="2.70833" height="2.70833" fill="white"/>
<rect x="8.125" y="22.634" width="2.70833" height="2.70833" fill="white"/>
<rect x="10.8333" y="22.634" width="2.70833" height="2.70833" fill="white"/>
<rect x="13.5417" y="22.634" width="2.70833" height="2.70833" fill="white"/>
<rect x="24.375" y="22.634" width="2.70833" height="2.70833" fill="white"/>
<rect x="27.0833" y="22.634" width="2.70833" height="2.70833" fill="white"/>
<rect x="37.9167" y="22.634" width="2.70833" height="2.70833" fill="white"/>
<rect x="40.625" y="22.634" width="2.70833" height="2.70833" fill="white"/>
<rect x="43.3333" y="22.634" width="2.70833" height="2.70833" fill="white"/>
<rect x="46.0417" y="22.634" width="2.70833" height="2.70833" fill="white"/>
<rect x="48.75" y="22.634" width="2.70833" height="2.70833" fill="white"/>
<rect x="51.4583" y="22.634" width="2.70833" height="2.70833" fill="white"/>
<rect x="54.1667" y="22.634" width="2.70833" height="2.70833" fill="white"/>
<rect x="56.875" y="22.634" width="2.70833" height="2.70833" fill="white"/>
<rect x="59.5833" y="22.634" width="2.70833" height="2.70833" fill="white"/>
<rect x="62.2917" y="22.634" width="2.70833" height="2.70833" fill="white"/>
<rect y="25.3424" width="2.70833" height="2.70833" fill="white"/>
<rect x="2.70833" y="25.3424" width="2.70833" height="2.70833" fill="white"/>
<rect x="5.41667" y="25.3424" width="2.70833" height="2.70833" fill="white"/>
<rect x="8.125" y="25.3424" width="2.70833" height="2.70833" fill="white"/>
<rect x="10.8333" y="25.3424" width="2.70833" height="2.70833" fill="white"/>
<rect x="13.5417" y="25.3424" width="2.70833" height="2.70833" fill="white"/>
<rect x="24.375" y="25.3424" width="2.70833" height="2.70833" fill="white"/>
<rect x="35.2083" y="25.3424" width="2.70833" height="2.70833" fill="white"/>
<rect x="37.9167" y="25.3424" width="2.70833" height="2.70833" fill="white"/>
<rect x="40.625" y="25.3424" width="2.70833" height="2.70833" fill="white"/>
<rect x="43.3333" y="25.3424" width="2.70833" height="2.70833" fill="white"/>
<rect x="46.0417" y="25.3424" width="2.70833" height="2.70833" fill="white"/>
<rect x="48.75" y="25.3424" width="2.70833" height="2.70833" fill="white"/>
<rect x="51.4583" y="25.3424" width="2.70833" height="2.70833" fill="white"/>
<rect x="54.1667" y="25.3424" width="2.70833" height="2.70833" fill="white"/>
<rect x="56.875" y="25.3424" width="2.70833" height="2.70833" fill="white"/>
<rect x="59.5833" y="25.3424" width="2.70833" height="2.70833" fill="white"/>
<rect x="62.2917" y="25.3424" width="2.70833" height="2.70833" fill="white"/>
<rect y="28.0508" width="2.70833" height="2.70833" fill="white"/>
<rect x="2.70833" y="28.0508" width="2.70833" height="2.70833" fill="white"/>
<rect x="5.41667" y="28.0508" width="2.70833" height="2.70833" fill="white"/>
<rect x="8.125" y="28.0508" width="2.70833" height="2.70833" fill="white"/>
<rect x="10.8333" y="28.0508" width="2.70833" height="2.70833" fill="white"/>
<rect x="13.5417" y="28.0508" width="2.70833" height="2.70833" fill="white"/>
<rect x="32.5" y="28.0508" width="2.70833" height="2.70833" fill="white"/>
<rect x="35.2083" y="28.0508" width="2.70833" height="2.70833" fill="white"/>
<rect x="37.9167" y="28.0508" width="2.70833" height="2.70833" fill="white"/>
<rect x="40.625" y="28.0508" width="2.70833" height="2.70833" fill="white"/>
<rect x="43.3333" y="28.0508" width="2.70833" height="2.70833" fill="white"/>
<rect x="46.0417" y="28.0508" width="2.70833" height="2.70833" fill="white"/>
<rect x="48.75" y="28.0508" width="2.70833" height="2.70833" fill="white"/>
<rect x="51.4583" y="28.0508" width="2.70833" height="2.70833" fill="white"/>
<rect x="54.1667" y="28.0508" width="2.70833" height="2.70833" fill="white"/>
<rect x="56.875" y="28.0508" width="2.70833" height="2.70833" fill="white"/>
<rect x="59.5833" y="28.0508" width="2.70833" height="2.70833" fill="white"/>
<rect x="62.2917" y="28.0508" width="2.70833" height="2.70833" fill="white"/>
<rect y="30.759" width="2.70833" height="2.70833" fill="white"/>
<rect x="2.70833" y="30.759" width="2.70833" height="2.70833" fill="white"/>
<rect x="5.41667" y="30.759" width="2.70833" height="2.70833" fill="white"/>
<rect x="8.125" y="30.759" width="2.70833" height="2.70833" fill="white"/>
<rect x="10.8333" y="30.759" width="2.70833" height="2.70833" fill="white"/>
<rect x="13.5417" y="30.759" width="2.70833" height="2.70833" fill="white"/>
<rect x="35.2083" y="30.759" width="2.70833" height="2.70833" fill="white"/>
<rect x="37.9167" y="30.759" width="2.70833" height="2.70833" fill="white"/>
<rect x="40.625" y="30.759" width="2.70833" height="2.70833" fill="white"/>
<rect x="43.3333" y="30.759" width="2.70833" height="2.70833" fill="white"/>
<rect x="46.0417" y="30.759" width="2.70833" height="2.70833" fill="white"/>
<rect x="48.75" y="30.759" width="2.70833" height="2.70833" fill="white"/>
<rect x="51.4583" y="30.759" width="2.70833" height="2.70833" fill="white"/>
<rect x="54.1667" y="30.759" width="2.70833" height="2.70833" fill="white"/>
<rect x="56.875" y="30.759" width="2.70833" height="2.70833" fill="white"/>
<rect x="59.5833" y="30.759" width="2.70833" height="2.70833" fill="white"/>
<rect x="62.2917" y="30.759" width="2.70833" height="2.70833" fill="white"/>
<rect y="33.4674" width="2.70833" height="2.70833" fill="white"/>
<rect x="2.70833" y="33.4674" width="2.70833" height="2.70833" fill="white"/>
<rect x="5.41667" y="33.4674" width="2.70833" height="2.70833" fill="white"/>
<rect x="8.125" y="33.4674" width="2.70833" height="2.70833" fill="white"/>
<rect x="10.8333" y="33.4674" width="2.70833" height="2.70833" fill="white"/>
<rect x="13.5417" y="33.4674" width="2.70833" height="2.70833" fill="white"/>
<rect x="27.0833" y="33.4674" width="2.70833" height="2.70833" fill="white"/>
<rect x="37.9167" y="33.4674" width="2.70833" height="2.70833" fill="white"/>
<rect x="40.625" y="33.4674" width="2.70833" height="2.70833" fill="white"/>
<rect x="43.3333" y="33.4674" width="2.70833" height="2.70833" fill="white"/>
<rect x="46.0417" y="33.4674" width="2.70833" height="2.70833" fill="white"/>
<rect x="48.75" y="33.4674" width="2.70833" height="2.70833" fill="white"/>
<rect x="51.4583" y="33.4674" width="2.70833" height="2.70833" fill="white"/>
<rect x="54.1667" y="33.4674" width="2.70833" height="2.70833" fill="white"/>
<rect x="56.875" y="33.4674" width="2.70833" height="2.70833" fill="white"/>
<rect x="59.5833" y="33.4674" width="2.70833" height="2.70833" fill="white"/>
<rect x="62.2917" y="33.4674" width="2.70833" height="2.70833" fill="white"/>
<rect y="36.1758" width="2.70833" height="2.70833" fill="white"/>
<rect x="2.70833" y="36.1758" width="2.70833" height="2.70833" fill="white"/>
<rect x="5.41667" y="36.1758" width="2.70833" height="2.70833" fill="white"/>
<rect x="8.125" y="36.1758" width="2.70833" height="2.70833" fill="white"/>
<rect x="10.8333" y="36.1758" width="2.70833" height="2.70833" fill="white"/>
<rect x="13.5417" y="36.1758" width="2.70833" height="2.70833" fill="white"/>
<rect x="24.375" y="36.1758" width="2.70833" height="2.70833" fill="white"/>
<rect x="27.0833" y="36.1758" width="2.70833" height="2.70833" fill="white"/>
<rect x="29.7917" y="36.1758" width="2.70833" height="2.70833" fill="white"/>
<rect x="37.9167" y="36.1758" width="2.70833" height="2.70833" fill="white"/>
<rect x="40.625" y="36.1758" width="2.70833" height="2.70833" fill="white"/>
<rect x="43.3333" y="36.1758" width="2.70833" height="2.70833" fill="white"/>
<rect x="46.0417" y="36.1758" width="2.70833" height="2.70833" fill="white"/>
<rect x="48.75" y="36.1758" width="2.70833" height="2.70833" fill="white"/>
<rect x="51.4583" y="36.1758" width="2.70833" height="2.70833" fill="white"/>
<rect x="54.1667" y="36.1758" width="2.70833" height="2.70833" fill="white"/>
<rect x="56.875" y="36.1758" width="2.70833" height="2.70833" fill="white"/>
<rect x="59.5833" y="36.1758" width="2.70833" height="2.70833" fill="white"/>
<rect x="62.2917" y="36.1758" width="2.70833" height="2.70833" fill="white"/>
<rect y="38.884" width="2.70833" height="2.70833" fill="white"/>
<rect x="2.70833" y="38.884" width="2.70833" height="2.70833" fill="white"/>
<rect x="5.41667" y="38.884" width="2.70833" height="2.70833" fill="white"/>
<rect x="8.125" y="38.884" width="2.70833" height="2.70833" fill="white"/>
<rect x="10.8333" y="38.884" width="2.70833" height="2.70833" fill="white"/>
<rect x="13.5417" y="38.884" width="2.70833" height="2.70833" fill="white"/>
<rect x="24.375" y="38.884" width="2.70833" height="2.70833" fill="white"/>
<rect x="27.0833" y="38.884" width="2.70833" height="2.70833" fill="white"/>
<rect x="29.7917" y="38.884" width="2.70833" height="2.70833" fill="white"/>
<rect x="40.625" y="38.884" width="2.70833" height="2.70833" fill="white"/>
<rect x="43.3333" y="38.884" width="2.70833" height="2.70833" fill="white"/>
<rect x="46.0417" y="38.884" width="2.70833" height="2.70833" fill="white"/>
<rect x="48.75" y="38.884" width="2.70833" height="2.70833" fill="white"/>
<rect x="51.4583" y="38.884" width="2.70833" height="2.70833" fill="white"/>
<rect x="54.1667" y="38.884" width="2.70833" height="2.70833" fill="white"/>
<rect x="56.875" y="38.884" width="2.70833" height="2.70833" fill="white"/>
<rect x="59.5833" y="38.884" width="2.70833" height="2.70833" fill="white"/>
<rect x="62.2917" y="38.884" width="2.70833" height="2.70833" fill="white"/>
<rect y="41.5924" width="2.70833" height="2.70833" fill="white"/>
<rect x="2.70833" y="41.5924" width="2.70833" height="2.70833" fill="white"/>
<rect x="5.41667" y="41.5924" width="2.70833" height="2.70833" fill="white"/>
<rect x="8.125" y="41.5924" width="2.70833" height="2.70833" fill="white"/>
<rect x="10.8333" y="41.5924" width="2.70833" height="2.70833" fill="white"/>
<rect x="13.5417" y="41.5924" width="2.70833" height="2.70833" fill="white"/>
<rect x="24.375" y="41.5924" width="2.70833" height="2.70833" fill="white"/>
<rect x="27.0833" y="41.5924" width="2.70833" height="2.70833" fill="white"/>
<rect x="29.7917" y="41.5924" width="2.70833" height="2.70833" fill="white"/>
<rect x="32.5" y="41.5924" width="2.70833" height="2.70833" fill="white"/>
<rect x="43.3333" y="41.5924" width="2.70833" height="2.70833" fill="white"/>
<rect x="46.0417" y="41.5924" width="2.70833" height="2.70833" fill="white"/>
<rect x="48.75" y="41.5924" width="2.70833" height="2.70833" fill="white"/>
<rect x="51.4583" y="41.5924" width="2.70833" height="2.70833" fill="white"/>
<rect x="54.1667" y="41.5924" width="2.70833" height="2.70833" fill="white"/>
<rect x="56.875" y="41.5924" width="2.70833" height="2.70833" fill="white"/>
<rect x="59.5833" y="41.5924" width="2.70833" height="2.70833" fill="white"/>
<rect x="62.2917" y="41.5924" width="2.70833" height="2.70833" fill="white"/>
<rect y="44.3008" width="2.70833" height="2.70833" fill="white"/>
<rect x="2.70833" y="44.3008" width="2.70833" height="2.70833" fill="white"/>
<rect x="5.41667" y="44.3008" width="2.70833" height="2.70833" fill="white"/>
<rect x="8.125" y="44.3008" width="2.70833" height="2.70833" fill="white"/>
<rect x="10.8333" y="44.3008" width="2.70833" height="2.70833" fill="white"/>
<rect x="13.5417" y="44.3008" width="2.70833" height="2.70833" fill="white"/>
<rect x="24.375" y="44.3008" width="2.70833" height="2.70833" fill="white"/>
<rect x="27.0833" y="44.3008" width="2.70833" height="2.70833" fill="white"/>
<rect x="29.7917" y="44.3008" width="2.70833" height="2.70833" fill="white"/>
<rect x="32.5" y="44.3008" width="2.70833" height="2.70833" fill="white"/>
<rect x="35.2083" y="44.3008" width="2.70833" height="2.70833" fill="white"/>
<rect x="43.3333" y="44.3008" width="2.70833" height="2.70833" fill="white"/>
<rect x="46.0417" y="44.3008" width="2.70833" height="2.70833" fill="white"/>
<rect x="48.75" y="44.3008" width="2.70833" height="2.70833" fill="white"/>
<rect x="51.4583" y="44.3008" width="2.70833" height="2.70833" fill="white"/>
<rect x="54.1667" y="44.3008" width="2.70833" height="2.70833" fill="white"/>
<rect x="56.875" y="44.3008" width="2.70833" height="2.70833" fill="white"/>
<rect x="59.5833" y="44.3008" width="2.70833" height="2.70833" fill="white"/>
<rect x="62.2917" y="44.3008" width="2.70833" height="2.70833" fill="white"/>
<rect y="47.009" width="2.70833" height="2.70833" fill="white"/>
<rect x="2.70833" y="47.009" width="2.70833" height="2.70833" fill="white"/>
<rect x="5.41667" y="47.009" width="2.70833" height="2.70833" fill="white"/>
<rect x="8.125" y="47.009" width="2.70833" height="2.70833" fill="white"/>
<rect x="10.8333" y="47.009" width="2.70833" height="2.70833" fill="white"/>
<rect x="13.5417" y="47.009" width="2.70833" height="2.70833" fill="white"/>
<rect x="24.375" y="47.009" width="2.70833" height="2.70833" fill="white"/>
<rect x="27.0833" y="47.009" width="2.70833" height="2.70833" fill="white"/>
<rect x="29.7917" y="47.009" width="2.70833" height="2.70833" fill="white"/>
<rect x="32.5" y="47.009" width="2.70833" height="2.70833" fill="white"/>
<rect x="35.2083" y="47.009" width="2.70833" height="2.70833" fill="white"/>
<rect x="46.0417" y="47.009" width="2.70833" height="2.70833" fill="white"/>
<rect x="48.75" y="47.009" width="2.70833" height="2.70833" fill="white"/>
<rect x="51.4583" y="47.009" width="2.70833" height="2.70833" fill="white"/>
<rect x="54.1667" y="47.009" width="2.70833" height="2.70833" fill="white"/>
<rect x="56.875" y="47.009" width="2.70833" height="2.70833" fill="white"/>
<rect x="59.5833" y="47.009" width="2.70833" height="2.70833" fill="white"/>
<rect x="62.2917" y="47.009" width="2.70833" height="2.70833" fill="white"/>
<rect y="49.7174" width="2.70833" height="2.70833" fill="white"/>
<rect x="2.70833" y="49.7174" width="2.70833" height="2.70833" fill="white"/>
<rect x="5.41667" y="49.7174" width="2.70833" height="2.70833" fill="white"/>
<rect x="8.125" y="49.7174" width="2.70833" height="2.70833" fill="white"/>
<rect x="10.8333" y="49.7174" width="2.70833" height="2.70833" fill="white"/>
<rect x="13.5417" y="49.7174" width="2.70833" height="2.70833" fill="white"/>
<rect x="24.375" y="49.7174" width="2.70833" height="2.70833" fill="white"/>
<rect x="27.0833" y="49.7174" width="2.70833" height="2.70833" fill="white"/>
<rect x="29.7917" y="49.7174" width="2.70833" height="2.70833" fill="white"/>
<rect x="32.5" y="49.7174" width="2.70833" height="2.70833" fill="white"/>
<rect x="35.2083" y="49.7174" width="2.70833" height="2.70833" fill="white"/>
<rect x="37.9167" y="49.7174" width="2.70833" height="2.70833" fill="white"/>
<rect x="48.75" y="49.7174" width="2.70833" height="2.70833" fill="white"/>
<rect x="51.4583" y="49.7174" width="2.70833" height="2.70833" fill="white"/>
<rect x="54.1667" y="49.7174" width="2.70833" height="2.70833" fill="white"/>
<rect x="56.875" y="49.7174" width="2.70833" height="2.70833" fill="white"/>
<rect x="59.5833" y="49.7174" width="2.70833" height="2.70833" fill="white"/>
<rect x="62.2917" y="49.7174" width="2.70833" height="2.70833" fill="white"/>
<rect y="52.4258" width="2.70833" height="2.70833" fill="white"/>
<rect x="2.70833" y="52.4258" width="2.70833" height="2.70833" fill="white"/>
<rect x="5.41667" y="52.4258" width="2.70833" height="2.70833" fill="white"/>
<rect x="8.125" y="52.4258" width="2.70833" height="2.70833" fill="white"/>
<rect x="10.8333" y="52.4258" width="2.70833" height="2.70833" fill="white"/>
<rect x="13.5417" y="52.4258" width="2.70833" height="2.70833" fill="white"/>
<rect x="16.25" y="52.4258" width="2.70833" height="2.70833" fill="white"/>
<rect x="18.9583" y="52.4258" width="2.70833" height="2.70833" fill="white"/>
<rect x="21.6667" y="52.4258" width="2.70833" height="2.70833" fill="white"/>
<rect x="24.375" y="52.4258" width="2.70833" height="2.70833" fill="white"/>
<rect x="27.0833" y="52.4258" width="2.70833" height="2.70833" fill="white"/>
<rect x="29.7917" y="52.4258" width="2.70833" height="2.70833" fill="white"/>
<rect x="32.5" y="52.4258" width="2.70833" height="2.70833" fill="white"/>
<rect x="35.2083" y="52.4258" width="2.70833" height="2.70833" fill="white"/>
<rect x="37.9167" y="52.4258" width="2.70833" height="2.70833" fill="white"/>
<rect x="40.625" y="52.4258" width="2.70833" height="2.70833" fill="white"/>
<rect x="43.3333" y="52.4258" width="2.70833" height="2.70833" fill="white"/>
<rect x="46.0417" y="52.4258" width="2.70833" height="2.70833" fill="white"/>
<rect x="48.75" y="52.4258" width="2.70833" height="2.70833" fill="white"/>
<rect x="51.4583" y="52.4258" width="2.70833" height="2.70833" fill="white"/>
<rect x="54.1667" y="52.4258" width="2.70833" height="2.70833" fill="white"/>
<rect x="56.875" y="52.4258" width="2.70833" height="2.70833" fill="white"/>
<rect x="59.5833" y="52.4258" width="2.70833" height="2.70833" fill="white"/>
<rect x="62.2917" y="52.4258" width="2.70833" height="2.70833" fill="white"/>
<rect y="55.134" width="2.70833" height="2.70833" fill="white"/>
<rect x="2.70833" y="55.134" width="2.70833" height="2.70833" fill="white"/>
<rect x="5.41667" y="55.134" width="2.70833" height="2.70833" fill="white"/>
<rect x="8.125" y="55.134" width="2.70833" height="2.70833" fill="white"/>
<rect x="10.8333" y="55.134" width="2.70833" height="2.70833" fill="white"/>
<rect x="13.5417" y="55.134" width="2.70833" height="2.70833" fill="white"/>
<rect x="16.25" y="55.134" width="2.70833" height="2.70833" fill="white"/>
<rect x="18.9583" y="55.134" width="2.70833" height="2.70833" fill="white"/>
<rect x="21.6667" y="55.134" width="2.70833" height="2.70833" fill="white"/>
<rect x="24.375" y="55.134" width="2.70833" height="2.70833" fill="white"/>
<rect x="27.0833" y="55.134" width="2.70833" height="2.70833" fill="white"/>
<rect x="29.7917" y="55.134" width="2.70833" height="2.70833" fill="white"/>
<rect x="32.5" y="55.134" width="2.70833" height="2.70833" fill="white"/>
<rect x="35.2083" y="55.134" width="2.70833" height="2.70833" fill="white"/>
<rect x="37.9167" y="55.134" width="2.70833" height="2.70833" fill="white"/>
<rect x="40.625" y="55.134" width="2.70833" height="2.70833" fill="white"/>
<rect x="43.3333" y="55.134" width="2.70833" height="2.70833" fill="white"/>
<rect x="46.0417" y="55.134" width="2.70833" height="2.70833" fill="white"/>
<rect x="48.75" y="55.134" width="2.70833" height="2.70833" fill="white"/>
<rect x="51.4583" y="55.134" width="2.70833" height="2.70833" fill="white"/>
<rect x="54.1667" y="55.134" width="2.70833" height="2.70833" fill="white"/>
<rect x="56.875" y="55.134" width="2.70833" height="2.70833" fill="white"/>
<rect x="59.5833" y="55.134" width="2.70833" height="2.70833" fill="white"/>
<rect x="62.2917" y="55.134" width="2.70833" height="2.70833" fill="white"/>
<rect y="57.8424" width="2.70833" height="2.70833" fill="white"/>
<rect x="2.70833" y="57.8424" width="2.70833" height="2.70833" fill="white"/>
<rect x="5.41667" y="57.8424" width="2.70833" height="2.70833" fill="white"/>
<rect x="8.125" y="57.8424" width="2.70833" height="2.70833" fill="white"/>
<rect x="10.8333" y="57.8424" width="2.70833" height="2.70833" fill="white"/>
<rect x="13.5417" y="57.8424" width="2.70833" height="2.70833" fill="white"/>
<rect x="16.25" y="57.8424" width="2.70833" height="2.70833" fill="white"/>
<rect x="18.9583" y="57.8424" width="2.70833" height="2.70833" fill="white"/>
<rect x="21.6667" y="57.8424" width="2.70833" height="2.70833" fill="white"/>
<rect x="24.375" y="57.8424" width="2.70833" height="2.70833" fill="white"/>
<rect x="27.0833" y="57.8424" width="2.70833" height="2.70833" fill="white"/>
<rect x="29.7917" y="57.8424" width="2.70833" height="2.70833" fill="white"/>
<rect x="32.5" y="57.8424" width="2.70833" height="2.70833" fill="white"/>
<rect x="35.2083" y="57.8424" width="2.70833" height="2.70833" fill="white"/>
<rect x="37.9167" y="57.8424" width="2.70833" height="2.70833" fill="white"/>
<rect x="40.625" y="57.8424" width="2.70833" height="2.70833" fill="white"/>
<rect x="43.3333" y="57.8424" width="2.70833" height="2.70833" fill="white"/>
<rect x="46.0417" y="57.8424" width="2.70833" height="2.70833" fill="white"/>
<rect x="48.75" y="57.8424" width="2.70833" height="2.70833" fill="white"/>
<rect x="51.4583" y="57.8424" width="2.70833" height="2.70833" fill="white"/>
<rect x="54.1667" y="57.8424" width="2.70833" height="2.70833" fill="white"/>
<rect x="56.875" y="57.8424" width="2.70833" height="2.70833" fill="white"/>
<rect x="59.5833" y="57.8424" width="2.70833" height="2.70833" fill="white"/>
<rect x="62.2917" y="57.8424" width="2.70833" height="2.70833" fill="white"/>
<rect y="60.5508" width="2.70833" height="2.70833" fill="white"/>
<rect x="2.70833" y="60.5508" width="2.70833" height="2.70833" fill="white"/>
<rect x="5.41667" y="60.5508" width="2.70833" height="2.70833" fill="white"/>
<rect x="8.125" y="60.5508" width="2.70833" height="2.70833" fill="white"/>
<rect x="10.8333" y="60.5508" width="2.70833" height="2.70833" fill="white"/>
<rect x="13.5417" y="60.5508" width="2.70833" height="2.70833" fill="white"/>
<rect x="16.25" y="60.5508" width="2.70833" height="2.70833" fill="white"/>
<rect x="18.9583" y="60.5508" width="2.70833" height="2.70833" fill="white"/>
<rect x="21.6667" y="60.5508" width="2.70833" height="2.70833" fill="white"/>
<rect x="24.375" y="60.5508" width="2.70833" height="2.70833" fill="white"/>
<rect x="27.0833" y="60.5508" width="2.70833" height="2.70833" fill="white"/>
<rect x="29.7917" y="60.5508" width="2.70833" height="2.70833" fill="white"/>
<rect x="32.5" y="60.5508" width="2.70833" height="2.70833" fill="white"/>
<rect x="35.2083" y="60.5508" width="2.70833" height="2.70833" fill="white"/>
<rect x="37.9167" y="60.5508" width="2.70833" height="2.70833" fill="white"/>
<rect x="40.625" y="60.5508" width="2.70833" height="2.70833" fill="white"/>
<rect x="43.3333" y="60.5508" width="2.70833" height="2.70833" fill="white"/>
<rect x="46.0417" y="60.5508" width="2.70833" height="2.70833" fill="white"/>
<rect x="48.75" y="60.5508" width="2.70833" height="2.70833" fill="white"/>
<rect x="51.4583" y="60.5508" width="2.70833" height="2.70833" fill="white"/>
<rect x="54.1667" y="60.5508" width="2.70833" height="2.70833" fill="white"/>
<rect x="56.875" y="60.5508" width="2.70833" height="2.70833" fill="white"/>
<rect x="59.5833" y="60.5508" width="2.70833" height="2.70833" fill="white"/>
<rect x="62.2917" y="60.5508" width="2.70833" height="2.70833" fill="white"/>
<rect y="63.259" width="2.70833" height="2.70833" fill="white"/>
<rect x="2.70833" y="63.259" width="2.70833" height="2.70833" fill="white"/>
<rect x="5.41667" y="63.259" width="2.70833" height="2.70833" fill="white"/>
<rect x="8.125" y="63.259" width="2.70833" height="2.70833" fill="white"/>
<rect x="10.8333" y="63.259" width="2.70833" height="2.70833" fill="white"/>
<rect x="13.5417" y="63.259" width="2.70833" height="2.70833" fill="white"/>
<rect x="16.25" y="63.259" width="2.70833" height="2.70833" fill="white"/>
<rect x="18.9583" y="63.259" width="2.70833" height="2.70833" fill="white"/>
<rect x="21.6667" y="63.259" width="2.70833" height="2.70833" fill="white"/>
<rect x="24.375" y="63.259" width="2.70833" height="2.70833" fill="white"/>
<rect x="27.0833" y="63.259" width="2.70833" height="2.70833" fill="white"/>
<rect x="29.7917" y="63.259" width="2.70833" height="2.70833" fill="white"/>
<rect x="32.5" y="63.259" width="2.70833" height="2.70833" fill="white"/>
<rect x="35.2083" y="63.259" width="2.70833" height="2.70833" fill="white"/>
<rect x="37.9167" y="63.259" width="2.70833" height="2.70833" fill="white"/>
<rect x="40.625" y="63.259" width="2.70833" height="2.70833" fill="white"/>
<rect x="43.3333" y="63.259" width="2.70833" height="2.70833" fill="white"/>
<rect x="46.0417" y="63.259" width="2.70833" height="2.70833" fill="white"/>
<rect x="48.75" y="63.259" width="2.70833" height="2.70833" fill="white"/>
<rect x="51.4583" y="63.259" width="2.70833" height="2.70833" fill="white"/>
<rect x="54.1667" y="63.259" width="2.70833" height="2.70833" fill="white"/>
<rect x="56.875" y="63.259" width="2.70833" height="2.70833" fill="white"/>
<rect x="59.5833" y="63.259" width="2.70833" height="2.70833" fill="white"/>
<rect x="62.2917" y="63.259" width="2.70833" height="2.70833" fill="white"/>
</svg>
