<svg width="65" height="66" viewBox="0 0 65 66" fill="none" xmlns="http://www.w3.org/2000/svg">
<rect x="29.7143" y="0.121643" width="1.85714" height="1.85714" fill="black"/>
<rect x="31.5714" y="0.121643" width="1.85714" height="1.85714" fill="black"/>
<rect x="33.4286" y="0.121643" width="1.85714" height="1.85714" fill="black"/>
<rect x="22.2857" y="1.97876" width="1.85714" height="1.85714" fill="black"/>
<rect x="24.1429" y="1.97876" width="1.85714" height="1.85714" fill="black"/>
<rect x="26" y="1.97876" width="1.85714" height="1.85714" fill="black"/>
<rect x="27.8571" y="1.97876" width="1.85714" height="1.85714" fill="black"/>
<rect x="29.7143" y="1.97876" width="1.85714" height="1.85714" fill="black"/>
<rect x="31.5714" y="1.97876" width="1.85714" height="1.85714" fill="black"/>
<rect x="33.4286" y="1.97876" width="1.85714" height="1.85714" fill="black"/>
<rect x="35.2857" y="1.97876" width="1.85714" height="1.85714" fill="black"/>
<rect x="37.1429" y="1.97876" width="1.85714" height="1.85714" fill="black"/>
<rect x="39" y="1.97876" width="1.85714" height="1.85714" fill="black"/>
<rect x="40.8571" y="1.97876" width="1.85714" height="1.85714" fill="black"/>
<rect x="42.7143" y="1.97876" width="1.85714" height="1.85714" fill="black"/>
<rect x="16.7143" y="3.83594" width="1.85714" height="1.85714" fill="black"/>
<rect x="18.5714" y="3.83594" width="1.85714" height="1.85714" fill="black"/>
<rect x="20.4286" y="3.83594" width="1.85714" height="1.85714" fill="black"/>
<rect x="22.2857" y="3.83594" width="1.85714" height="1.85714" fill="white"/>
<rect x="24.1429" y="3.83594" width="1.85714" height="1.85714" fill="white"/>
<rect x="26" y="3.83594" width="1.85714" height="1.85714" fill="white"/>
<rect x="27.8571" y="3.83594" width="1.85714" height="1.85714" fill="white"/>
<rect x="29.7143" y="3.83594" width="1.85714" height="1.85714" fill="white"/>
<rect x="31.5714" y="3.83594" width="1.85714" height="1.85714" fill="white"/>
<rect x="33.4286" y="3.83594" width="1.85714" height="1.85714" fill="white"/>
<rect x="35.2857" y="3.83594" width="1.85714" height="1.85714" fill="white"/>
<rect x="37.1429" y="3.83594" width="1.85714" height="1.85714" fill="white"/>
<rect x="39" y="3.83594" width="1.85714" height="1.85714" fill="white"/>
<rect x="40.8571" y="3.83594" width="1.85714" height="1.85714" fill="white"/>
<rect x="42.7143" y="3.83594" width="1.85714" height="1.85714" fill="black"/>
<rect x="44.5714" y="3.83594" width="1.85714" height="1.85714" fill="black"/>
<rect x="46.4286" y="3.83594" width="1.85714" height="1.85714" fill="black"/>
<rect x="14.8571" y="5.69305" width="1.85714" height="1.85714" fill="black"/>
<rect x="16.7143" y="5.69305" width="1.85714" height="1.85714" fill="black"/>
<rect x="18.5714" y="5.69305" width="1.85714" height="1.85714" fill="white"/>
<rect x="20.4286" y="5.69305" width="1.85714" height="1.85714" fill="white"/>
<rect x="22.2857" y="5.69305" width="1.85714" height="1.85714" fill="white"/>
<rect x="24.1429" y="5.69305" width="1.85714" height="1.85714" fill="white"/>
<rect x="26" y="5.69305" width="1.85714" height="1.85714" fill="white"/>
<rect x="27.8571" y="5.69305" width="1.85714" height="1.85714" fill="white"/>
<rect x="29.7143" y="5.69305" width="1.85714" height="1.85714" fill="white"/>
<rect x="31.5714" y="5.69305" width="1.85714" height="1.85714" fill="white"/>
<rect x="33.4286" y="5.69305" width="1.85714" height="1.85714" fill="white"/>
<rect x="35.2857" y="5.69305" width="1.85714" height="1.85714" fill="white"/>
<rect x="37.1429" y="5.69305" width="1.85714" height="1.85714" fill="white"/>
<rect x="39" y="5.69305" width="1.85714" height="1.85714" fill="white"/>
<rect x="40.8571" y="5.69305" width="1.85714" height="1.85714" fill="white"/>
<rect x="42.7143" y="5.69305" width="1.85714" height="1.85714" fill="white"/>
<rect x="44.5714" y="5.69305" width="1.85714" height="1.85714" fill="white"/>
<rect x="46.4286" y="5.69305" width="1.85714" height="1.85714" fill="black"/>
<rect x="48.2857" y="5.69305" width="1.85714" height="1.85714" fill="black"/>
<rect x="13" y="7.55023" width="1.85714" height="1.85714" fill="black"/>
<rect x="14.8571" y="7.55023" width="1.85714" height="1.85714" fill="#EFEFEF"/>
<rect x="16.7143" y="7.55023" width="1.85714" height="1.85714" fill="white"/>
<rect x="18.5714" y="7.55023" width="1.85714" height="1.85714" fill="white"/>
<rect x="20.4286" y="7.55023" width="1.85714" height="1.85714" fill="white"/>
<rect x="22.2857" y="7.55023" width="1.85714" height="1.85714" fill="white"/>
<rect x="24.1429" y="7.55023" width="1.85714" height="1.85714" fill="white"/>
<rect x="26" y="7.55023" width="1.85714" height="1.85714" fill="white"/>
<rect x="27.8571" y="7.55023" width="1.85714" height="1.85714" fill="white"/>
<rect x="29.7143" y="7.55023" width="1.85714" height="1.85714" fill="white"/>
<rect x="31.5714" y="7.55023" width="1.85714" height="1.85714" fill="white"/>
<rect x="33.4286" y="7.55023" width="1.85714" height="1.85714" fill="white"/>
<rect x="35.2857" y="7.55023" width="1.85714" height="1.85714" fill="white"/>
<rect x="37.1429" y="7.55023" width="1.85714" height="1.85714" fill="white"/>
<rect x="39" y="7.55023" width="1.85714" height="1.85714" fill="white"/>
<rect x="40.8571" y="7.55023" width="1.85714" height="1.85714" fill="white"/>
<rect x="42.7143" y="7.55023" width="1.85714" height="1.85714" fill="white"/>
<rect x="44.5714" y="7.55023" width="1.85714" height="1.85714" fill="white"/>
<rect x="46.4286" y="7.55023" width="1.85714" height="1.85714" fill="white"/>
<rect x="48.2857" y="7.55023" width="1.85714" height="1.85714" fill="white"/>
<rect x="50.1429" y="7.55023" width="1.85714" height="1.85714" fill="black"/>
<rect x="52" y="7.55023" width="1.85714" height="1.85714" fill="black"/>
<rect x="9.28571" y="9.40735" width="1.85714" height="1.85714" fill="black"/>
<rect x="11.1429" y="9.40735" width="1.85714" height="1.85714" fill="black"/>
<rect x="13" y="9.40735" width="1.85714" height="1.85714" fill="white"/>
<rect x="14.8571" y="9.40735" width="1.85714" height="1.85714" fill="white"/>
<rect x="16.7143" y="9.40735" width="1.85714" height="1.85714" fill="white"/>
<rect x="18.5714" y="9.40735" width="1.85714" height="1.85714" fill="white"/>
<rect x="20.4286" y="9.40735" width="1.85714" height="1.85714" fill="white"/>
<rect x="22.2857" y="9.40735" width="1.85714" height="1.85714" fill="white"/>
<rect x="24.1429" y="9.40735" width="1.85714" height="1.85714" fill="white"/>
<rect x="26" y="9.40735" width="1.85714" height="1.85714" fill="white"/>
<rect x="27.8571" y="9.40735" width="1.85714" height="1.85714" fill="white"/>
<rect x="29.7143" y="9.40735" width="1.85714" height="1.85714" fill="white"/>
<rect x="31.5714" y="9.40735" width="1.85714" height="1.85714" fill="white"/>
<rect x="33.4286" y="9.40735" width="1.85714" height="1.85714" fill="white"/>
<rect x="35.2857" y="9.40735" width="1.85714" height="1.85714" fill="white"/>
<rect x="37.1429" y="9.40735" width="1.85714" height="1.85714" fill="white"/>
<rect x="39" y="9.40735" width="1.85714" height="1.85714" fill="white"/>
<rect x="40.8571" y="9.40735" width="1.85714" height="1.85714" fill="white"/>
<rect x="42.7143" y="9.40735" width="1.85714" height="1.85714" fill="white"/>
<rect x="44.5714" y="9.40735" width="1.85714" height="1.85714" fill="white"/>
<rect x="46.4286" y="9.40735" width="1.85714" height="1.85714" fill="white"/>
<rect x="48.2857" y="9.40735" width="1.85714" height="1.85714" fill="white"/>
<rect x="50.1429" y="9.40735" width="1.85714" height="1.85714" fill="white"/>
<rect x="52" y="9.40735" width="1.85714" height="1.85714" fill="black"/>
<rect x="53.8571" y="9.40735" width="1.85714" height="1.85714" fill="black"/>
<rect x="9.28571" y="11.2645" width="1.85714" height="1.85714" fill="black"/>
<rect x="11.1429" y="11.2645" width="1.85714" height="1.85714" fill="white"/>
<rect x="13" y="11.2645" width="1.85714" height="1.85714" fill="white"/>
<rect x="14.8571" y="11.2645" width="1.85714" height="1.85714" fill="white"/>
<rect x="16.7143" y="11.2645" width="1.85714" height="1.85714" fill="white"/>
<rect x="18.5714" y="11.2645" width="1.85714" height="1.85714" fill="white"/>
<rect x="20.4286" y="11.2645" width="1.85714" height="1.85714" fill="white"/>
<rect x="22.2857" y="11.2645" width="1.85714" height="1.85714" fill="white"/>
<rect x="24.1429" y="11.2645" width="1.85714" height="1.85714" fill="white"/>
<rect x="26" y="11.2645" width="1.85714" height="1.85714" fill="white"/>
<rect x="27.8571" y="11.2645" width="1.85714" height="1.85714" fill="white"/>
<rect x="29.7143" y="11.2645" width="1.85714" height="1.85714" fill="white"/>
<rect x="31.5714" y="11.2645" width="1.85714" height="1.85714" fill="white"/>
<rect x="33.4286" y="11.2645" width="1.85714" height="1.85714" fill="white"/>
<rect x="35.2857" y="11.2645" width="1.85714" height="1.85714" fill="white"/>
<rect x="37.1429" y="11.2645" width="1.85714" height="1.85714" fill="white"/>
<rect x="39" y="11.2645" width="1.85714" height="1.85714" fill="white"/>
<rect x="40.8571" y="11.2645" width="1.85714" height="1.85714" fill="white"/>
<rect x="42.7143" y="11.2645" width="1.85714" height="1.85714" fill="white"/>
<rect x="44.5714" y="11.2645" width="1.85714" height="1.85714" fill="white"/>
<rect x="46.4286" y="11.2645" width="1.85714" height="1.85714" fill="white"/>
<rect x="48.2857" y="11.2645" width="1.85714" height="1.85714" fill="white"/>
<rect x="50.1429" y="11.2645" width="1.85714" height="1.85714" fill="white"/>
<rect x="52" y="11.2645" width="1.85714" height="1.85714" fill="white"/>
<rect x="53.8571" y="11.2645" width="1.85714" height="1.85714" fill="black"/>
<rect x="55.7143" y="11.2645" width="1.85714" height="1.85714" fill="black"/>
<rect x="7.42859" y="13.1216" width="1.85714" height="1.85714" fill="black"/>
<rect x="9.28571" y="13.1216" width="1.85714" height="1.85714" fill="white"/>
<rect x="11.1429" y="13.1216" width="1.85714" height="1.85714" fill="white"/>
<rect x="13" y="13.1216" width="1.85714" height="1.85714" fill="white"/>
<rect x="14.8571" y="13.1216" width="1.85714" height="1.85714" fill="white"/>
<rect x="16.7143" y="13.1216" width="1.85714" height="1.85714" fill="white"/>
<rect x="18.5714" y="13.1216" width="1.85714" height="1.85714" fill="white"/>
<rect x="20.4286" y="13.1216" width="1.85714" height="1.85714" fill="white"/>
<rect x="22.2857" y="13.1216" width="1.85714" height="1.85714" fill="white"/>
<rect x="24.1429" y="13.1216" width="1.85714" height="1.85714" fill="white"/>
<rect x="26" y="13.1216" width="1.85714" height="1.85714" fill="white"/>
<rect x="27.8571" y="13.1216" width="1.85714" height="1.85714" fill="white"/>
<rect x="29.7143" y="13.1216" width="1.85714" height="1.85714" fill="white"/>
<rect x="31.5714" y="13.1216" width="1.85714" height="1.85714" fill="white"/>
<rect x="33.4286" y="13.1216" width="1.85714" height="1.85714" fill="white"/>
<rect x="35.2857" y="13.1216" width="1.85714" height="1.85714" fill="white"/>
<rect x="37.1429" y="13.1216" width="1.85714" height="1.85714" fill="white"/>
<rect x="39" y="13.1216" width="1.85714" height="1.85714" fill="white"/>
<rect x="40.8571" y="13.1216" width="1.85714" height="1.85714" fill="white"/>
<rect x="42.7143" y="13.1216" width="1.85714" height="1.85714" fill="white"/>
<rect x="44.5714" y="13.1216" width="1.85714" height="1.85714" fill="white"/>
<rect x="46.4286" y="13.1216" width="1.85714" height="1.85714" fill="white"/>
<rect x="48.2857" y="13.1216" width="1.85714" height="1.85714" fill="white"/>
<rect x="50.1429" y="13.1216" width="1.85714" height="1.85714" fill="white"/>
<rect x="52" y="13.1216" width="1.85714" height="1.85714" fill="white"/>
<rect x="53.8571" y="13.1216" width="1.85714" height="1.85714" fill="white"/>
<rect x="55.7143" y="13.1216" width="1.85714" height="1.85714" fill="black"/>
<rect x="5.57144" y="14.9788" width="1.85714" height="1.85714" fill="black"/>
<rect x="7.42859" y="14.9788" width="1.85714" height="1.85714" fill="white"/>
<rect x="9.28571" y="14.9788" width="1.85714" height="1.85714" fill="white"/>
<rect x="11.1429" y="14.9788" width="1.85714" height="1.85714" fill="white"/>
<rect x="13" y="14.9788" width="1.85714" height="1.85714" fill="white"/>
<rect x="14.8571" y="14.9788" width="1.85714" height="1.85714" fill="white"/>
<rect x="16.7143" y="14.9788" width="1.85714" height="1.85714" fill="white"/>
<rect x="18.5714" y="14.9788" width="1.85714" height="1.85714" fill="white"/>
<rect x="20.4286" y="14.9788" width="1.85714" height="1.85714" fill="white"/>
<rect x="22.2857" y="14.9788" width="1.85714" height="1.85714" fill="white"/>
<rect x="24.1429" y="14.9788" width="1.85714" height="1.85714" fill="white"/>
<rect x="26" y="14.9788" width="1.85714" height="1.85714" fill="white"/>
<rect x="27.8571" y="14.9788" width="1.85714" height="1.85714" fill="white"/>
<rect x="29.7143" y="14.9788" width="1.85714" height="1.85714" fill="white"/>
<rect x="31.5714" y="14.9788" width="1.85714" height="1.85714" fill="white"/>
<rect x="33.4286" y="14.9788" width="1.85714" height="1.85714" fill="white"/>
<rect x="35.2857" y="14.9788" width="1.85714" height="1.85714" fill="white"/>
<rect x="37.1429" y="14.9788" width="1.85714" height="1.85714" fill="white"/>
<rect x="39" y="14.9788" width="1.85714" height="1.85714" fill="white"/>
<rect x="40.8571" y="14.9788" width="1.85714" height="1.85714" fill="white"/>
<rect x="42.7143" y="14.9788" width="1.85714" height="1.85714" fill="white"/>
<rect x="44.5714" y="14.9788" width="1.85714" height="1.85714" fill="white"/>
<rect x="46.4286" y="14.9788" width="1.85714" height="1.85714" fill="white"/>
<rect x="48.2857" y="14.9788" width="1.85714" height="1.85714" fill="white"/>
<rect x="50.1429" y="14.9788" width="1.85714" height="1.85714" fill="white"/>
<rect x="52" y="14.9788" width="1.85714" height="1.85714" fill="white"/>
<rect x="53.8571" y="14.9788" width="1.85714" height="1.85714" fill="white"/>
<rect x="55.7143" y="14.9788" width="1.85714" height="1.85714" fill="white"/>
<rect x="57.5714" y="14.9788" width="1.85714" height="1.85714" fill="black"/>
<rect x="3.71429" y="16.8359" width="1.85714" height="1.85714" fill="black"/>
<rect x="5.57144" y="16.8359" width="1.85714" height="1.85714" fill="black"/>
<rect x="7.42859" y="16.8359" width="1.85714" height="1.85714" fill="white"/>
<rect x="9.28571" y="16.8359" width="1.85714" height="1.85714" fill="white"/>
<rect x="11.1429" y="16.8359" width="1.85714" height="1.85714" fill="white"/>
<rect x="13" y="16.8359" width="1.85714" height="1.85714" fill="white"/>
<rect x="14.8571" y="16.8359" width="1.85714" height="1.85714" fill="white"/>
<rect x="16.7143" y="16.8359" width="1.85714" height="1.85714" fill="white"/>
<rect x="18.5714" y="16.8359" width="1.85714" height="1.85714" fill="white"/>
<rect x="20.4286" y="16.8359" width="1.85714" height="1.85714" fill="white"/>
<rect x="22.2857" y="16.8359" width="1.85714" height="1.85714" fill="white"/>
<rect x="24.1429" y="16.8359" width="1.85714" height="1.85714" fill="white"/>
<rect x="26" y="16.8359" width="1.85714" height="1.85714" fill="white"/>
<rect x="27.8571" y="16.8359" width="1.85714" height="1.85714" fill="white"/>
<rect x="29.7143" y="16.8359" width="1.85714" height="1.85714" fill="white"/>
<rect x="31.5714" y="16.8359" width="1.85714" height="1.85714" fill="white"/>
<rect x="33.4286" y="16.8359" width="1.85714" height="1.85714" fill="white"/>
<rect x="35.2857" y="16.8359" width="1.85714" height="1.85714" fill="white"/>
<rect x="37.1429" y="16.8359" width="1.85714" height="1.85714" fill="white"/>
<rect x="39" y="16.8359" width="1.85714" height="1.85714" fill="white"/>
<rect x="40.8571" y="16.8359" width="1.85714" height="1.85714" fill="white"/>
<rect x="42.7143" y="16.8359" width="1.85714" height="1.85714" fill="white"/>
<rect x="44.5714" y="16.8359" width="1.85714" height="1.85714" fill="white"/>
<rect x="46.4286" y="16.8359" width="1.85714" height="1.85714" fill="white"/>
<rect x="48.2857" y="16.8359" width="1.85714" height="1.85714" fill="white"/>
<rect x="50.1429" y="16.8359" width="1.85714" height="1.85714" fill="white"/>
<rect x="52" y="16.8359" width="1.85714" height="1.85714" fill="white"/>
<rect x="53.8571" y="16.8359" width="1.85714" height="1.85714" fill="white"/>
<rect x="55.7143" y="16.8359" width="1.85714" height="1.85714" fill="white"/>
<rect x="57.5714" y="16.8359" width="1.85714" height="1.85714" fill="black"/>
<rect x="59.4286" y="16.8359" width="1.85714" height="1.85714" fill="black"/>
<rect x="3.71429" y="18.6931" width="1.85714" height="1.85714" fill="black"/>
<rect x="5.57144" y="18.6931" width="1.85714" height="1.85714" fill="white"/>
<rect x="7.42859" y="18.6931" width="1.85714" height="1.85714" fill="white"/>
<rect x="9.28571" y="18.6931" width="1.85714" height="1.85714" fill="white"/>
<rect x="11.1429" y="18.6931" width="1.85714" height="1.85714" fill="white"/>
<rect x="13" y="18.6931" width="1.85714" height="1.85714" fill="white"/>
<rect x="14.8571" y="18.6931" width="1.85714" height="1.85714" fill="white"/>
<rect x="16.7143" y="18.6931" width="1.85714" height="1.85714" fill="white"/>
<rect x="18.5714" y="18.6931" width="1.85714" height="1.85714" fill="white"/>
<rect x="20.4286" y="18.6931" width="1.85714" height="1.85714" fill="white"/>
<rect x="22.2857" y="18.6931" width="1.85714" height="1.85714" fill="white"/>
<rect x="24.1429" y="18.6931" width="1.85714" height="1.85714" fill="white"/>
<rect x="26" y="18.6931" width="1.85714" height="1.85714" fill="white"/>
<rect x="27.8571" y="18.6931" width="1.85714" height="1.85714" fill="white"/>
<rect x="29.7143" y="18.6931" width="1.85714" height="1.85714" fill="white"/>
<rect x="31.5714" y="18.6931" width="1.85714" height="1.85714" fill="white"/>
<rect x="33.4286" y="18.6931" width="1.85714" height="1.85714" fill="white"/>
<rect x="35.2857" y="18.6931" width="1.85714" height="1.85714" fill="white"/>
<rect x="37.1429" y="18.6931" width="1.85714" height="1.85714" fill="white"/>
<rect x="39" y="18.6931" width="1.85714" height="1.85714" fill="white"/>
<rect x="40.8571" y="18.6931" width="1.85714" height="1.85714" fill="white"/>
<rect x="42.7143" y="18.6931" width="1.85714" height="1.85714" fill="white"/>
<rect x="44.5714" y="18.6931" width="1.85714" height="1.85714" fill="white"/>
<rect x="46.4286" y="18.6931" width="1.85714" height="1.85714" fill="white"/>
<rect x="48.2857" y="18.6931" width="1.85714" height="1.85714" fill="white"/>
<rect x="50.1429" y="18.6931" width="1.85714" height="1.85714" fill="white"/>
<rect x="52" y="18.6931" width="1.85714" height="1.85714" fill="white"/>
<rect x="53.8571" y="18.6931" width="1.85714" height="1.85714" fill="white"/>
<rect x="55.7143" y="18.6931" width="1.85714" height="1.85714" fill="white"/>
<rect x="57.5714" y="18.6931" width="1.85714" height="1.85714" fill="white"/>
<rect x="59.4286" y="18.6931" width="1.85714" height="1.85714" fill="black"/>
<rect x="3.71429" y="20.5502" width="1.85714" height="1.85714" fill="black"/>
<rect x="5.57144" y="20.5502" width="1.85714" height="1.85714" fill="white"/>
<rect x="7.42859" y="20.5502" width="1.85714" height="1.85714" fill="white"/>
<rect x="9.28571" y="20.5502" width="1.85714" height="1.85714" fill="white"/>
<rect x="11.1429" y="20.5502" width="1.85714" height="1.85714" fill="white"/>
<rect x="13" y="20.5502" width="1.85714" height="1.85714" fill="white"/>
<rect x="14.8571" y="20.5502" width="1.85714" height="1.85714" fill="white"/>
<rect x="16.7143" y="20.5502" width="1.85714" height="1.85714" fill="white"/>
<rect x="18.5714" y="20.5502" width="1.85714" height="1.85714" fill="white"/>
<rect x="20.4286" y="20.5502" width="1.85714" height="1.85714" fill="black"/>
<rect x="22.2857" y="20.5502" width="1.85714" height="1.85714" fill="black"/>
<rect x="24.1429" y="20.5502" width="1.85714" height="1.85714" fill="black"/>
<rect x="26" y="20.5502" width="1.85714" height="1.85714" fill="white"/>
<rect x="27.8571" y="20.5502" width="1.85714" height="1.85714" fill="white"/>
<rect x="29.7143" y="20.5502" width="1.85714" height="1.85714" fill="white"/>
<rect x="31.5714" y="20.5502" width="1.85714" height="1.85714" fill="white"/>
<rect x="33.4286" y="20.5502" width="1.85714" height="1.85714" fill="white"/>
<rect x="35.2857" y="20.5502" width="1.85714" height="1.85714" fill="white"/>
<rect x="37.1429" y="20.5502" width="1.85714" height="1.85714" fill="white"/>
<rect x="39" y="20.5502" width="1.85714" height="1.85714" fill="white"/>
<rect x="40.8571" y="20.5502" width="1.85714" height="1.85714" fill="#131313"/>
<rect x="42.7143" y="20.5502" width="1.85714" height="1.85714" fill="#131313"/>
<rect x="44.5714" y="20.5502" width="1.85714" height="1.85714" fill="#121212"/>
<rect x="46.4286" y="20.5502" width="1.85714" height="1.85714" fill="white"/>
<rect x="48.2857" y="20.5502" width="1.85714" height="1.85714" fill="white"/>
<rect x="50.1429" y="20.5502" width="1.85714" height="1.85714" fill="white"/>
<rect x="52" y="20.5502" width="1.85714" height="1.85714" fill="white"/>
<rect x="53.8571" y="20.5502" width="1.85714" height="1.85714" fill="white"/>
<rect x="55.7143" y="20.5502" width="1.85714" height="1.85714" fill="white"/>
<rect x="57.5714" y="20.5502" width="1.85714" height="1.85714" fill="white"/>
<rect x="59.4286" y="20.5502" width="1.85714" height="1.85714" fill="black"/>
<rect x="61.2857" y="20.5502" width="1.85714" height="1.85714" fill="black"/>
<rect x="1.85715" y="22.4073" width="1.85714" height="1.85714" fill="black"/>
<rect x="3.71429" y="22.4073" width="1.85714" height="1.85714" fill="white"/>
<rect x="5.57144" y="22.4073" width="1.85714" height="1.85714" fill="white"/>
<rect x="7.42859" y="22.4073" width="1.85714" height="1.85714" fill="white"/>
<rect x="9.28571" y="22.4073" width="1.85714" height="1.85714" fill="white"/>
<rect x="11.1429" y="22.4073" width="1.85714" height="1.85714" fill="white"/>
<rect x="13" y="22.4073" width="1.85714" height="1.85714" fill="white"/>
<rect x="14.8571" y="22.4073" width="1.85714" height="1.85714" fill="white"/>
<rect x="16.7143" y="22.4073" width="1.85714" height="1.85714" fill="white"/>
<rect x="18.5714" y="22.4073" width="1.85714" height="1.85714" fill="white"/>
<rect x="20.4286" y="22.4073" width="1.85714" height="1.85714" fill="black"/>
<rect x="22.2857" y="22.4073" width="1.85714" height="1.85714" fill="black"/>
<rect x="24.1429" y="22.4073" width="1.85714" height="1.85714" fill="black"/>
<rect x="26" y="22.4073" width="1.85714" height="1.85714" fill="black"/>
<rect x="27.8571" y="22.4073" width="1.85714" height="1.85714" fill="white"/>
<rect x="29.7143" y="22.4073" width="1.85714" height="1.85714" fill="white"/>
<rect x="31.5714" y="22.4073" width="1.85714" height="1.85714" fill="white"/>
<rect x="33.4286" y="22.4073" width="1.85714" height="1.85714" fill="white"/>
<rect x="35.2857" y="22.4073" width="1.85714" height="1.85714" fill="white"/>
<rect x="37.1429" y="22.4073" width="1.85714" height="1.85714" fill="white"/>
<rect x="39" y="22.4073" width="1.85714" height="1.85714" fill="white"/>
<rect x="40.8571" y="22.4073" width="1.85714" height="1.85714" fill="#2C2C2C"/>
<rect x="42.7143" y="22.4073" width="1.85714" height="1.85714" fill="#2C2C2C"/>
<rect x="44.5714" y="22.4073" width="1.85714" height="1.85714" fill="#2C2C2C"/>
<rect x="46.4286" y="22.4073" width="1.85714" height="1.85714" fill="white"/>
<rect x="48.2857" y="22.4073" width="1.85714" height="1.85714" fill="white"/>
<rect x="50.1429" y="22.4073" width="1.85714" height="1.85714" fill="white"/>
<rect x="52" y="22.4073" width="1.85714" height="1.85714" fill="white"/>
<rect x="53.8571" y="22.4073" width="1.85714" height="1.85714" fill="white"/>
<rect x="55.7143" y="22.4073" width="1.85714" height="1.85714" fill="white"/>
<rect x="57.5714" y="22.4073" width="1.85714" height="1.85714" fill="white"/>
<rect x="59.4286" y="22.4073" width="1.85714" height="1.85714" fill="white"/>
<rect x="61.2857" y="22.4073" width="1.85714" height="1.85714" fill="black"/>
<rect x="1.85715" y="24.2645" width="1.85714" height="1.85714" fill="black"/>
<rect x="3.71429" y="24.2645" width="1.85714" height="1.85714" fill="white"/>
<rect x="5.57144" y="24.2645" width="1.85714" height="1.85714" fill="white"/>
<rect x="7.42859" y="24.2645" width="1.85714" height="1.85714" fill="white"/>
<rect x="9.28571" y="24.2645" width="1.85714" height="1.85714" fill="white"/>
<rect x="11.1429" y="24.2645" width="1.85714" height="1.85714" fill="white"/>
<rect x="13" y="24.2645" width="1.85714" height="1.85714" fill="white"/>
<rect x="14.8571" y="24.2645" width="1.85714" height="1.85714" fill="white"/>
<rect x="16.7143" y="24.2645" width="1.85714" height="1.85714" fill="white"/>
<rect x="18.5714" y="24.2645" width="1.85714" height="1.85714" fill="white"/>
<rect x="20.4286" y="24.2645" width="1.85714" height="1.85714" fill="black"/>
<rect x="22.2857" y="24.2645" width="1.85714" height="1.85714" fill="black"/>
<rect x="24.1429" y="24.2645" width="1.85714" height="1.85714" fill="#010101"/>
<rect x="26" y="24.2645" width="1.85714" height="1.85714" fill="black"/>
<rect x="27.8571" y="24.2645" width="1.85714" height="1.85714" fill="black"/>
<rect x="29.7143" y="24.2645" width="1.85714" height="1.85714" fill="white"/>
<rect x="31.5714" y="24.2645" width="1.85714" height="1.85714" fill="white"/>
<rect x="33.4286" y="24.2645" width="1.85714" height="1.85714" fill="white"/>
<rect x="35.2857" y="24.2645" width="1.85714" height="1.85714" fill="white"/>
<rect x="37.1429" y="24.2645" width="1.85714" height="1.85714" fill="white"/>
<rect x="39" y="24.2645" width="1.85714" height="1.85714" fill="white"/>
<rect x="40.8571" y="24.2645" width="1.85714" height="1.85714" fill="#454545"/>
<rect x="42.7143" y="24.2645" width="1.85714" height="1.85714" fill="#454545"/>
<rect x="44.5714" y="24.2645" width="1.85714" height="1.85714" fill="#454545"/>
<rect x="46.4286" y="24.2645" width="1.85714" height="1.85714" fill="white"/>
<rect x="48.2857" y="24.2645" width="1.85714" height="1.85714" fill="white"/>
<rect x="50.1429" y="24.2645" width="1.85714" height="1.85714" fill="white"/>
<rect x="52" y="24.2645" width="1.85714" height="1.85714" fill="white"/>
<rect x="53.8571" y="24.2645" width="1.85714" height="1.85714" fill="white"/>
<rect x="55.7143" y="24.2645" width="1.85714" height="1.85714" fill="white"/>
<rect x="57.5714" y="24.2645" width="1.85714" height="1.85714" fill="white"/>
<rect x="59.4286" y="24.2645" width="1.85714" height="1.85714" fill="white"/>
<rect x="61.2857" y="24.2645" width="1.85714" height="1.85714" fill="black"/>
<rect x="1.85715" y="26.1216" width="1.85714" height="1.85714" fill="black"/>
<rect x="3.71429" y="26.1216" width="1.85714" height="1.85714" fill="white"/>
<rect x="5.57144" y="26.1216" width="1.85714" height="1.85714" fill="white"/>
<rect x="7.42859" y="26.1216" width="1.85714" height="1.85714" fill="white"/>
<rect x="9.28571" y="26.1216" width="1.85714" height="1.85714" fill="white"/>
<rect x="11.1429" y="26.1216" width="1.85714" height="1.85714" fill="white"/>
<rect x="13" y="26.1216" width="1.85714" height="1.85714" fill="white"/>
<rect x="14.8571" y="26.1216" width="1.85714" height="1.85714" fill="white"/>
<rect x="16.7143" y="26.1216" width="1.85714" height="1.85714" fill="white"/>
<rect x="18.5714" y="26.1216" width="1.85714" height="1.85714" fill="white"/>
<rect x="20.4286" y="26.1216" width="1.85714" height="1.85714" fill="black"/>
<rect x="22.2857" y="26.1216" width="1.85714" height="1.85714" fill="black"/>
<rect x="24.1429" y="26.1216" width="1.85714" height="1.85714" fill="white"/>
<rect x="26" y="26.1216" width="1.85714" height="1.85714" fill="black"/>
<rect x="27.8571" y="26.1216" width="1.85714" height="1.85714" fill="black"/>
<rect x="29.7143" y="26.1216" width="1.85714" height="1.85714" fill="black"/>
<rect x="31.5714" y="26.1216" width="1.85714" height="1.85714" fill="white"/>
<rect x="33.4286" y="26.1216" width="1.85714" height="1.85714" fill="white"/>
<rect x="35.2857" y="26.1216" width="1.85714" height="1.85714" fill="white"/>
<rect x="37.1429" y="26.1216" width="1.85714" height="1.85714" fill="white"/>
<rect x="39" y="26.1216" width="1.85714" height="1.85714" fill="white"/>
<rect x="40.8571" y="26.1216" width="1.85714" height="1.85714" fill="#5F5F5F"/>
<rect x="42.7143" y="26.1216" width="1.85714" height="1.85714" fill="#5F5F5F"/>
<rect x="44.5714" y="26.1216" width="1.85714" height="1.85714" fill="#5F5F5F"/>
<rect x="46.4286" y="26.1216" width="1.85714" height="1.85714" fill="white"/>
<rect x="48.2857" y="26.1216" width="1.85714" height="1.85714" fill="white"/>
<rect x="50.1429" y="26.1216" width="1.85714" height="1.85714" fill="white"/>
<rect x="52" y="26.1216" width="1.85714" height="1.85714" fill="white"/>
<rect x="53.8571" y="26.1216" width="1.85714" height="1.85714" fill="white"/>
<rect x="55.7143" y="26.1216" width="1.85714" height="1.85714" fill="white"/>
<rect x="57.5714" y="26.1216" width="1.85714" height="1.85714" fill="white"/>
<rect x="59.4286" y="26.1216" width="1.85714" height="1.85714" fill="white"/>
<rect x="61.2857" y="26.1216" width="1.85714" height="1.85714" fill="black"/>
<rect x="63.1429" y="26.1216" width="1.85714" height="1.85714" fill="black"/>
<rect x="1.85715" y="27.9788" width="1.85714" height="1.85714" fill="black"/>
<rect x="3.71429" y="27.9788" width="1.85714" height="1.85714" fill="white"/>
<rect x="5.57144" y="27.9788" width="1.85714" height="1.85714" fill="white"/>
<rect x="7.42859" y="27.9788" width="1.85714" height="1.85714" fill="white"/>
<rect x="9.28571" y="27.9788" width="1.85714" height="1.85714" fill="white"/>
<rect x="11.1429" y="27.9788" width="1.85714" height="1.85714" fill="white"/>
<rect x="13" y="27.9788" width="1.85714" height="1.85714" fill="white"/>
<rect x="14.8571" y="27.9788" width="1.85714" height="1.85714" fill="white"/>
<rect x="16.7143" y="27.9788" width="1.85714" height="1.85714" fill="white"/>
<rect x="18.5714" y="27.9788" width="1.85714" height="1.85714" fill="white"/>
<rect x="20.4286" y="27.9788" width="1.85714" height="1.85714" fill="black"/>
<rect x="22.2857" y="27.9788" width="1.85714" height="1.85714" fill="black"/>
<rect x="24.1429" y="27.9788" width="1.85714" height="1.85714" fill="white"/>
<rect x="26" y="27.9788" width="1.85714" height="1.85714" fill="#101010"/>
<rect x="27.8571" y="27.9788" width="1.85714" height="1.85714" fill="black"/>
<rect x="29.7143" y="27.9788" width="1.85714" height="1.85714" fill="black"/>
<rect x="31.5714" y="27.9788" width="1.85714" height="1.85714" fill="white"/>
<rect x="33.4286" y="27.9788" width="1.85714" height="1.85714" fill="white"/>
<rect x="35.2857" y="27.9788" width="1.85714" height="1.85714" fill="white"/>
<rect x="37.1429" y="27.9788" width="1.85714" height="1.85714" fill="white"/>
<rect x="39" y="27.9788" width="1.85714" height="1.85714" fill="white"/>
<rect x="40.8571" y="27.9788" width="1.85714" height="1.85714" fill="#787878"/>
<rect x="42.7143" y="27.9788" width="1.85714" height="1.85714" fill="#797979"/>
<rect x="44.5714" y="27.9788" width="1.85714" height="1.85714" fill="#787878"/>
<rect x="46.4286" y="27.9788" width="1.85714" height="1.85714" fill="white"/>
<rect x="48.2857" y="27.9788" width="1.85714" height="1.85714" fill="white"/>
<rect x="50.1429" y="27.9788" width="1.85714" height="1.85714" fill="white"/>
<rect x="52" y="27.9788" width="1.85714" height="1.85714" fill="white"/>
<rect x="53.8571" y="27.9788" width="1.85714" height="1.85714" fill="white"/>
<rect x="55.7143" y="27.9788" width="1.85714" height="1.85714" fill="white"/>
<rect x="57.5714" y="27.9788" width="1.85714" height="1.85714" fill="white"/>
<rect x="59.4286" y="27.9788" width="1.85714" height="1.85714" fill="white"/>
<rect x="61.2857" y="27.9788" width="1.85714" height="1.85714" fill="#101010"/>
<rect x="63.1429" y="27.9788" width="1.85714" height="1.85714" fill="black"/>
<rect y="29.8359" width="1.85714" height="1.85714" fill="black"/>
<rect x="1.85715" y="29.8359" width="1.85714" height="1.85714" fill="black"/>
<rect x="3.71429" y="29.8359" width="1.85714" height="1.85714" fill="white"/>
<rect x="5.57144" y="29.8359" width="1.85714" height="1.85714" fill="white"/>
<rect x="7.42859" y="29.8359" width="1.85714" height="1.85714" fill="white"/>
<rect x="9.28571" y="29.8359" width="1.85714" height="1.85714" fill="white"/>
<rect x="11.1429" y="29.8359" width="1.85714" height="1.85714" fill="white"/>
<rect x="13" y="29.8359" width="1.85714" height="1.85714" fill="white"/>
<rect x="14.8571" y="29.8359" width="1.85714" height="1.85714" fill="white"/>
<rect x="16.7143" y="29.8359" width="1.85714" height="1.85714" fill="white"/>
<rect x="18.5714" y="29.8359" width="1.85714" height="1.85714" fill="white"/>
<rect x="20.4286" y="29.8359" width="1.85714" height="1.85714" fill="black"/>
<rect x="22.2857" y="29.8359" width="1.85714" height="1.85714" fill="black"/>
<rect x="24.1429" y="29.8359" width="1.85714" height="1.85714" fill="white"/>
<rect x="26" y="29.8359" width="1.85714" height="1.85714" fill="white"/>
<rect x="27.8571" y="29.8359" width="1.85714" height="1.85714" fill="black"/>
<rect x="29.7143" y="29.8359" width="1.85714" height="1.85714" fill="black"/>
<rect x="31.5714" y="29.8359" width="1.85714" height="1.85714" fill="black"/>
<rect x="33.4286" y="29.8359" width="1.85714" height="1.85714" fill="white"/>
<rect x="35.2857" y="29.8359" width="1.85714" height="1.85714" fill="white"/>
<rect x="37.1429" y="29.8359" width="1.85714" height="1.85714" fill="white"/>
<rect x="39" y="29.8359" width="1.85714" height="1.85714" fill="white"/>
<rect x="40.8571" y="29.8359" width="1.85714" height="1.85714" fill="#919191"/>
<rect x="42.7143" y="29.8359" width="1.85714" height="1.85714" fill="#919191"/>
<rect x="44.5714" y="29.8359" width="1.85714" height="1.85714" fill="#919191"/>
<rect x="46.4286" y="29.8359" width="1.85714" height="1.85714" fill="white"/>
<rect x="48.2857" y="29.8359" width="1.85714" height="1.85714" fill="white"/>
<rect x="50.1429" y="29.8359" width="1.85714" height="1.85714" fill="white"/>
<rect x="52" y="29.8359" width="1.85714" height="1.85714" fill="white"/>
<rect x="53.8571" y="29.8359" width="1.85714" height="1.85714" fill="white"/>
<rect x="55.7143" y="29.8359" width="1.85714" height="1.85714" fill="white"/>
<rect x="57.5714" y="29.8359" width="1.85714" height="1.85714" fill="white"/>
<rect x="59.4286" y="29.8359" width="1.85714" height="1.85714" fill="white"/>
<rect x="61.2857" y="29.8359" width="1.85714" height="1.85714" fill="white"/>
<rect x="63.1429" y="29.8359" width="1.85714" height="1.85714" fill="black"/>
<rect y="31.6931" width="1.85714" height="1.85714" fill="black"/>
<rect x="1.85715" y="31.6931" width="1.85714" height="1.85714" fill="black"/>
<rect x="3.71429" y="31.6931" width="1.85714" height="1.85714" fill="white"/>
<rect x="5.57144" y="31.6931" width="1.85714" height="1.85714" fill="white"/>
<rect x="7.42859" y="31.6931" width="1.85714" height="1.85714" fill="white"/>
<rect x="9.28571" y="31.6931" width="1.85714" height="1.85714" fill="white"/>
<rect x="11.1429" y="31.6931" width="1.85714" height="1.85714" fill="white"/>
<rect x="13" y="31.6931" width="1.85714" height="1.85714" fill="white"/>
<rect x="14.8571" y="31.6931" width="1.85714" height="1.85714" fill="white"/>
<rect x="16.7143" y="31.6931" width="1.85714" height="1.85714" fill="white"/>
<rect x="18.5714" y="31.6931" width="1.85714" height="1.85714" fill="white"/>
<rect x="20.4286" y="31.6931" width="1.85714" height="1.85714" fill="black"/>
<rect x="22.2857" y="31.6931" width="1.85714" height="1.85714" fill="black"/>
<rect x="24.1429" y="31.6931" width="1.85714" height="1.85714" fill="white"/>
<rect x="26" y="31.6931" width="1.85714" height="1.85714" fill="white"/>
<rect x="27.8571" y="31.6931" width="1.85714" height="1.85714" fill="white"/>
<rect x="29.7143" y="31.6931" width="1.85714" height="1.85714" fill="black"/>
<rect x="31.5714" y="31.6931" width="1.85714" height="1.85714" fill="black"/>
<rect x="33.4286" y="31.6931" width="1.85714" height="1.85714" fill="black"/>
<rect x="35.2857" y="31.6931" width="1.85714" height="1.85714" fill="white"/>
<rect x="37.1429" y="31.6931" width="1.85714" height="1.85714" fill="white"/>
<rect x="39" y="31.6931" width="1.85714" height="1.85714" fill="white"/>
<rect x="40.8571" y="31.6931" width="1.85714" height="1.85714" fill="#ABABAB"/>
<rect x="42.7143" y="31.6931" width="1.85714" height="1.85714" fill="#ABABAB"/>
<rect x="44.5714" y="31.6931" width="1.85714" height="1.85714" fill="#ABABAB"/>
<rect x="46.4286" y="31.6931" width="1.85714" height="1.85714" fill="white"/>
<rect x="48.2857" y="31.6931" width="1.85714" height="1.85714" fill="white"/>
<rect x="50.1429" y="31.6931" width="1.85714" height="1.85714" fill="white"/>
<rect x="52" y="31.6931" width="1.85714" height="1.85714" fill="white"/>
<rect x="53.8571" y="31.6931" width="1.85714" height="1.85714" fill="white"/>
<rect x="55.7143" y="31.6931" width="1.85714" height="1.85714" fill="white"/>
<rect x="57.5714" y="31.6931" width="1.85714" height="1.85714" fill="white"/>
<rect x="59.4286" y="31.6931" width="1.85714" height="1.85714" fill="white"/>
<rect x="61.2857" y="31.6931" width="1.85714" height="1.85714" fill="white"/>
<rect x="63.1429" y="31.6931" width="1.85714" height="1.85714" fill="black"/>
<rect y="33.5502" width="1.85714" height="1.85714" fill="black"/>
<rect x="1.85715" y="33.5502" width="1.85714" height="1.85714" fill="black"/>
<rect x="3.71429" y="33.5502" width="1.85714" height="1.85714" fill="white"/>
<rect x="5.57144" y="33.5502" width="1.85714" height="1.85714" fill="white"/>
<rect x="7.42859" y="33.5502" width="1.85714" height="1.85714" fill="white"/>
<rect x="9.28571" y="33.5502" width="1.85714" height="1.85714" fill="white"/>
<rect x="11.1429" y="33.5502" width="1.85714" height="1.85714" fill="white"/>
<rect x="13" y="33.5502" width="1.85714" height="1.85714" fill="white"/>
<rect x="14.8571" y="33.5502" width="1.85714" height="1.85714" fill="white"/>
<rect x="16.7143" y="33.5502" width="1.85714" height="1.85714" fill="white"/>
<rect x="18.5714" y="33.5502" width="1.85714" height="1.85714" fill="white"/>
<rect x="20.4286" y="33.5502" width="1.85714" height="1.85714" fill="black"/>
<rect x="22.2857" y="33.5502" width="1.85714" height="1.85714" fill="black"/>
<rect x="24.1429" y="33.5502" width="1.85714" height="1.85714" fill="white"/>
<rect x="26" y="33.5502" width="1.85714" height="1.85714" fill="white"/>
<rect x="27.8571" y="33.5502" width="1.85714" height="1.85714" fill="white"/>
<rect x="29.7143" y="33.5502" width="1.85714" height="1.85714" fill="white"/>
<rect x="31.5714" y="33.5502" width="1.85714" height="1.85714" fill="black"/>
<rect x="33.4286" y="33.5502" width="1.85714" height="1.85714" fill="black"/>
<rect x="35.2857" y="33.5502" width="1.85714" height="1.85714" fill="black"/>
<rect x="37.1429" y="33.5502" width="1.85714" height="1.85714" fill="white"/>
<rect x="39" y="33.5502" width="1.85714" height="1.85714" fill="white"/>
<rect x="40.8571" y="33.5502" width="1.85714" height="1.85714" fill="#C4C4C4"/>
<rect x="42.7143" y="33.5502" width="1.85714" height="1.85714" fill="#C4C4C4"/>
<rect x="44.5714" y="33.5502" width="1.85714" height="1.85714" fill="#C4C4C4"/>
<rect x="46.4286" y="33.5502" width="1.85714" height="1.85714" fill="white"/>
<rect x="48.2857" y="33.5502" width="1.85714" height="1.85714" fill="white"/>
<rect x="50.1429" y="33.5502" width="1.85714" height="1.85714" fill="white"/>
<rect x="52" y="33.5502" width="1.85714" height="1.85714" fill="white"/>
<rect x="53.8571" y="33.5502" width="1.85714" height="1.85714" fill="white"/>
<rect x="55.7143" y="33.5502" width="1.85714" height="1.85714" fill="white"/>
<rect x="57.5714" y="33.5502" width="1.85714" height="1.85714" fill="white"/>
<rect x="59.4286" y="33.5502" width="1.85714" height="1.85714" fill="white"/>
<rect x="61.2857" y="33.5502" width="1.85714" height="1.85714" fill="white"/>
<rect x="63.1429" y="33.5502" width="1.85714" height="1.85714" fill="black"/>
<rect x="1.85715" y="35.4073" width="1.85714" height="1.85714" fill="black"/>
<rect x="3.71429" y="35.4073" width="1.85714" height="1.85714" fill="white"/>
<rect x="5.57144" y="35.4073" width="1.85714" height="1.85714" fill="white"/>
<rect x="7.42859" y="35.4073" width="1.85714" height="1.85714" fill="white"/>
<rect x="9.28571" y="35.4073" width="1.85714" height="1.85714" fill="white"/>
<rect x="11.1429" y="35.4073" width="1.85714" height="1.85714" fill="white"/>
<rect x="13" y="35.4073" width="1.85714" height="1.85714" fill="white"/>
<rect x="14.8571" y="35.4073" width="1.85714" height="1.85714" fill="white"/>
<rect x="16.7143" y="35.4073" width="1.85714" height="1.85714" fill="white"/>
<rect x="18.5714" y="35.4073" width="1.85714" height="1.85714" fill="white"/>
<rect x="20.4286" y="35.4073" width="1.85714" height="1.85714" fill="#010101"/>
<rect x="22.2857" y="35.4073" width="1.85714" height="1.85714" fill="black"/>
<rect x="24.1429" y="35.4073" width="1.85714" height="1.85714" fill="white"/>
<rect x="26" y="35.4073" width="1.85714" height="1.85714" fill="white"/>
<rect x="27.8571" y="35.4073" width="1.85714" height="1.85714" fill="white"/>
<rect x="29.7143" y="35.4073" width="1.85714" height="1.85714" fill="white"/>
<rect x="31.5714" y="35.4073" width="1.85714" height="1.85714" fill="white"/>
<rect x="33.4286" y="35.4073" width="1.85714" height="1.85714" fill="black"/>
<rect x="35.2857" y="35.4073" width="1.85714" height="1.85714" fill="black"/>
<rect x="37.1429" y="35.4073" width="1.85714" height="1.85714" fill="white"/>
<rect x="39" y="35.4073" width="1.85714" height="1.85714" fill="white"/>
<rect x="40.8571" y="35.4073" width="1.85714" height="1.85714" fill="#DEDEDE"/>
<rect x="42.7143" y="35.4073" width="1.85714" height="1.85714" fill="#DDDDDD"/>
<rect x="44.5714" y="35.4073" width="1.85714" height="1.85714" fill="#DEDEDE"/>
<rect x="46.4286" y="35.4073" width="1.85714" height="1.85714" fill="white"/>
<rect x="48.2857" y="35.4073" width="1.85714" height="1.85714" fill="white"/>
<rect x="50.1429" y="35.4073" width="1.85714" height="1.85714" fill="white"/>
<rect x="52" y="35.4073" width="1.85714" height="1.85714" fill="white"/>
<rect x="53.8571" y="35.4073" width="1.85714" height="1.85714" fill="white"/>
<rect x="55.7143" y="35.4073" width="1.85714" height="1.85714" fill="white"/>
<rect x="57.5714" y="35.4073" width="1.85714" height="1.85714" fill="white"/>
<rect x="59.4286" y="35.4073" width="1.85714" height="1.85714" fill="white"/>
<rect x="61.2857" y="35.4073" width="1.85714" height="1.85714" fill="#BFBFBF"/>
<rect x="63.1429" y="35.4073" width="1.85714" height="1.85714" fill="black"/>
<rect x="1.85715" y="37.2645" width="1.85714" height="1.85714" fill="black"/>
<rect x="3.71429" y="37.2645" width="1.85714" height="1.85714" fill="white"/>
<rect x="5.57144" y="37.2645" width="1.85714" height="1.85714" fill="white"/>
<rect x="7.42859" y="37.2645" width="1.85714" height="1.85714" fill="white"/>
<rect x="9.28571" y="37.2645" width="1.85714" height="1.85714" fill="white"/>
<rect x="11.1429" y="37.2645" width="1.85714" height="1.85714" fill="white"/>
<rect x="13" y="37.2645" width="1.85714" height="1.85714" fill="white"/>
<rect x="14.8571" y="37.2645" width="1.85714" height="1.85714" fill="white"/>
<rect x="16.7143" y="37.2645" width="1.85714" height="1.85714" fill="white"/>
<rect x="18.5714" y="37.2645" width="1.85714" height="1.85714" fill="white"/>
<rect x="20.4286" y="37.2645" width="1.85714" height="1.85714" fill="black"/>
<rect x="22.2857" y="37.2645" width="1.85714" height="1.85714" fill="black"/>
<rect x="24.1429" y="37.2645" width="1.85714" height="1.85714" fill="white"/>
<rect x="26" y="37.2645" width="1.85714" height="1.85714" fill="white"/>
<rect x="27.8571" y="37.2645" width="1.85714" height="1.85714" fill="white"/>
<rect x="29.7143" y="37.2645" width="1.85714" height="1.85714" fill="white"/>
<rect x="31.5714" y="37.2645" width="1.85714" height="1.85714" fill="white"/>
<rect x="33.4286" y="37.2645" width="1.85714" height="1.85714" fill="black"/>
<rect x="35.2857" y="37.2645" width="1.85714" height="1.85714" fill="black"/>
<rect x="37.1429" y="37.2645" width="1.85714" height="1.85714" fill="black"/>
<rect x="39" y="37.2645" width="1.85714" height="1.85714" fill="white"/>
<rect x="40.8571" y="37.2645" width="1.85714" height="1.85714" fill="#F7F7F7"/>
<rect x="42.7143" y="37.2645" width="1.85714" height="1.85714" fill="#F7F7F7"/>
<rect x="44.5714" y="37.2645" width="1.85714" height="1.85714" fill="#F7F7F7"/>
<rect x="46.4286" y="37.2645" width="1.85714" height="1.85714" fill="white"/>
<rect x="48.2857" y="37.2645" width="1.85714" height="1.85714" fill="white"/>
<rect x="50.1429" y="37.2645" width="1.85714" height="1.85714" fill="white"/>
<rect x="52" y="37.2645" width="1.85714" height="1.85714" fill="white"/>
<rect x="53.8571" y="37.2645" width="1.85714" height="1.85714" fill="white"/>
<rect x="55.7143" y="37.2645" width="1.85714" height="1.85714" fill="white"/>
<rect x="57.5714" y="37.2645" width="1.85714" height="1.85714" fill="white"/>
<rect x="59.4286" y="37.2645" width="1.85714" height="1.85714" fill="white"/>
<rect x="61.2857" y="37.2645" width="1.85714" height="1.85714" fill="black"/>
<rect x="63.1429" y="37.2645" width="1.85714" height="1.85714" fill="black"/>
<rect x="1.85715" y="39.1216" width="1.85714" height="1.85714" fill="black"/>
<rect x="3.71429" y="39.1216" width="1.85714" height="1.85714" fill="white"/>
<rect x="5.57144" y="39.1216" width="1.85714" height="1.85714" fill="white"/>
<rect x="7.42859" y="39.1216" width="1.85714" height="1.85714" fill="white"/>
<rect x="9.28571" y="39.1216" width="1.85714" height="1.85714" fill="white"/>
<rect x="11.1429" y="39.1216" width="1.85714" height="1.85714" fill="white"/>
<rect x="13" y="39.1216" width="1.85714" height="1.85714" fill="white"/>
<rect x="14.8571" y="39.1216" width="1.85714" height="1.85714" fill="white"/>
<rect x="16.7143" y="39.1216" width="1.85714" height="1.85714" fill="white"/>
<rect x="18.5714" y="39.1216" width="1.85714" height="1.85714" fill="white"/>
<rect x="20.4286" y="39.1216" width="1.85714" height="1.85714" fill="black"/>
<rect x="22.2857" y="39.1216" width="1.85714" height="1.85714" fill="black"/>
<rect x="24.1429" y="39.1216" width="1.85714" height="1.85714" fill="white"/>
<rect x="26" y="39.1216" width="1.85714" height="1.85714" fill="white"/>
<rect x="27.8571" y="39.1216" width="1.85714" height="1.85714" fill="white"/>
<rect x="29.7143" y="39.1216" width="1.85714" height="1.85714" fill="white"/>
<rect x="31.5714" y="39.1216" width="1.85714" height="1.85714" fill="white"/>
<rect x="33.4286" y="39.1216" width="1.85714" height="1.85714" fill="white"/>
<rect x="35.2857" y="39.1216" width="1.85714" height="1.85714" fill="black"/>
<rect x="37.1429" y="39.1216" width="1.85714" height="1.85714" fill="black"/>
<rect x="39" y="39.1216" width="1.85714" height="1.85714" fill="black"/>
<rect x="40.8571" y="39.1216" width="1.85714" height="1.85714" fill="white"/>
<rect x="42.7143" y="39.1216" width="1.85714" height="1.85714" fill="white"/>
<rect x="44.5714" y="39.1216" width="1.85714" height="1.85714" fill="white"/>
<rect x="46.4286" y="39.1216" width="1.85714" height="1.85714" fill="white"/>
<rect x="48.2857" y="39.1216" width="1.85714" height="1.85714" fill="white"/>
<rect x="50.1429" y="39.1216" width="1.85714" height="1.85714" fill="white"/>
<rect x="52" y="39.1216" width="1.85714" height="1.85714" fill="white"/>
<rect x="53.8571" y="39.1216" width="1.85714" height="1.85714" fill="white"/>
<rect x="55.7143" y="39.1216" width="1.85714" height="1.85714" fill="white"/>
<rect x="57.5714" y="39.1216" width="1.85714" height="1.85714" fill="white"/>
<rect x="59.4286" y="39.1216" width="1.85714" height="1.85714" fill="white"/>
<rect x="61.2857" y="39.1216" width="1.85714" height="1.85714" fill="black"/>
<rect x="1.85715" y="40.9788" width="1.85714" height="1.85714" fill="black"/>
<rect x="3.71429" y="40.9788" width="1.85714" height="1.85714" fill="white"/>
<rect x="5.57144" y="40.9788" width="1.85714" height="1.85714" fill="white"/>
<rect x="7.42859" y="40.9788" width="1.85714" height="1.85714" fill="white"/>
<rect x="9.28571" y="40.9788" width="1.85714" height="1.85714" fill="white"/>
<rect x="11.1429" y="40.9788" width="1.85714" height="1.85714" fill="white"/>
<rect x="13" y="40.9788" width="1.85714" height="1.85714" fill="white"/>
<rect x="14.8571" y="40.9788" width="1.85714" height="1.85714" fill="white"/>
<rect x="16.7143" y="40.9788" width="1.85714" height="1.85714" fill="white"/>
<rect x="18.5714" y="40.9788" width="1.85714" height="1.85714" fill="white"/>
<rect x="20.4286" y="40.9788" width="1.85714" height="1.85714" fill="black"/>
<rect x="22.2857" y="40.9788" width="1.85714" height="1.85714" fill="black"/>
<rect x="24.1429" y="40.9788" width="1.85714" height="1.85714" fill="white"/>
<rect x="26" y="40.9788" width="1.85714" height="1.85714" fill="white"/>
<rect x="27.8571" y="40.9788" width="1.85714" height="1.85714" fill="white"/>
<rect x="29.7143" y="40.9788" width="1.85714" height="1.85714" fill="white"/>
<rect x="31.5714" y="40.9788" width="1.85714" height="1.85714" fill="white"/>
<rect x="33.4286" y="40.9788" width="1.85714" height="1.85714" fill="white"/>
<rect x="35.2857" y="40.9788" width="1.85714" height="1.85714" fill="white"/>
<rect x="37.1429" y="40.9788" width="1.85714" height="1.85714" fill="black"/>
<rect x="39" y="40.9788" width="1.85714" height="1.85714" fill="#010101"/>
<rect x="40.8571" y="40.9788" width="1.85714" height="1.85714" fill="#101010"/>
<rect x="42.7143" y="40.9788" width="1.85714" height="1.85714" fill="white"/>
<rect x="44.5714" y="40.9788" width="1.85714" height="1.85714" fill="white"/>
<rect x="46.4286" y="40.9788" width="1.85714" height="1.85714" fill="white"/>
<rect x="48.2857" y="40.9788" width="1.85714" height="1.85714" fill="white"/>
<rect x="50.1429" y="40.9788" width="1.85714" height="1.85714" fill="white"/>
<rect x="52" y="40.9788" width="1.85714" height="1.85714" fill="white"/>
<rect x="53.8571" y="40.9788" width="1.85714" height="1.85714" fill="white"/>
<rect x="55.7143" y="40.9788" width="1.85714" height="1.85714" fill="white"/>
<rect x="57.5714" y="40.9788" width="1.85714" height="1.85714" fill="white"/>
<rect x="59.4286" y="40.9788" width="1.85714" height="1.85714" fill="white"/>
<rect x="61.2857" y="40.9788" width="1.85714" height="1.85714" fill="black"/>
<rect x="1.85715" y="42.8359" width="1.85714" height="1.85714" fill="black"/>
<rect x="3.71429" y="42.8359" width="1.85714" height="1.85714" fill="black"/>
<rect x="5.57144" y="42.8359" width="1.85714" height="1.85714" fill="white"/>
<rect x="7.42859" y="42.8359" width="1.85714" height="1.85714" fill="white"/>
<rect x="9.28571" y="42.8359" width="1.85714" height="1.85714" fill="white"/>
<rect x="11.1429" y="42.8359" width="1.85714" height="1.85714" fill="white"/>
<rect x="13" y="42.8359" width="1.85714" height="1.85714" fill="white"/>
<rect x="14.8571" y="42.8359" width="1.85714" height="1.85714" fill="white"/>
<rect x="16.7143" y="42.8359" width="1.85714" height="1.85714" fill="white"/>
<rect x="18.5714" y="42.8359" width="1.85714" height="1.85714" fill="white"/>
<rect x="20.4286" y="42.8359" width="1.85714" height="1.85714" fill="black"/>
<rect x="22.2857" y="42.8359" width="1.85714" height="1.85714" fill="black"/>
<rect x="24.1429" y="42.8359" width="1.85714" height="1.85714" fill="white"/>
<rect x="26" y="42.8359" width="1.85714" height="1.85714" fill="white"/>
<rect x="27.8571" y="42.8359" width="1.85714" height="1.85714" fill="white"/>
<rect x="29.7143" y="42.8359" width="1.85714" height="1.85714" fill="white"/>
<rect x="31.5714" y="42.8359" width="1.85714" height="1.85714" fill="white"/>
<rect x="33.4286" y="42.8359" width="1.85714" height="1.85714" fill="white"/>
<rect x="35.2857" y="42.8359" width="1.85714" height="1.85714" fill="white"/>
<rect x="37.1429" y="42.8359" width="1.85714" height="1.85714" fill="white"/>
<rect x="39" y="42.8359" width="1.85714" height="1.85714" fill="#141414"/>
<rect x="40.8571" y="42.8359" width="1.85714" height="1.85714" fill="#222222"/>
<rect x="42.7143" y="42.8359" width="1.85714" height="1.85714" fill="#323232"/>
<rect x="44.5714" y="42.8359" width="1.85714" height="1.85714" fill="white"/>
<rect x="46.4286" y="42.8359" width="1.85714" height="1.85714" fill="white"/>
<rect x="48.2857" y="42.8359" width="1.85714" height="1.85714" fill="white"/>
<rect x="50.1429" y="42.8359" width="1.85714" height="1.85714" fill="white"/>
<rect x="52" y="42.8359" width="1.85714" height="1.85714" fill="white"/>
<rect x="53.8571" y="42.8359" width="1.85714" height="1.85714" fill="white"/>
<rect x="55.7143" y="42.8359" width="1.85714" height="1.85714" fill="white"/>
<rect x="57.5714" y="42.8359" width="1.85714" height="1.85714" fill="white"/>
<rect x="59.4286" y="42.8359" width="1.85714" height="1.85714" fill="#9F9F9F"/>
<rect x="61.2857" y="42.8359" width="1.85714" height="1.85714" fill="black"/>
<rect x="3.71429" y="44.6931" width="1.85714" height="1.85714" fill="black"/>
<rect x="5.57144" y="44.6931" width="1.85714" height="1.85714" fill="white"/>
<rect x="7.42859" y="44.6931" width="1.85714" height="1.85714" fill="white"/>
<rect x="9.28571" y="44.6931" width="1.85714" height="1.85714" fill="white"/>
<rect x="11.1429" y="44.6931" width="1.85714" height="1.85714" fill="white"/>
<rect x="13" y="44.6931" width="1.85714" height="1.85714" fill="white"/>
<rect x="14.8571" y="44.6931" width="1.85714" height="1.85714" fill="white"/>
<rect x="16.7143" y="44.6931" width="1.85714" height="1.85714" fill="white"/>
<rect x="18.5714" y="44.6931" width="1.85714" height="1.85714" fill="white"/>
<rect x="20.4286" y="44.6931" width="1.85714" height="1.85714" fill="white"/>
<rect x="22.2857" y="44.6931" width="1.85714" height="1.85714" fill="white"/>
<rect x="24.1429" y="44.6931" width="1.85714" height="1.85714" fill="white"/>
<rect x="26" y="44.6931" width="1.85714" height="1.85714" fill="white"/>
<rect x="27.8571" y="44.6931" width="1.85714" height="1.85714" fill="white"/>
<rect x="29.7143" y="44.6931" width="1.85714" height="1.85714" fill="white"/>
<rect x="31.5714" y="44.6931" width="1.85714" height="1.85714" fill="white"/>
<rect x="33.4286" y="44.6931" width="1.85714" height="1.85714" fill="white"/>
<rect x="35.2857" y="44.6931" width="1.85714" height="1.85714" fill="white"/>
<rect x="37.1429" y="44.6931" width="1.85714" height="1.85714" fill="white"/>
<rect x="39" y="44.6931" width="1.85714" height="1.85714" fill="#252525"/>
<rect x="40.8571" y="44.6931" width="1.85714" height="1.85714" fill="#343434"/>
<rect x="42.7143" y="44.6931" width="1.85714" height="1.85714" fill="#434343"/>
<rect x="44.5714" y="44.6931" width="1.85714" height="1.85714" fill="white"/>
<rect x="46.4286" y="44.6931" width="1.85714" height="1.85714" fill="white"/>
<rect x="48.2857" y="44.6931" width="1.85714" height="1.85714" fill="white"/>
<rect x="50.1429" y="44.6931" width="1.85714" height="1.85714" fill="white"/>
<rect x="52" y="44.6931" width="1.85714" height="1.85714" fill="white"/>
<rect x="53.8571" y="44.6931" width="1.85714" height="1.85714" fill="white"/>
<rect x="55.7143" y="44.6931" width="1.85714" height="1.85714" fill="white"/>
<rect x="57.5714" y="44.6931" width="1.85714" height="1.85714" fill="white"/>
<rect x="59.4286" y="44.6931" width="1.85714" height="1.85714" fill="black"/>
<rect x="3.71429" y="46.5502" width="1.85714" height="1.85714" fill="black"/>
<rect x="5.57144" y="46.5502" width="1.85714" height="1.85714" fill="black"/>
<rect x="7.42859" y="46.5502" width="1.85714" height="1.85714" fill="white"/>
<rect x="9.28571" y="46.5502" width="1.85714" height="1.85714" fill="white"/>
<rect x="11.1429" y="46.5502" width="1.85714" height="1.85714" fill="white"/>
<rect x="13" y="46.5502" width="1.85714" height="1.85714" fill="white"/>
<rect x="14.8571" y="46.5502" width="1.85714" height="1.85714" fill="white"/>
<rect x="16.7143" y="46.5502" width="1.85714" height="1.85714" fill="white"/>
<rect x="18.5714" y="46.5502" width="1.85714" height="1.85714" fill="white"/>
<rect x="20.4286" y="46.5502" width="1.85714" height="1.85714" fill="white"/>
<rect x="22.2857" y="46.5502" width="1.85714" height="1.85714" fill="white"/>
<rect x="24.1429" y="46.5502" width="1.85714" height="1.85714" fill="white"/>
<rect x="26" y="46.5502" width="1.85714" height="1.85714" fill="white"/>
<rect x="27.8571" y="46.5502" width="1.85714" height="1.85714" fill="white"/>
<rect x="29.7143" y="46.5502" width="1.85714" height="1.85714" fill="white"/>
<rect x="31.5714" y="46.5502" width="1.85714" height="1.85714" fill="white"/>
<rect x="33.4286" y="46.5502" width="1.85714" height="1.85714" fill="white"/>
<rect x="35.2857" y="46.5502" width="1.85714" height="1.85714" fill="white"/>
<rect x="37.1429" y="46.5502" width="1.85714" height="1.85714" fill="white"/>
<rect x="39" y="46.5502" width="1.85714" height="1.85714" fill="white"/>
<rect x="40.8571" y="46.5502" width="1.85714" height="1.85714" fill="#474747"/>
<rect x="42.7143" y="46.5502" width="1.85714" height="1.85714" fill="#565656"/>
<rect x="44.5714" y="46.5502" width="1.85714" height="1.85714" fill="#656565"/>
<rect x="46.4286" y="46.5502" width="1.85714" height="1.85714" fill="white"/>
<rect x="48.2857" y="46.5502" width="1.85714" height="1.85714" fill="white"/>
<rect x="50.1429" y="46.5502" width="1.85714" height="1.85714" fill="white"/>
<rect x="52" y="46.5502" width="1.85714" height="1.85714" fill="white"/>
<rect x="53.8571" y="46.5502" width="1.85714" height="1.85714" fill="white"/>
<rect x="55.7143" y="46.5502" width="1.85714" height="1.85714" fill="white"/>
<rect x="57.5714" y="46.5502" width="1.85714" height="1.85714" fill="white"/>
<rect x="59.4286" y="46.5502" width="1.85714" height="1.85714" fill="black"/>
<rect x="5.57144" y="48.4073" width="1.85714" height="1.85714" fill="black"/>
<rect x="7.42859" y="48.4073" width="1.85714" height="1.85714" fill="white"/>
<rect x="9.28571" y="48.4073" width="1.85714" height="1.85714" fill="white"/>
<rect x="11.1429" y="48.4073" width="1.85714" height="1.85714" fill="white"/>
<rect x="13" y="48.4073" width="1.85714" height="1.85714" fill="white"/>
<rect x="14.8571" y="48.4073" width="1.85714" height="1.85714" fill="white"/>
<rect x="16.7143" y="48.4073" width="1.85714" height="1.85714" fill="white"/>
<rect x="18.5714" y="48.4073" width="1.85714" height="1.85714" fill="white"/>
<rect x="20.4286" y="48.4073" width="1.85714" height="1.85714" fill="white"/>
<rect x="22.2857" y="48.4073" width="1.85714" height="1.85714" fill="white"/>
<rect x="24.1429" y="48.4073" width="1.85714" height="1.85714" fill="white"/>
<rect x="26" y="48.4073" width="1.85714" height="1.85714" fill="white"/>
<rect x="27.8571" y="48.4073" width="1.85714" height="1.85714" fill="white"/>
<rect x="29.7143" y="48.4073" width="1.85714" height="1.85714" fill="white"/>
<rect x="31.5714" y="48.4073" width="1.85714" height="1.85714" fill="white"/>
<rect x="33.4286" y="48.4073" width="1.85714" height="1.85714" fill="white"/>
<rect x="35.2857" y="48.4073" width="1.85714" height="1.85714" fill="white"/>
<rect x="37.1429" y="48.4073" width="1.85714" height="1.85714" fill="white"/>
<rect x="39" y="48.4073" width="1.85714" height="1.85714" fill="white"/>
<rect x="40.8571" y="48.4073" width="1.85714" height="1.85714" fill="white"/>
<rect x="42.7143" y="48.4073" width="1.85714" height="1.85714" fill="#696969"/>
<rect x="44.5714" y="48.4073" width="1.85714" height="1.85714" fill="#787878"/>
<rect x="46.4286" y="48.4073" width="1.85714" height="1.85714" fill="#868686"/>
<rect x="48.2857" y="48.4073" width="1.85714" height="1.85714" fill="white"/>
<rect x="50.1429" y="48.4073" width="1.85714" height="1.85714" fill="white"/>
<rect x="52" y="48.4073" width="1.85714" height="1.85714" fill="white"/>
<rect x="53.8571" y="48.4073" width="1.85714" height="1.85714" fill="white"/>
<rect x="55.7143" y="48.4073" width="1.85714" height="1.85714" fill="white"/>
<rect x="57.5714" y="48.4073" width="1.85714" height="1.85714" fill="black"/>
<rect x="7.42859" y="50.2645" width="1.85714" height="1.85714" fill="black"/>
<rect x="9.28571" y="50.2645" width="1.85714" height="1.85714" fill="white"/>
<rect x="11.1429" y="50.2645" width="1.85714" height="1.85714" fill="white"/>
<rect x="13" y="50.2645" width="1.85714" height="1.85714" fill="white"/>
<rect x="14.8571" y="50.2645" width="1.85714" height="1.85714" fill="white"/>
<rect x="16.7143" y="50.2645" width="1.85714" height="1.85714" fill="white"/>
<rect x="18.5714" y="50.2645" width="1.85714" height="1.85714" fill="white"/>
<rect x="20.4286" y="50.2645" width="1.85714" height="1.85714" fill="white"/>
<rect x="22.2857" y="50.2645" width="1.85714" height="1.85714" fill="white"/>
<rect x="24.1429" y="50.2645" width="1.85714" height="1.85714" fill="white"/>
<rect x="26" y="50.2645" width="1.85714" height="1.85714" fill="white"/>
<rect x="27.8571" y="50.2645" width="1.85714" height="1.85714" fill="white"/>
<rect x="29.7143" y="50.2645" width="1.85714" height="1.85714" fill="white"/>
<rect x="31.5714" y="50.2645" width="1.85714" height="1.85714" fill="white"/>
<rect x="33.4286" y="50.2645" width="1.85714" height="1.85714" fill="white"/>
<rect x="35.2857" y="50.2645" width="1.85714" height="1.85714" fill="white"/>
<rect x="37.1429" y="50.2645" width="1.85714" height="1.85714" fill="white"/>
<rect x="39" y="50.2645" width="1.85714" height="1.85714" fill="white"/>
<rect x="40.8571" y="50.2645" width="1.85714" height="1.85714" fill="white"/>
<rect x="42.7143" y="50.2645" width="1.85714" height="1.85714" fill="white"/>
<rect x="44.5714" y="50.2645" width="1.85714" height="1.85714" fill="#8A8A8A"/>
<rect x="46.4286" y="50.2645" width="1.85714" height="1.85714" fill="#999999"/>
<rect x="48.2857" y="50.2645" width="1.85714" height="1.85714" fill="#A8A8A8"/>
<rect x="50.1429" y="50.2645" width="1.85714" height="1.85714" fill="white"/>
<rect x="52" y="50.2645" width="1.85714" height="1.85714" fill="white"/>
<rect x="53.8571" y="50.2645" width="1.85714" height="1.85714" fill="white"/>
<rect x="55.7143" y="50.2645" width="1.85714" height="1.85714" fill="black"/>
<rect x="57.5714" y="50.2645" width="1.85714" height="1.85714" fill="black"/>
<rect x="7.42859" y="52.1216" width="1.85714" height="1.85714" fill="black"/>
<rect x="9.28571" y="52.1216" width="1.85714" height="1.85714" fill="black"/>
<rect x="11.1429" y="52.1216" width="1.85714" height="1.85714" fill="white"/>
<rect x="13" y="52.1216" width="1.85714" height="1.85714" fill="white"/>
<rect x="14.8571" y="52.1216" width="1.85714" height="1.85714" fill="white"/>
<rect x="16.7143" y="52.1216" width="1.85714" height="1.85714" fill="white"/>
<rect x="18.5714" y="52.1216" width="1.85714" height="1.85714" fill="white"/>
<rect x="20.4286" y="52.1216" width="1.85714" height="1.85714" fill="white"/>
<rect x="22.2857" y="52.1216" width="1.85714" height="1.85714" fill="white"/>
<rect x="24.1429" y="52.1216" width="1.85714" height="1.85714" fill="white"/>
<rect x="26" y="52.1216" width="1.85714" height="1.85714" fill="white"/>
<rect x="27.8571" y="52.1216" width="1.85714" height="1.85714" fill="white"/>
<rect x="29.7143" y="52.1216" width="1.85714" height="1.85714" fill="white"/>
<rect x="31.5714" y="52.1216" width="1.85714" height="1.85714" fill="white"/>
<rect x="33.4286" y="52.1216" width="1.85714" height="1.85714" fill="white"/>
<rect x="35.2857" y="52.1216" width="1.85714" height="1.85714" fill="white"/>
<rect x="37.1429" y="52.1216" width="1.85714" height="1.85714" fill="white"/>
<rect x="39" y="52.1216" width="1.85714" height="1.85714" fill="white"/>
<rect x="40.8571" y="52.1216" width="1.85714" height="1.85714" fill="white"/>
<rect x="42.7143" y="52.1216" width="1.85714" height="1.85714" fill="white"/>
<rect x="44.5714" y="52.1216" width="1.85714" height="1.85714" fill="#F9F9F9"/>
<rect x="46.4286" y="52.1216" width="1.85714" height="1.85714" fill="#ABABAB"/>
<rect x="48.2857" y="52.1216" width="1.85714" height="1.85714" fill="#BABABA"/>
<rect x="50.1429" y="52.1216" width="1.85714" height="1.85714" fill="white"/>
<rect x="52" y="52.1216" width="1.85714" height="1.85714" fill="white"/>
<rect x="53.8571" y="52.1216" width="1.85714" height="1.85714" fill="black"/>
<rect x="55.7143" y="52.1216" width="1.85714" height="1.85714" fill="black"/>
<rect x="9.28571" y="53.9788" width="1.85714" height="1.85714" fill="black"/>
<rect x="11.1429" y="53.9788" width="1.85714" height="1.85714" fill="black"/>
<rect x="13" y="53.9788" width="1.85714" height="1.85714" fill="white"/>
<rect x="14.8571" y="53.9788" width="1.85714" height="1.85714" fill="white"/>
<rect x="16.7143" y="53.9788" width="1.85714" height="1.85714" fill="white"/>
<rect x="18.5714" y="53.9788" width="1.85714" height="1.85714" fill="white"/>
<rect x="20.4286" y="53.9788" width="1.85714" height="1.85714" fill="white"/>
<rect x="22.2857" y="53.9788" width="1.85714" height="1.85714" fill="white"/>
<rect x="24.1429" y="53.9788" width="1.85714" height="1.85714" fill="white"/>
<rect x="26" y="53.9788" width="1.85714" height="1.85714" fill="white"/>
<rect x="27.8571" y="53.9788" width="1.85714" height="1.85714" fill="white"/>
<rect x="29.7143" y="53.9788" width="1.85714" height="1.85714" fill="white"/>
<rect x="31.5714" y="53.9788" width="1.85714" height="1.85714" fill="white"/>
<rect x="33.4286" y="53.9788" width="1.85714" height="1.85714" fill="white"/>
<rect x="35.2857" y="53.9788" width="1.85714" height="1.85714" fill="white"/>
<rect x="37.1429" y="53.9788" width="1.85714" height="1.85714" fill="white"/>
<rect x="39" y="53.9788" width="1.85714" height="1.85714" fill="white"/>
<rect x="40.8571" y="53.9788" width="1.85714" height="1.85714" fill="white"/>
<rect x="42.7143" y="53.9788" width="1.85714" height="1.85714" fill="white"/>
<rect x="44.5714" y="53.9788" width="1.85714" height="1.85714" fill="white"/>
<rect x="46.4286" y="53.9788" width="1.85714" height="1.85714" fill="#BEBEBE"/>
<rect x="48.2857" y="53.9788" width="1.85714" height="1.85714" fill="#CCCCCC"/>
<rect x="50.1429" y="53.9788" width="1.85714" height="1.85714" fill="#DCDCDC"/>
<rect x="52" y="53.9788" width="1.85714" height="1.85714" fill="black"/>
<rect x="53.8571" y="53.9788" width="1.85714" height="1.85714" fill="black"/>
<rect x="11.1429" y="55.8359" width="1.85714" height="1.85714" fill="black"/>
<rect x="13" y="55.8359" width="1.85714" height="1.85714" fill="black"/>
<rect x="14.8571" y="55.8359" width="1.85714" height="1.85714" fill="white"/>
<rect x="16.7143" y="55.8359" width="1.85714" height="1.85714" fill="white"/>
<rect x="18.5714" y="55.8359" width="1.85714" height="1.85714" fill="white"/>
<rect x="20.4286" y="55.8359" width="1.85714" height="1.85714" fill="white"/>
<rect x="22.2857" y="55.8359" width="1.85714" height="1.85714" fill="white"/>
<rect x="24.1429" y="55.8359" width="1.85714" height="1.85714" fill="white"/>
<rect x="26" y="55.8359" width="1.85714" height="1.85714" fill="white"/>
<rect x="27.8571" y="55.8359" width="1.85714" height="1.85714" fill="white"/>
<rect x="29.7143" y="55.8359" width="1.85714" height="1.85714" fill="white"/>
<rect x="31.5714" y="55.8359" width="1.85714" height="1.85714" fill="white"/>
<rect x="33.4286" y="55.8359" width="1.85714" height="1.85714" fill="white"/>
<rect x="35.2857" y="55.8359" width="1.85714" height="1.85714" fill="white"/>
<rect x="37.1429" y="55.8359" width="1.85714" height="1.85714" fill="white"/>
<rect x="39" y="55.8359" width="1.85714" height="1.85714" fill="white"/>
<rect x="40.8571" y="55.8359" width="1.85714" height="1.85714" fill="white"/>
<rect x="42.7143" y="55.8359" width="1.85714" height="1.85714" fill="white"/>
<rect x="44.5714" y="55.8359" width="1.85714" height="1.85714" fill="white"/>
<rect x="46.4286" y="55.8359" width="1.85714" height="1.85714" fill="white"/>
<rect x="48.2857" y="55.8359" width="1.85714" height="1.85714" fill="#DFDFDF"/>
<rect x="50.1429" y="55.8359" width="1.85714" height="1.85714" fill="black"/>
<rect x="52" y="55.8359" width="1.85714" height="1.85714" fill="black"/>
<rect x="14.8571" y="57.6931" width="1.85714" height="1.85714" fill="black"/>
<rect x="16.7143" y="57.6931" width="1.85714" height="1.85714" fill="black"/>
<rect x="18.5714" y="57.6931" width="1.85714" height="1.85714" fill="white"/>
<rect x="20.4286" y="57.6931" width="1.85714" height="1.85714" fill="white"/>
<rect x="22.2857" y="57.6931" width="1.85714" height="1.85714" fill="white"/>
<rect x="24.1429" y="57.6931" width="1.85714" height="1.85714" fill="white"/>
<rect x="26" y="57.6931" width="1.85714" height="1.85714" fill="white"/>
<rect x="27.8571" y="57.6931" width="1.85714" height="1.85714" fill="white"/>
<rect x="29.7143" y="57.6931" width="1.85714" height="1.85714" fill="white"/>
<rect x="31.5714" y="57.6931" width="1.85714" height="1.85714" fill="white"/>
<rect x="33.4286" y="57.6931" width="1.85714" height="1.85714" fill="white"/>
<rect x="35.2857" y="57.6931" width="1.85714" height="1.85714" fill="white"/>
<rect x="37.1429" y="57.6931" width="1.85714" height="1.85714" fill="white"/>
<rect x="39" y="57.6931" width="1.85714" height="1.85714" fill="white"/>
<rect x="40.8571" y="57.6931" width="1.85714" height="1.85714" fill="white"/>
<rect x="42.7143" y="57.6931" width="1.85714" height="1.85714" fill="white"/>
<rect x="44.5714" y="57.6931" width="1.85714" height="1.85714" fill="white"/>
<rect x="46.4286" y="57.6931" width="1.85714" height="1.85714" fill="white"/>
<rect x="48.2857" y="57.6931" width="1.85714" height="1.85714" fill="black"/>
<rect x="50.1429" y="57.6931" width="1.85714" height="1.85714" fill="black"/>
<rect x="16.7143" y="59.5502" width="1.85714" height="1.85714" fill="black"/>
<rect x="18.5714" y="59.5502" width="1.85714" height="1.85714" fill="black"/>
<rect x="20.4286" y="59.5502" width="1.85714" height="1.85714" fill="black"/>
<rect x="22.2857" y="59.5502" width="1.85714" height="1.85714" fill="white"/>
<rect x="24.1429" y="59.5502" width="1.85714" height="1.85714" fill="white"/>
<rect x="26" y="59.5502" width="1.85714" height="1.85714" fill="white"/>
<rect x="27.8571" y="59.5502" width="1.85714" height="1.85714" fill="white"/>
<rect x="29.7143" y="59.5502" width="1.85714" height="1.85714" fill="white"/>
<rect x="31.5714" y="59.5502" width="1.85714" height="1.85714" fill="white"/>
<rect x="33.4286" y="59.5502" width="1.85714" height="1.85714" fill="white"/>
<rect x="35.2857" y="59.5502" width="1.85714" height="1.85714" fill="white"/>
<rect x="37.1429" y="59.5502" width="1.85714" height="1.85714" fill="white"/>
<rect x="39" y="59.5502" width="1.85714" height="1.85714" fill="white"/>
<rect x="40.8571" y="59.5502" width="1.85714" height="1.85714" fill="white"/>
<rect x="42.7143" y="59.5502" width="1.85714" height="1.85714" fill="#8F8F8F"/>
<rect x="44.5714" y="59.5502" width="1.85714" height="1.85714" fill="black"/>
<rect x="46.4286" y="59.5502" width="1.85714" height="1.85714" fill="black"/>
<rect x="20.4286" y="61.4073" width="1.85714" height="1.85714" fill="black"/>
<rect x="22.2857" y="61.4073" width="1.85714" height="1.85714" fill="black"/>
<rect x="24.1429" y="61.4073" width="1.85714" height="1.85714" fill="black"/>
<rect x="26" y="61.4073" width="1.85714" height="1.85714" fill="black"/>
<rect x="27.8571" y="61.4073" width="1.85714" height="1.85714" fill="#101010"/>
<rect x="29.7143" y="61.4073" width="1.85714" height="1.85714" fill="white"/>
<rect x="31.5714" y="61.4073" width="1.85714" height="1.85714" fill="white"/>
<rect x="33.4286" y="61.4073" width="1.85714" height="1.85714" fill="white"/>
<rect x="35.2857" y="61.4073" width="1.85714" height="1.85714" fill="#AFAFAF"/>
<rect x="37.1429" y="61.4073" width="1.85714" height="1.85714" fill="black"/>
<rect x="39" y="61.4073" width="1.85714" height="1.85714" fill="black"/>
<rect x="40.8571" y="61.4073" width="1.85714" height="1.85714" fill="black"/>
<rect x="42.7143" y="61.4073" width="1.85714" height="1.85714" fill="black"/>
<rect x="26" y="63.2645" width="1.85714" height="1.85714" fill="black"/>
<rect x="27.8571" y="63.2645" width="1.85714" height="1.85714" fill="black"/>
<rect x="29.7143" y="63.2645" width="1.85714" height="1.85714" fill="black"/>
<rect x="31.5714" y="63.2645" width="1.85714" height="1.85714" fill="black"/>
<rect x="33.4286" y="63.2645" width="1.85714" height="1.85714" fill="black"/>
<rect x="35.2857" y="63.2645" width="1.85714" height="1.85714" fill="black"/>
<rect x="37.1429" y="63.2645" width="1.85714" height="1.85714" fill="black"/>
</svg>
