<svg width="65" height="77" viewBox="0 0 65 77" fill="none" xmlns="http://www.w3.org/2000/svg">
<rect x="31.087" y="0.315186" width="2.82609" height="2.82609" fill="#FDEAE7"/>
<rect x="28.2609" y="3.14124" width="2.82609" height="2.82609" fill="#FDEAE7"/>
<rect x="31.087" y="3.14124" width="2.82609" height="2.82609" fill="#FDEAE7"/>
<rect x="25.4348" y="5.96741" width="2.82609" height="2.82609" fill="#FDEAE7"/>
<rect x="28.2609" y="5.96741" width="2.82609" height="2.82609" fill="#FDEAE7"/>
<rect x="31.087" y="5.96741" width="2.82609" height="2.82609" fill="#FDEAE7"/>
<rect x="22.6087" y="8.79346" width="2.82609" height="2.82609" fill="#FDEAE7"/>
<rect x="25.4348" y="8.79346" width="2.82609" height="2.82609" fill="#FDEAE7"/>
<rect x="28.2609" y="8.79346" width="2.82609" height="2.82609" fill="#FDEAE7"/>
<rect x="31.087" y="8.79346" width="2.82609" height="2.82609" fill="#FDEAE7"/>
<rect x="19.7826" y="11.6195" width="2.82609" height="2.82609" fill="#FDEAE7"/>
<rect x="22.6087" y="11.6195" width="2.82609" height="2.82609" fill="#FDEAE7"/>
<rect x="25.4348" y="11.6195" width="2.82609" height="2.82609" fill="#FDEAE7"/>
<rect x="28.2609" y="11.6195" width="2.82609" height="2.82609" fill="#FDEAE7"/>
<rect x="42.3913" y="11.6195" width="2.82609" height="2.82609" fill="#FDEAE7"/>
<rect x="45.2174" y="11.6195" width="2.82609" height="2.82609" fill="#FDEAE7"/>
<rect x="16.9565" y="14.4457" width="2.82609" height="2.82609" fill="#FDEAE7"/>
<rect x="19.7826" y="14.4457" width="2.82609" height="2.82609" fill="#FDEAE7"/>
<rect x="22.6087" y="14.4457" width="2.82609" height="2.82609" fill="#FDEAE7"/>
<rect x="25.4348" y="14.4457" width="2.82609" height="2.82609" fill="#FDEAE7"/>
<rect x="39.5652" y="14.4457" width="2.82609" height="2.82609" fill="#FDEAE7"/>
<rect x="42.3913" y="14.4457" width="2.82609" height="2.82609" fill="#FDEAE7"/>
<rect x="45.2174" y="14.4457" width="2.82609" height="2.82609" fill="#FDEAE7"/>
<rect x="14.1304" y="17.2717" width="2.82609" height="2.82609" fill="#FDEAE7"/>
<rect x="16.9565" y="17.2717" width="2.82609" height="2.82609" fill="#FDEAE7"/>
<rect x="19.7826" y="17.2717" width="2.82609" height="2.82609" fill="#FDEAE7"/>
<rect x="22.6087" y="17.2717" width="2.82609" height="2.82609" fill="#FDEAE7"/>
<rect x="42.3913" y="17.2717" width="2.82609" height="2.82609" fill="#FDEAE7"/>
<rect x="45.2174" y="17.2717" width="2.82609" height="2.82609" fill="#FDEAE7"/>
<rect x="11.3044" y="20.0978" width="2.82609" height="2.82609" fill="#FDEAE7"/>
<rect x="14.1304" y="20.0978" width="2.82609" height="2.82609" fill="#FDEAE7"/>
<rect x="16.9565" y="20.0978" width="2.82609" height="2.82609" fill="#FDEAE7"/>
<rect x="19.7826" y="20.0978" width="2.82609" height="2.82609" fill="#FDEAE7"/>
<rect x="8.47827" y="22.9238" width="2.82609" height="2.82609" fill="#FDEAE7"/>
<rect x="11.3044" y="22.9238" width="2.82609" height="2.82609" fill="#FDEAE7"/>
<rect x="14.1304" y="22.9238" width="2.82609" height="2.82609" fill="#FDEAE7"/>
<rect x="16.9565" y="22.9238" width="2.82609" height="2.82609" fill="#FDEAE7"/>
<rect x="53.6956" y="22.9238" width="2.82609" height="2.82609" fill="#FDEAE7"/>
<rect x="56.5217" y="22.9238" width="2.82609" height="2.82609" fill="#FDEAE7"/>
<rect x="5.65216" y="25.75" width="2.82609" height="2.82609" fill="#FDEAE7"/>
<rect x="8.47827" y="25.75" width="2.82609" height="2.82609" fill="#FDEAE7"/>
<rect x="11.3044" y="25.75" width="2.82609" height="2.82609" fill="#FDEAE7"/>
<rect x="14.1304" y="25.75" width="2.82609" height="2.82609" fill="#FDEAE7"/>
<rect x="50.8696" y="25.75" width="2.82609" height="2.82609" fill="#FDEAE7"/>
<rect x="53.6956" y="25.75" width="2.82609" height="2.82609" fill="#FDEAE7"/>
<rect x="56.5217" y="25.75" width="2.82609" height="2.82609" fill="#FDEAE7"/>
<rect x="5.65216" y="28.576" width="2.82609" height="2.82609" fill="#FDEAE7"/>
<rect x="8.47827" y="28.576" width="2.82609" height="2.82609" fill="#FDEAE7"/>
<rect x="11.3044" y="28.576" width="2.82609" height="2.82609" fill="#FDEAE7"/>
<rect x="53.6956" y="28.576" width="2.82609" height="2.82609" fill="#FDEAE7"/>
<rect x="56.5217" y="28.576" width="2.82609" height="2.82609" fill="#FDEAE7"/>
<rect x="59.3478" y="28.576" width="2.82609" height="2.82609" fill="#FDEAE7"/>
<rect x="2.82608" y="31.4021" width="2.82609" height="2.82609" fill="#FDEAE7"/>
<rect x="5.65216" y="31.4021" width="2.82609" height="2.82609" fill="#FDEAE7"/>
<rect x="8.47827" y="31.4021" width="2.82609" height="2.82609" fill="#FDEAE7"/>
<rect x="53.6956" y="31.4021" width="2.82609" height="2.82609" fill="#FDEAE7"/>
<rect x="56.5217" y="31.4021" width="2.82609" height="2.82609" fill="#FDEAE7"/>
<rect x="59.3478" y="31.4021" width="2.82609" height="2.82609" fill="#FDEAE7"/>
<rect x="2.82608" y="34.2283" width="2.82609" height="2.82609" fill="#FDEAE7"/>
<rect x="5.65216" y="34.2283" width="2.82609" height="2.82609" fill="#FDEAE7"/>
<rect x="8.47827" y="34.2283" width="2.82609" height="2.82609" fill="#FDEAE7"/>
<rect x="56.5217" y="34.2283" width="2.82609" height="2.82609" fill="#FDEAE7"/>
<rect x="59.3478" y="34.2283" width="2.82609" height="2.82609" fill="#FDEAE7"/>
<rect x="62.1739" y="34.2283" width="2.82609" height="2.82609" fill="#FDEAE7"/>
<rect x="2.82608" y="37.0543" width="2.82609" height="2.82609" fill="#FDEAE7"/>
<rect x="5.65216" y="37.0543" width="2.82609" height="2.82609" fill="#FDEAE7"/>
<rect x="8.47827" y="37.0543" width="2.82609" height="2.82609" fill="#FDEAE7"/>
<rect x="56.5217" y="37.0543" width="2.82609" height="2.82609" fill="#FDEAE7"/>
<rect x="59.3478" y="37.0543" width="2.82609" height="2.82609" fill="#FDEAE7"/>
<rect x="62.1739" y="37.0543" width="2.82609" height="2.82609" fill="#FDEAE7"/>
<rect y="39.8804" width="2.82609" height="2.82609" fill="#FDEAE7"/>
<rect x="2.82608" y="39.8804" width="2.82609" height="2.82609" fill="#FDEAE7"/>
<rect x="5.65216" y="39.8804" width="2.82609" height="2.82609" fill="#FDEAE7"/>
<rect x="56.5217" y="39.8804" width="2.82609" height="2.82609" fill="#FDEAE7"/>
<rect x="59.3478" y="39.8804" width="2.82609" height="2.82609" fill="#FDEAE7"/>
<rect x="62.1739" y="39.8804" width="2.82609" height="2.82609" fill="#FDEAE7"/>
<rect y="42.7065" width="2.82609" height="2.82609" fill="#FDEAE7"/>
<rect x="2.82608" y="42.7065" width="2.82609" height="2.82609" fill="#FDEAE7"/>
<rect x="5.65216" y="42.7065" width="2.82609" height="2.82609" fill="#FDEAE7"/>
<rect x="56.5217" y="42.7065" width="2.82609" height="2.82609" fill="#FDEAE7"/>
<rect x="59.3478" y="42.7065" width="2.82609" height="2.82609" fill="#FDEAE7"/>
<rect x="62.1739" y="42.7065" width="2.82609" height="2.82609" fill="#FDEAE7"/>
<rect y="45.5326" width="2.82609" height="2.82609" fill="#FDEAE7"/>
<rect x="2.82608" y="45.5326" width="2.82609" height="2.82609" fill="#FDEAE7"/>
<rect x="5.65216" y="45.5326" width="2.82609" height="2.82609" fill="#FDEAE7"/>
<rect x="56.5217" y="45.5326" width="2.82609" height="2.82609" fill="#FDEAE7"/>
<rect x="59.3478" y="45.5326" width="2.82609" height="2.82609" fill="#FDEAE7"/>
<rect x="62.1739" y="45.5326" width="2.82609" height="2.82609" fill="#FDEAE7"/>
<rect x="2.82608" y="48.3586" width="2.82609" height="2.82609" fill="#FDEAE7"/>
<rect x="5.65216" y="48.3586" width="2.82609" height="2.82609" fill="#FDEAE7"/>
<rect x="8.47827" y="48.3586" width="2.82609" height="2.82609" fill="#FDEAE7"/>
<rect x="56.5217" y="48.3586" width="2.82609" height="2.82609" fill="#FDEAE7"/>
<rect x="59.3478" y="48.3586" width="2.82609" height="2.82609" fill="#FDEAE7"/>
<rect x="62.1739" y="48.3586" width="2.82609" height="2.82609" fill="#FDEAE7"/>
<rect x="2.82608" y="51.1847" width="2.82609" height="2.82609" fill="#FDEAE7"/>
<rect x="5.65216" y="51.1847" width="2.82609" height="2.82609" fill="#FDEAE7"/>
<rect x="8.47827" y="51.1847" width="2.82609" height="2.82609" fill="#FDEAE7"/>
<rect x="56.5217" y="51.1847" width="2.82609" height="2.82609" fill="#FDEAE7"/>
<rect x="59.3478" y="51.1847" width="2.82609" height="2.82609" fill="#FDEAE7"/>
<rect x="62.1739" y="51.1847" width="2.82609" height="2.82609" fill="#FDEAE7"/>
<rect x="2.82608" y="54.0109" width="2.82609" height="2.82609" fill="#FDEAE7"/>
<rect x="5.65216" y="54.0109" width="2.82609" height="2.82609" fill="#FDEAE7"/>
<rect x="8.47827" y="54.0109" width="2.82609" height="2.82609" fill="#FDEAE7"/>
<rect x="53.6956" y="54.0109" width="2.82609" height="2.82609" fill="#FDEAE7"/>
<rect x="56.5217" y="54.0109" width="2.82609" height="2.82609" fill="#FDEAE7"/>
<rect x="59.3478" y="54.0109" width="2.82609" height="2.82609" fill="#FDEAE7"/>
<rect x="5.65216" y="56.8369" width="2.82609" height="2.82609" fill="#FDEAE7"/>
<rect x="8.47827" y="56.8369" width="2.82609" height="2.82609" fill="#FDEAE7"/>
<rect x="11.3044" y="56.8369" width="2.82609" height="2.82609" fill="#FDEAE7"/>
<rect x="53.6956" y="56.8369" width="2.82609" height="2.82609" fill="#FDEAE7"/>
<rect x="56.5217" y="56.8369" width="2.82609" height="2.82609" fill="#FDEAE7"/>
<rect x="59.3478" y="56.8369" width="2.82609" height="2.82609" fill="#FDEAE7"/>
<rect x="5.65216" y="59.663" width="2.82609" height="2.82609" fill="#FDEAE7"/>
<rect x="8.47827" y="59.663" width="2.82609" height="2.82609" fill="#FDEAE7"/>
<rect x="11.3044" y="59.663" width="2.82609" height="2.82609" fill="#FDEAE7"/>
<rect x="14.1304" y="59.663" width="2.82609" height="2.82609" fill="#FDEAE7"/>
<rect x="50.8696" y="59.663" width="2.82609" height="2.82609" fill="#FDEAE7"/>
<rect x="53.6956" y="59.663" width="2.82609" height="2.82609" fill="#FDEAE7"/>
<rect x="56.5217" y="59.663" width="2.82609" height="2.82609" fill="#FDEAE7"/>
<rect x="8.47827" y="62.4891" width="2.82609" height="2.82609" fill="#FDEAE7"/>
<rect x="11.3044" y="62.4891" width="2.82609" height="2.82609" fill="#FDEAE7"/>
<rect x="14.1304" y="62.4891" width="2.82609" height="2.82609" fill="#FDEAE7"/>
<rect x="16.9565" y="62.4891" width="2.82609" height="2.82609" fill="#FDEAE7"/>
<rect x="45.2174" y="62.4891" width="2.82609" height="2.82609" fill="#FDEAE7"/>
<rect x="48.0435" y="62.4891" width="2.82609" height="2.82609" fill="#FDEAE7"/>
<rect x="50.8696" y="62.4891" width="2.82609" height="2.82609" fill="#FDEAE7"/>
<rect x="53.6956" y="62.4891" width="2.82609" height="2.82609" fill="#FDEAE7"/>
<rect x="56.5217" y="62.4891" width="2.82609" height="2.82609" fill="#FDEAE7"/>
<rect x="11.3044" y="65.3152" width="2.82609" height="2.82609" fill="#FDEAE7"/>
<rect x="14.1304" y="65.3152" width="2.82609" height="2.82609" fill="#FDEAE7"/>
<rect x="16.9565" y="65.3152" width="2.82609" height="2.82609" fill="#FDEAE7"/>
<rect x="19.7826" y="65.3152" width="2.82609" height="2.82609" fill="#FDEAE7"/>
<rect x="22.6087" y="65.3152" width="2.82609" height="2.82609" fill="#FDEAE7"/>
<rect x="39.5652" y="65.3152" width="2.82609" height="2.82609" fill="#FDEAE7"/>
<rect x="42.3913" y="65.3152" width="2.82609" height="2.82609" fill="#FDEAE7"/>
<rect x="45.2174" y="65.3152" width="2.82609" height="2.82609" fill="#FDEAE7"/>
<rect x="48.0435" y="65.3152" width="2.82609" height="2.82609" fill="#FDEAE7"/>
<rect x="50.8696" y="65.3152" width="2.82609" height="2.82609" fill="#FDEAE7"/>
<rect x="53.6956" y="65.3152" width="2.82609" height="2.82609" fill="#FDEAE7"/>
<rect x="14.1304" y="68.1412" width="2.82609" height="2.82609" fill="#FDEAE7"/>
<rect x="16.9565" y="68.1412" width="2.82609" height="2.82609" fill="#FDEAE7"/>
<rect x="19.7826" y="68.1412" width="2.82609" height="2.82609" fill="#FDEAE7"/>
<rect x="22.6087" y="68.1412" width="2.82609" height="2.82609" fill="#FDEAE7"/>
<rect x="25.4348" y="68.1412" width="2.82609" height="2.82609" fill="#FDEAE7"/>
<rect x="28.2609" y="68.1412" width="2.82609" height="2.82609" fill="#FDEAE7"/>
<rect x="31.087" y="68.1412" width="2.82609" height="2.82609" fill="#FDEAE7"/>
<rect x="33.913" y="68.1412" width="2.82609" height="2.82609" fill="#FDEAE7"/>
<rect x="36.7391" y="68.1412" width="2.82609" height="2.82609" fill="#FDEAE7"/>
<rect x="39.5652" y="68.1412" width="2.82609" height="2.82609" fill="#FDEAE7"/>
<rect x="42.3913" y="68.1412" width="2.82609" height="2.82609" fill="#FDEAE7"/>
<rect x="45.2174" y="68.1412" width="2.82609" height="2.82609" fill="#FDEAE7"/>
<rect x="48.0435" y="68.1412" width="2.82609" height="2.82609" fill="#FDEAE7"/>
<rect x="50.8696" y="68.1412" width="2.82609" height="2.82609" fill="#FDEAE7"/>
<rect x="16.9565" y="70.9674" width="2.82609" height="2.82609" fill="#FDEAE7"/>
<rect x="19.7826" y="70.9674" width="2.82609" height="2.82609" fill="#FDEAE7"/>
<rect x="22.6087" y="70.9674" width="2.82609" height="2.82609" fill="#FDEAE7"/>
<rect x="25.4348" y="70.9674" width="2.82609" height="2.82609" fill="#FDEAE7"/>
<rect x="28.2609" y="70.9674" width="2.82609" height="2.82609" fill="#FDEAE7"/>
<rect x="31.087" y="70.9674" width="2.82609" height="2.82609" fill="#FDEAE7"/>
<rect x="33.913" y="70.9674" width="2.82609" height="2.82609" fill="#FDEAE7"/>
<rect x="36.7391" y="70.9674" width="2.82609" height="2.82609" fill="#FDEAE7"/>
<rect x="39.5652" y="70.9674" width="2.82609" height="2.82609" fill="#FDEAE7"/>
<rect x="42.3913" y="70.9674" width="2.82609" height="2.82609" fill="#FDEAE7"/>
<rect x="45.2174" y="70.9674" width="2.82609" height="2.82609" fill="#FDEAE7"/>
<rect x="25.4348" y="73.7935" width="2.82609" height="2.82609" fill="#FDEAE7"/>
<rect x="28.2609" y="73.7935" width="2.82609" height="2.82609" fill="#FDEAE7"/>
<rect x="31.087" y="73.7935" width="2.82609" height="2.82609" fill="#FDEAE7"/>
<rect x="33.913" y="73.7935" width="2.82609" height="2.82609" fill="#FDEAE7"/>
<rect x="36.7391" y="73.7935" width="2.82609" height="2.82609" fill="#FDEAE7"/>
<rect x="39.5652" y="73.7935" width="2.82609" height="2.82609" fill="#FDEAE7"/>
</svg>
