<svg width="65" height="61" viewBox="0 0 65 61" fill="none" xmlns="http://www.w3.org/2000/svg">
<rect x="17.9306" y="0.363159" width="2.24139" height="2.24139" fill="white"/>
<rect x="20.1737" y="0.363159" width="2.24139" height="2.24139" fill="white"/>
<rect x="42.5869" y="0.363159" width="2.24139" height="2.24139" fill="white"/>
<rect x="44.8264" y="0.363159" width="2.24139" height="2.24139" fill="white"/>
<rect x="13.4478" y="2.60449" width="2.24139" height="2.24139" fill="white"/>
<rect x="15.6906" y="2.60449" width="2.24139" height="2.24139" fill="white"/>
<rect x="17.9306" y="2.60449" width="2.24139" height="2.24139" fill="white"/>
<rect x="20.1737" y="2.60449" width="2.24139" height="2.24139" fill="white"/>
<rect x="22.4134" y="2.60449" width="2.24139" height="2.24139" fill="white"/>
<rect x="24.6565" y="2.60449" width="2.24139" height="2.24139" fill="white"/>
<rect x="38.104" y="2.60449" width="2.24139" height="2.24139" fill="white"/>
<rect x="40.3441" y="2.60449" width="2.24139" height="2.24139" fill="white"/>
<rect x="42.5869" y="2.60449" width="2.24139" height="2.24139" fill="white"/>
<rect x="44.8264" y="2.60449" width="2.24139" height="2.24139" fill="white"/>
<rect x="47.0697" y="2.60449" width="2.24139" height="2.24139" fill="white"/>
<rect x="49.3095" y="2.60449" width="2.24139" height="2.24139" fill="white"/>
<rect x="13.4478" y="4.84576" width="2.24139" height="2.24139" fill="white"/>
<rect x="24.6565" y="4.84576" width="2.24139" height="2.24139" fill="white"/>
<rect x="26.8961" y="4.84576" width="2.24139" height="2.24139" fill="white"/>
<rect x="35.8614" y="4.84576" width="2.24139" height="2.24139" fill="white"/>
<rect x="38.104" y="4.84576" width="2.24139" height="2.24139" fill="white"/>
<rect x="49.3095" y="4.84576" width="2.24139" height="2.24139" fill="white"/>
<rect x="11.2076" y="7.08716" width="2.24139" height="2.24139" fill="white"/>
<rect x="13.4478" y="7.08716" width="2.24139" height="2.24139" fill="white"/>
<rect x="26.8961" y="7.08716" width="2.24139" height="2.24139" fill="white"/>
<rect x="29.1389" y="7.08716" width="2.24139" height="2.24139" fill="white"/>
<rect x="33.6217" y="7.08716" width="2.24139" height="2.24139" fill="white"/>
<rect x="35.8614" y="7.08716" width="2.24139" height="2.24139" fill="white"/>
<rect x="49.3095" y="7.08716" width="2.24139" height="2.24139" fill="white"/>
<rect x="51.5526" y="7.08716" width="2.24139" height="2.24139" fill="white"/>
<rect x="11.2076" y="9.32861" width="2.24139" height="2.24139" fill="white"/>
<rect x="13.4478" y="9.32861" width="2.24139" height="2.24139" fill="white"/>
<rect x="31.3786" y="9.32861" width="2.24139" height="2.24139" fill="white"/>
<rect x="49.3095" y="9.32861" width="2.24139" height="2.24139" fill="white"/>
<rect x="51.5526" y="9.32861" width="2.24139" height="2.24139" fill="white"/>
<rect x="11.2076" y="11.57" width="2.24139" height="2.24139" fill="white"/>
<rect x="13.4478" y="11.57" width="2.24139" height="2.24139" fill="white"/>
<rect x="29.1389" y="11.57" width="2.24139" height="2.24139" fill="white"/>
<rect x="31.3786" y="11.57" width="2.24139" height="2.24139" fill="white"/>
<rect x="33.6217" y="11.57" width="2.24139" height="2.24139" fill="white"/>
<rect x="49.3095" y="11.57" width="2.24139" height="2.24139" fill="white"/>
<rect x="51.5526" y="11.57" width="2.24139" height="2.24139" fill="white"/>
<rect x="13.4478" y="13.8114" width="2.24139" height="2.24139" fill="white"/>
<rect x="26.8961" y="13.8114" width="2.24139" height="2.24139" fill="white"/>
<rect x="29.1389" y="13.8114" width="2.24139" height="2.24139" fill="white"/>
<rect x="33.6217" y="13.8114" width="2.24139" height="2.24139" fill="white"/>
<rect x="35.8614" y="13.8114" width="2.24139" height="2.24139" fill="white"/>
<rect x="49.3095" y="13.8114" width="2.24139" height="2.24139" fill="white"/>
<rect x="13.4478" y="16.0526" width="2.24139" height="2.24139" fill="white"/>
<rect x="24.6565" y="16.0526" width="2.24139" height="2.24139" fill="white"/>
<rect x="26.8961" y="16.0526" width="2.24139" height="2.24139" fill="white"/>
<rect x="29.1389" y="16.0526" width="2.24139" height="2.24139" fill="white"/>
<rect x="31.3786" y="16.0526" width="2.24139" height="2.24139" fill="white"/>
<rect x="33.6217" y="16.0526" width="2.24139" height="2.24139" fill="white"/>
<rect x="35.8614" y="16.0526" width="2.24139" height="2.24139" fill="white"/>
<rect x="38.104" y="16.0526" width="2.24139" height="2.24139" fill="white"/>
<rect x="49.3095" y="16.0526" width="2.24139" height="2.24139" fill="white"/>
<rect x="13.4478" y="18.294" width="2.24139" height="2.24139" fill="white"/>
<rect x="15.6906" y="18.294" width="2.24139" height="2.24139" fill="white"/>
<rect x="17.9306" y="18.294" width="2.24139" height="2.24139" fill="white"/>
<rect x="20.1737" y="18.294" width="2.24139" height="2.24139" fill="white"/>
<rect x="22.4134" y="18.294" width="2.24139" height="2.24139" fill="white"/>
<rect x="24.6565" y="18.294" width="2.24139" height="2.24139" fill="white"/>
<rect x="26.8961" y="18.294" width="2.24139" height="2.24139" fill="white"/>
<rect x="29.1389" y="18.294" width="2.24139" height="2.24139" fill="white"/>
<rect x="31.3786" y="18.294" width="2.24139" height="2.24139" fill="white"/>
<rect x="33.6217" y="18.294" width="2.24139" height="2.24139" fill="white"/>
<rect x="35.8614" y="18.294" width="2.24139" height="2.24139" fill="white"/>
<rect x="38.104" y="18.294" width="2.24139" height="2.24139" fill="white"/>
<rect x="40.3441" y="18.294" width="2.24139" height="2.24139" fill="white"/>
<rect x="42.5869" y="18.294" width="2.24139" height="2.24139" fill="white"/>
<rect x="44.8264" y="18.294" width="2.24139" height="2.24139" fill="white"/>
<rect x="47.0697" y="18.294" width="2.24139" height="2.24139" fill="white"/>
<rect x="49.3095" y="18.294" width="2.24139" height="2.24139" fill="white"/>
<rect x="6.72456" y="20.5353" width="2.24139" height="2.24139" fill="white"/>
<rect x="8.96501" y="20.5353" width="2.24139" height="2.24139" fill="white"/>
<rect x="11.2076" y="20.5353" width="2.24139" height="2.24139" fill="white"/>
<rect x="13.4478" y="20.5353" width="2.24139" height="2.24139" fill="white"/>
<rect x="15.6906" y="20.5353" width="2.24139" height="2.24139" fill="white"/>
<rect x="22.4134" y="20.5353" width="2.24139" height="2.24139" fill="white"/>
<rect x="40.3441" y="20.5353" width="2.24139" height="2.24139" fill="white"/>
<rect x="47.0697" y="20.5353" width="2.24139" height="2.24139" fill="white"/>
<rect x="49.3095" y="20.5353" width="2.24139" height="2.24139" fill="white"/>
<rect x="51.5526" y="20.5353" width="2.24139" height="2.24139" fill="white"/>
<rect x="53.7925" y="20.5353" width="2.24139" height="2.24139" fill="white"/>
<rect x="56.0351" y="20.5353" width="2.24139" height="2.24139" fill="white"/>
<rect x="4.48265" y="22.7761" width="2.24139" height="2.24139" fill="white"/>
<rect x="6.72456" y="22.7761" width="2.24139" height="2.24139" fill="white"/>
<rect x="13.4478" y="22.7761" width="2.24139" height="2.24139" fill="white"/>
<rect x="15.6906" y="22.7761" width="2.24139" height="2.24139" fill="white"/>
<rect x="20.1737" y="22.7761" width="2.24139" height="2.24139" fill="white"/>
<rect x="22.4134" y="22.7761" width="2.24139" height="2.24139" fill="white"/>
<rect x="40.3441" y="22.7761" width="2.24139" height="2.24139" fill="white"/>
<rect x="42.5869" y="22.7761" width="2.24139" height="2.24139" fill="white"/>
<rect x="47.0697" y="22.7761" width="2.24139" height="2.24139" fill="white"/>
<rect x="49.3095" y="22.7761" width="2.24139" height="2.24139" fill="white"/>
<rect x="56.0351" y="22.7761" width="2.24139" height="2.24139" fill="white"/>
<rect x="58.2756" y="22.7761" width="2.24139" height="2.24139" fill="white"/>
<rect y="25.0182" width="2.24139" height="2.24139" fill="white"/>
<rect x="2.24152" y="25.0182" width="2.24139" height="2.24139" fill="white"/>
<rect x="4.48265" y="25.0182" width="2.24139" height="2.24139" fill="white"/>
<rect x="15.6906" y="25.0182" width="2.24139" height="2.24139" fill="white"/>
<rect x="20.1737" y="25.0182" width="2.24139" height="2.24139" fill="white"/>
<rect x="29.1389" y="25.0182" width="2.24139" height="2.24139" fill="white"/>
<rect x="31.3786" y="25.0182" width="2.24139" height="2.24139" fill="white"/>
<rect x="33.6217" y="25.0182" width="2.24139" height="2.24139" fill="white"/>
<rect x="42.5869" y="25.0182" width="2.24139" height="2.24139" fill="white"/>
<rect x="47.0697" y="25.0182" width="2.24139" height="2.24139" fill="white"/>
<rect x="58.2756" y="25.0182" width="2.24139" height="2.24139" fill="white"/>
<rect x="60.5178" y="25.0182" width="2.24139" height="2.24139" fill="white"/>
<rect x="62.7586" y="25.0182" width="2.24139" height="2.24139" fill="white"/>
<rect y="27.2591" width="2.24139" height="2.24139" fill="white"/>
<rect x="15.6906" y="27.2591" width="2.24139" height="2.24139" fill="white"/>
<rect x="17.9306" y="27.2591" width="2.24139" height="2.24139" fill="white"/>
<rect x="20.1737" y="27.2591" width="2.24139" height="2.24139" fill="white"/>
<rect x="26.8961" y="27.2591" width="2.24139" height="2.24139" fill="white"/>
<rect x="29.1389" y="27.2591" width="2.24139" height="2.24139" fill="white"/>
<rect x="31.3786" y="27.2591" width="2.24139" height="2.24139" fill="white"/>
<rect x="33.6217" y="27.2591" width="2.24139" height="2.24139" fill="white"/>
<rect x="35.8614" y="27.2591" width="2.24139" height="2.24139" fill="white"/>
<rect x="42.5869" y="27.2591" width="2.24139" height="2.24139" fill="white"/>
<rect x="44.8264" y="27.2591" width="2.24139" height="2.24139" fill="white"/>
<rect x="47.0697" y="27.2591" width="2.24139" height="2.24139" fill="white"/>
<rect x="62.7586" y="27.2591" width="2.24139" height="2.24139" fill="white"/>
<rect y="29.5013" width="2.24139" height="2.24139" fill="white"/>
<rect x="17.9306" y="29.5013" width="2.24139" height="2.24139" fill="white"/>
<rect x="26.8961" y="29.5013" width="2.24139" height="2.24139" fill="white"/>
<rect x="29.1389" y="29.5013" width="2.24139" height="2.24139" fill="white"/>
<rect x="31.3786" y="29.5013" width="2.24139" height="2.24139" fill="white"/>
<rect x="33.6217" y="29.5013" width="2.24139" height="2.24139" fill="white"/>
<rect x="35.8614" y="29.5013" width="2.24139" height="2.24139" fill="white"/>
<rect x="44.8264" y="29.5013" width="2.24139" height="2.24139" fill="white"/>
<rect x="62.7586" y="29.5013" width="2.24139" height="2.24139" fill="white"/>
<rect y="31.7426" width="2.24139" height="2.24139" fill="white"/>
<rect x="15.6906" y="31.7426" width="2.24139" height="2.24139" fill="white"/>
<rect x="17.9306" y="31.7426" width="2.24139" height="2.24139" fill="white"/>
<rect x="20.1737" y="31.7426" width="2.24139" height="2.24139" fill="white"/>
<rect x="26.8961" y="31.7426" width="2.24139" height="2.24139" fill="white"/>
<rect x="29.1389" y="31.7426" width="2.24139" height="2.24139" fill="white"/>
<rect x="31.3786" y="31.7426" width="2.24139" height="2.24139" fill="white"/>
<rect x="33.6217" y="31.7426" width="2.24139" height="2.24139" fill="white"/>
<rect x="35.8614" y="31.7426" width="2.24139" height="2.24139" fill="white"/>
<rect x="42.5869" y="31.7426" width="2.24139" height="2.24139" fill="white"/>
<rect x="44.8264" y="31.7426" width="2.24139" height="2.24139" fill="white"/>
<rect x="47.0697" y="31.7426" width="2.24139" height="2.24139" fill="white"/>
<rect x="62.7586" y="31.7426" width="2.24139" height="2.24139" fill="white"/>
<rect y="33.9843" width="2.24139" height="2.24139" fill="white"/>
<rect x="2.24152" y="33.9843" width="2.24139" height="2.24139" fill="white"/>
<rect x="4.48265" y="33.9843" width="2.24139" height="2.24139" fill="white"/>
<rect x="15.6906" y="33.9843" width="2.24139" height="2.24139" fill="white"/>
<rect x="20.1737" y="33.9843" width="2.24139" height="2.24139" fill="white"/>
<rect x="29.1389" y="33.9843" width="2.24139" height="2.24139" fill="white"/>
<rect x="31.3786" y="33.9843" width="2.24139" height="2.24139" fill="white"/>
<rect x="33.6217" y="33.9843" width="2.24139" height="2.24139" fill="white"/>
<rect x="42.5869" y="33.9843" width="2.24139" height="2.24139" fill="white"/>
<rect x="47.0697" y="33.9843" width="2.24139" height="2.24139" fill="white"/>
<rect x="58.2756" y="33.9843" width="2.24139" height="2.24139" fill="white"/>
<rect x="60.5178" y="33.9843" width="2.24139" height="2.24139" fill="white"/>
<rect x="62.7586" y="33.9843" width="2.24139" height="2.24139" fill="white"/>
<rect x="4.48265" y="36.2257" width="2.24139" height="2.24139" fill="white"/>
<rect x="6.72456" y="36.2257" width="2.24139" height="2.24139" fill="white"/>
<rect x="13.4478" y="36.2257" width="2.24139" height="2.24139" fill="white"/>
<rect x="15.6906" y="36.2257" width="2.24139" height="2.24139" fill="white"/>
<rect x="20.1737" y="36.2257" width="2.24139" height="2.24139" fill="white"/>
<rect x="22.4134" y="36.2257" width="2.24139" height="2.24139" fill="white"/>
<rect x="40.3441" y="36.2257" width="2.24139" height="2.24139" fill="white"/>
<rect x="42.5869" y="36.2257" width="2.24139" height="2.24139" fill="white"/>
<rect x="47.0697" y="36.2257" width="2.24139" height="2.24139" fill="white"/>
<rect x="49.3095" y="36.2257" width="2.24139" height="2.24139" fill="white"/>
<rect x="56.0351" y="36.2257" width="2.24139" height="2.24139" fill="white"/>
<rect x="58.2756" y="36.2257" width="2.24139" height="2.24139" fill="white"/>
<rect x="6.72456" y="38.4673" width="2.24139" height="2.24139" fill="white"/>
<rect x="8.96501" y="38.4673" width="2.24139" height="2.24139" fill="white"/>
<rect x="11.2076" y="38.4673" width="2.24139" height="2.24139" fill="white"/>
<rect x="13.4478" y="38.4673" width="2.24139" height="2.24139" fill="white"/>
<rect x="15.6906" y="38.4673" width="2.24139" height="2.24139" fill="white"/>
<rect x="22.4134" y="38.4673" width="2.24139" height="2.24139" fill="white"/>
<rect x="40.3441" y="38.4673" width="2.24139" height="2.24139" fill="white"/>
<rect x="47.0697" y="38.4673" width="2.24139" height="2.24139" fill="white"/>
<rect x="49.3095" y="38.4673" width="2.24139" height="2.24139" fill="white"/>
<rect x="51.5526" y="38.4673" width="2.24139" height="2.24139" fill="white"/>
<rect x="53.7925" y="38.4673" width="2.24139" height="2.24139" fill="white"/>
<rect x="56.0351" y="38.4673" width="2.24139" height="2.24139" fill="white"/>
<rect x="13.4478" y="40.7087" width="2.24139" height="2.24139" fill="white"/>
<rect x="15.6906" y="40.7087" width="2.24139" height="2.24139" fill="white"/>
<rect x="17.9306" y="40.7087" width="2.24139" height="2.24139" fill="white"/>
<rect x="20.1737" y="40.7087" width="2.24139" height="2.24139" fill="white"/>
<rect x="22.4134" y="40.7087" width="2.24139" height="2.24139" fill="white"/>
<rect x="24.6565" y="40.7087" width="2.24139" height="2.24139" fill="white"/>
<rect x="26.8961" y="40.7087" width="2.24139" height="2.24139" fill="white"/>
<rect x="29.1389" y="40.7087" width="2.24139" height="2.24139" fill="white"/>
<rect x="31.3786" y="40.7087" width="2.24139" height="2.24139" fill="white"/>
<rect x="33.6217" y="40.7087" width="2.24139" height="2.24139" fill="white"/>
<rect x="35.8614" y="40.7087" width="2.24139" height="2.24139" fill="white"/>
<rect x="38.104" y="40.7087" width="2.24139" height="2.24139" fill="white"/>
<rect x="40.3441" y="40.7087" width="2.24139" height="2.24139" fill="white"/>
<rect x="42.5869" y="40.7087" width="2.24139" height="2.24139" fill="white"/>
<rect x="44.8264" y="40.7087" width="2.24139" height="2.24139" fill="white"/>
<rect x="47.0697" y="40.7087" width="2.24139" height="2.24139" fill="white"/>
<rect x="49.3095" y="40.7087" width="2.24139" height="2.24139" fill="white"/>
<rect x="13.4478" y="42.9504" width="2.24139" height="2.24139" fill="white"/>
<rect x="24.6565" y="42.9504" width="2.24139" height="2.24139" fill="white"/>
<rect x="26.8961" y="42.9504" width="2.24139" height="2.24139" fill="white"/>
<rect x="29.1389" y="42.9504" width="2.24139" height="2.24139" fill="white"/>
<rect x="31.3786" y="42.9504" width="2.24139" height="2.24139" fill="white"/>
<rect x="33.6217" y="42.9504" width="2.24139" height="2.24139" fill="white"/>
<rect x="35.8614" y="42.9504" width="2.24139" height="2.24139" fill="white"/>
<rect x="38.104" y="42.9504" width="2.24139" height="2.24139" fill="white"/>
<rect x="49.3095" y="42.9504" width="2.24139" height="2.24139" fill="white"/>
<rect x="13.4478" y="45.191" width="2.24139" height="2.24139" fill="white"/>
<rect x="26.8961" y="45.191" width="2.24139" height="2.24139" fill="white"/>
<rect x="29.1389" y="45.191" width="2.24139" height="2.24139" fill="white"/>
<rect x="33.6217" y="45.191" width="2.24139" height="2.24139" fill="white"/>
<rect x="35.8614" y="45.191" width="2.24139" height="2.24139" fill="white"/>
<rect x="49.3095" y="45.191" width="2.24139" height="2.24139" fill="white"/>
<rect x="11.2076" y="47.4327" width="2.24139" height="2.24139" fill="white"/>
<rect x="13.4478" y="47.4327" width="2.24139" height="2.24139" fill="white"/>
<rect x="29.1389" y="47.4327" width="2.24139" height="2.24139" fill="white"/>
<rect x="31.3786" y="47.4327" width="2.24139" height="2.24139" fill="white"/>
<rect x="33.6217" y="47.4327" width="2.24139" height="2.24139" fill="white"/>
<rect x="49.3095" y="47.4327" width="2.24139" height="2.24139" fill="white"/>
<rect x="51.5526" y="47.4327" width="2.24139" height="2.24139" fill="white"/>
<rect x="11.2076" y="49.6739" width="2.24139" height="2.24139" fill="white"/>
<rect x="13.4478" y="49.6739" width="2.24139" height="2.24139" fill="white"/>
<rect x="31.3786" y="49.6739" width="2.24139" height="2.24139" fill="white"/>
<rect x="49.3095" y="49.6739" width="2.24139" height="2.24139" fill="white"/>
<rect x="51.5526" y="49.6739" width="2.24139" height="2.24139" fill="white"/>
<rect x="11.2076" y="51.9156" width="2.24139" height="2.24139" fill="white"/>
<rect x="13.4478" y="51.9156" width="2.24139" height="2.24139" fill="white"/>
<rect x="26.8961" y="51.9156" width="2.24139" height="2.24139" fill="white"/>
<rect x="29.1389" y="51.9156" width="2.24139" height="2.24139" fill="white"/>
<rect x="33.6217" y="51.9156" width="2.24139" height="2.24139" fill="white"/>
<rect x="35.8614" y="51.9156" width="2.24139" height="2.24139" fill="white"/>
<rect x="49.3095" y="51.9156" width="2.24139" height="2.24139" fill="white"/>
<rect x="51.5526" y="51.9156" width="2.24139" height="2.24139" fill="white"/>
<rect x="13.4478" y="54.1562" width="2.24139" height="2.24139" fill="white"/>
<rect x="24.6565" y="54.1562" width="2.24139" height="2.24139" fill="white"/>
<rect x="26.8961" y="54.1562" width="2.24139" height="2.24139" fill="white"/>
<rect x="35.8614" y="54.1562" width="2.24139" height="2.24139" fill="white"/>
<rect x="38.104" y="54.1562" width="2.24139" height="2.24139" fill="white"/>
<rect x="49.3095" y="54.1562" width="2.24139" height="2.24139" fill="white"/>
<rect x="13.4478" y="56.3981" width="2.24139" height="2.24139" fill="white"/>
<rect x="15.6906" y="56.3981" width="2.24139" height="2.24139" fill="white"/>
<rect x="17.9306" y="56.3981" width="2.24139" height="2.24139" fill="white"/>
<rect x="20.1737" y="56.3981" width="2.24139" height="2.24139" fill="white"/>
<rect x="22.4134" y="56.3981" width="2.24139" height="2.24139" fill="white"/>
<rect x="24.6565" y="56.3981" width="2.24139" height="2.24139" fill="white"/>
<rect x="38.104" y="56.3981" width="2.24139" height="2.24139" fill="white"/>
<rect x="40.3441" y="56.3981" width="2.24139" height="2.24139" fill="white"/>
<rect x="42.5869" y="56.3981" width="2.24139" height="2.24139" fill="white"/>
<rect x="44.8264" y="56.3981" width="2.24139" height="2.24139" fill="white"/>
<rect x="47.0697" y="56.3981" width="2.24139" height="2.24139" fill="white"/>
<rect x="49.3095" y="56.3981" width="2.24139" height="2.24139" fill="white"/>
<rect x="17.9306" y="58.6387" width="2.24139" height="2.24139" fill="white"/>
<rect x="20.1737" y="58.6387" width="2.24139" height="2.24139" fill="white"/>
<rect x="42.5869" y="58.6387" width="2.24139" height="2.24139" fill="white"/>
<rect x="44.8264" y="58.6387" width="2.24139" height="2.24139" fill="white"/>
</svg>
